<?xml version="1.0" encoding="UTF-8"?>
<svg width="22px" height="40px" viewBox="0 0 22 40" version="1.1" xmlns="http://www.w3.org/2000/svg" xmlns:xlink="http://www.w3.org/1999/xlink">
    <!-- Generator: Sketch 55.2 (78181) - https://sketchapp.com -->
    <title>Fill 263</title>
    <desc>Created with Sketch.</desc>
    <g id="Menu" stroke="none" stroke-width="1" fill="none" fill-rule="evenodd">
        <g id="Menu_Mobile" transform="translate(-39.000000, -283.000000)" fill="#03AA85">
            <path d="M52.9544983,318.962223 C52.9544983,319.575787 52.4605651,320.075174 51.848667,320.075174 L48.7486484,320.075174 C48.1400069,320.075174 47.6475212,319.575787 47.6475212,318.962223 C47.6475212,318.345376 48.1400069,317.847083 48.7486484,317.847083 L51.848667,317.847083 C52.4605651,317.847083 52.9544983,318.345376 52.9544983,318.962223 Z M56.8650738,321.333674 L43.1348176,321.333674 C41.7655553,321.333674 40.6532829,320.211238 40.6532829,318.831996 L40.6532829,316.600257 L59.3466809,316.600257 L59.3466809,318.831996 C59.3466809,320.211238 58.2339743,321.333674 56.8650738,321.333674 Z M50.8267862,292.15531 L50.8267862,287.580099 L56.8650738,287.580099 C58.2339743,287.580099 59.3466809,288.702425 59.3466809,290.081813 L59.3466809,292.15531 L50.8267862,292.15531 Z M56.8650738,285.913517 L50.8267862,285.913517 L50.8267862,283 L49.1731052,283 L49.1731052,302.93806 L45.3580596,299.0907 L44.1892654,300.268947 L49.9999457,306.128447 L55.8106261,300.268947 L54.6418318,299.0907 L50.8267862,302.93806 L50.8267862,293.822037 L59.3466809,293.822037 L59.3466809,314.933931 L40.6532829,314.933931 L40.6532829,293.822037 L47.6250861,293.822037 L47.6250861,292.15531 L40.6532829,292.15531 L40.6532829,290.081813 C40.6532829,288.702425 41.7655553,287.580099 43.1348176,287.580099 L47.6250861,287.580099 L47.6250861,285.913517 L43.1348176,285.913517 C40.8550899,285.913517 39,287.783648 39,290.081813 L39,318.831996 C39,321.130125 40.8550899,323 43.1348176,323 L56.8650738,323 C59.1447653,323 61,321.130125 61,318.831996 L61,290.081813 C61,287.783648 59.1447653,285.913517 56.8650738,285.913517 L56.8650738,285.913517 Z" id="Fill-263"></path>
        </g>
    </g>
</svg>