<?xml version="1.0" encoding="UTF-8"?>
<svg width="25px" height="21px" viewBox="0 0 25 21" version="1.1" xmlns="http://www.w3.org/2000/svg" xmlns:xlink="http://www.w3.org/1999/xlink">
    <!-- Generator: Sketch 55.2 (78181) - https://sketchapp.com -->
    <title>Group 6</title>
    <desc>Created with Sketch.</desc>
    <g id="Menu" stroke="none" stroke-width="1" fill="none" fill-rule="evenodd">
        <g id="Menu_Mobile" transform="translate(-25.000000, -106.000000)">
            <g id="Group-6" transform="translate(26.000000, 107.000000)">
                <g id="Group">
                    <rect id="Rectangle" stroke="#6E6C67" stroke-linejoin="round" x="15.3261306" y="4.18125" width="7.26284585" height="5.83333333" rx="1.75"></rect>
                    <path d="M17.0553796,9.62569444 L17.0553796,10.349631 C17.0553796,10.6717971 17.3165468,10.9329643 17.6387129,10.9329643 C17.7720441,10.9329643 17.9013517,10.8872888 18.0051016,10.8035441 L19.4643207,9.62569444" id="Path-9" stroke="#6E6C67" stroke-linejoin="round"></path>
                    <path d="M17.0842004,6.17949019 L20.8309071,6.17949019" id="Line" stroke="#6E6C67" stroke-linecap="round"></path>
                    <path d="M17.0553796,7.68125 L18.8422706,7.73504574" id="Line" stroke="#6E6C67" stroke-linecap="round"></path>
                    <path d="M12.4386916,6.35625 C12.8447226,5.09972835 12.9348396,3.76637912 12.7014357,2.46875 C12.5653787,1.98233982 12.2476207,1.56318889 11.810669,1.29375 C11.3556731,0.09375 9.2152697,-3.64153152e-14 9.2152697,-3.64153152e-14 C9.2152697,-3.64153152e-14 7.07486631,0.09375 6.61346199,1.29375 C6.17935306,1.56478271 5.86412937,1.98360372 5.7291037,2.46875 C5.48926004,3.76603269 5.57947935,5.10089618 5.99184783,6.35625" id="Path" stroke="#656461" stroke-linecap="round"></path>
                    <path d="M11.5543333,12.45625 C11.5543333,12.45625 14.1176907,13.15625 15.8479569,13.70625 C16.7745585,14.0108958 17.4526413,14.7900545 17.6102651,15.73125 L18.2062456,19.35" id="Path" stroke="#656461" stroke-linecap="round"></path>
                    <path d="M6.65832074,12.45625 C6.65832074,12.45625 3.83221925,13.225 2.10836143,13.80625 C1.33245087,14.0689596 0.76820062,14.7274019 0.64083934,15.51875 L1.82076576e-14,19.3625" id="Path" stroke="#656461" stroke-linecap="round"></path>
                    <path d="M6.90824808,9.86875 L6.90824808,12.44375 L7.39528598,12.85 C8.44502099,13.7125557 9.97911002,13.7125557 11.028845,12.85 L11.5222913,12.44375 L11.5222913,9.86875" id="Path" stroke="#656461" stroke-linecap="round" stroke-linejoin="round"></path>
                    <path d="M12.1246803,3.96875 C11.6889096,2.25625 10.3944141,2.675 10.0163189,2.80625 C9.75773164,2.89432671 9.48842032,2.94895892 9.2152697,2.96875 C8.94006503,2.94872209 8.66866638,2.89410339 8.40781214,2.80625 C8.03612532,2.6625 6.73522146,2.24375 6.3058591,3.95625 C6.09143558,4.73466264 5.98581013,5.53775727 5.99184783,6.34375 C6.04952337,7.1625 6.09438212,8.1125 6.10719891,8.45 C6.11340279,8.54381242 6.1328099,8.63634652 6.16487445,8.725 C6.39719974,9.31735792 6.79447978,9.83469365 7.31197687,10.21875 C7.86544664,10.6785816 8.52522496,11.000317 9.23449488,11.15625 C9.94324817,10.998907 10.6026965,10.6773325 11.1570129,10.21875 C11.6764877,9.83661184 12.0742337,9.31866929 12.3041153,8.725 C12.3412615,8.63752517 12.3629299,8.54454051 12.3681993,8.45 C12.3681993,8.1125 12.4258748,7.1625 12.4835503,6.34375 C12.4738286,5.53995789 12.3531196,4.74110672 12.1246803,3.96875 Z" id="Path" stroke="#656461" stroke-linecap="round"></path>
                    <path d="M3.24905545,17.1 C3.24905545,17.1 3.65278424,16.83125 3.70405138,17.16875 C3.75531853,17.50625 3.47975761,17.90625 3.16574634,17.73125 C3.16574634,17.73125 3.38363171,14.43125 5.23565741,14.5125 C7.0876831,14.59375 6.84416415,17.76875 6.84416415,17.76875 C6.84416415,17.76875 6.20332481,18.1625 6.47888572,17.14375" id="Path" stroke="#656461" stroke-linecap="round"></path>
                    <path d="M13.2653743,12.94375 C13.5423115,13.9190163 13.7099108,14.9207137 13.765229,15.93125" id="Path" stroke="#666562" stroke-linecap="round" fill-rule="nonzero"></path>
                    <path d="M13.7908626,16.64375 C14.0032181,16.64375 14.1753662,16.8116432 14.1753662,17.01875 C14.1753662,17.2258568 14.0032181,17.39375 13.7908626,17.39375 C13.5785071,17.39375 13.406359,17.2258568 13.406359,17.01875 C13.406359,16.8116432 13.5785071,16.64375 13.7908626,16.64375 L13.7908626,16.64375 Z" id="Path" fill="#EAB100" fill-rule="nonzero"></path>
                    <path d="M13.7908626,16.01875 C13.2245813,16.01875 12.7655196,16.4664653 12.7655196,17.01875 C12.7655196,17.5710347 13.2245813,18.01875 13.7908626,18.01875 C14.3571439,18.01875 14.8162055,17.5710347 14.8162055,17.01875 C14.8162055,16.4664653 14.3571439,16.01875 13.7908626,16.01875 L13.7908626,16.01875 Z" id="Path" fill="#696763" fill-rule="nonzero"></path>
                    <path d="M5.51121832,12.94375 L5.23565741,14.5125" id="Path" stroke="#656461" stroke-linecap="round"></path>
                </g>
            </g>
        </g>
    </g>
</svg>