<?xml version="1.0" encoding="UTF-8"?>
<svg width="20px" height="20px" viewBox="0 0 20 20" version="1.1" xmlns="http://www.w3.org/2000/svg" xmlns:xlink="http://www.w3.org/1999/xlink">
    <!-- Generator: Sketch 55.2 (78181) - https://sketchapp.com -->
    <title>Shape 4</title>
    <desc>Created with Sketch.</desc>
    <g id="Menu" stroke="none" stroke-width="1" fill="none" fill-rule="evenodd">
        <g id="Menu_Mobile" transform="translate(-28.000000, -357.000000)" fill="#4C4747" fill-rule="nonzero">
            <g id="Shape-4" transform="translate(28.000000, 357.000000)">
                <g id="Shape-3">
                    <path d="M9.9609375,7.890625 C10.3924561,7.890625 10.7421875,8.24035645 10.7421875,8.671875 C10.7421875,9.10339355 10.3924561,9.453125 9.9609375,9.453125 C9.52941895,9.453125 9.1796875,9.10339355 9.1796875,8.671875 C9.1796875,8.24035645 9.52941895,7.890625 9.9609375,7.890625 Z M12.6953125,8.671875 C12.6953125,9.10339355 13.0450439,9.453125 13.4765625,9.453125 C13.9080811,9.453125 14.2578125,9.10339355 14.2578125,8.671875 C14.2578125,8.24035645 13.9080811,7.890625 13.4765625,7.890625 C13.0450439,7.890625 12.6953125,8.24035645 12.6953125,8.671875 Z M5.6640625,8.671875 C5.6640625,9.10339355 6.01379395,9.453125 6.4453125,9.453125 C6.87683105,9.453125 7.2265625,9.10339355 7.2265625,8.671875 C7.2265625,8.24035645 6.87683105,7.890625 6.4453125,7.890625 C6.01379395,7.890625 5.6640625,8.24035645 5.6640625,8.671875 Z M19.3130493,15.9985352 C20.2273559,16.9128418 20.2273559,18.3996582 19.3135071,19.3135071 C18.8566589,19.7703552 18.2563782,19.9989319 17.65625,19.9989319 C17.0561218,19.9989319 16.4558411,19.7703552 15.9989929,19.3135071 L11.7103577,15.0344848 C11.6192627,14.9435425 11.552124,14.8316955 11.51474,14.7084045 L10.5805969,11.6333008 C10.4977417,11.3606262 10.5699158,11.0646057 10.7688904,10.8605957 C10.967865,10.6567383 11.2620545,10.5773926 11.5367127,10.6533813 L14.6899414,11.5267945 C14.8197937,11.5628052 14.9380493,11.6316223 15.0334168,11.7268371 L19.3130493,15.9985352 Z M12.9527283,14.0667725 L15.8468628,16.9544983 L16.9519043,15.8494568 L14.0748596,12.9779053 L12.4885559,12.5384521 L12.9527283,14.0667725 Z M18.2086182,17.1038818 L18.0578613,16.9532776 L16.9529724,18.0581665 L17.1032715,18.2080078 C17.4084473,18.5133362 17.9040527,18.5133362 18.2086182,18.2086182 C18.5133362,17.9040527 18.5133362,17.4084473 18.2086182,17.1038818 L18.2086182,17.1038818 Z M10.4345703,16.1895752 C10.2902222,16.1958313 10.144043,16.1990356 10,16.1990356 C8.74374391,16.1990356 7.53433227,15.9651184 6.40548707,15.5038452 C6.21322633,15.425415 5.99746703,15.4266357 5.80612184,15.5073547 L2.24884031,17.0089722 L3.4474182,14.1697693 C3.5646057,13.8922119 3.51165773,13.5717773 3.31115723,13.3465576 C2.16720582,12.0614624 1.5625,10.5238342 1.5625,8.90029906 C1.5625,4.85427855 5.34759523,1.5625 10,1.5625 C14.6524048,1.5625 18.4375,4.85427855 18.4375,8.90029906 C18.4375,9.85977172 18.2019043,10.8230591 17.7371216,11.7631531 C17.5459289,12.1499634 17.7044678,12.6185608 18.0912781,12.8097534 C18.4780884,13.0009461 18.9466858,12.8424072 19.1378784,12.4555969 C19.7099304,11.2982178 20,10.1020813 20,8.90029906 C20,3.99261477 15.5140686,2.66453526e-14 10,2.66453526e-14 C4.48608398,2.66453526e-14 0,3.99261477 0,8.90029906 C0,10.7527161 0.628051758,12.5070191 1.82174684,14.0031433 L0.0614929297,18.17276 C-0.0621032813,18.4655762 0.00411988281,18.8041687 0.228881836,19.0289307 C0.378417969,19.1784668 0.578155508,19.2578125 0.781402578,19.2578125 C0.883789062,19.2578125 0.987091055,19.2376709 1.0850525,19.1963196 L6.1213684,17.0703125 C7.34970094,17.5291443 8.6529541,17.7615356 10,17.7615356 C10.166626,17.7615356 10.3358459,17.7577209 10.5029297,17.7505493 C10.9339905,17.7316284 11.268158,17.3669434 11.2492371,16.9358826 C11.2304687,16.5048218 10.8650207,16.1695862 10.4345703,16.1895752 L10.4345703,16.1895752 Z" id="Shape"></path>
                </g>
            </g>
        </g>
    </g>
</svg>