<?xml version="1.0" encoding="UTF-8"?>
<svg width="18px" height="20px" viewBox="0 0 18 20" version="1.1" xmlns="http://www.w3.org/2000/svg" xmlns:xlink="http://www.w3.org/1999/xlink">
    <!-- Generator: Sketch 55.2 (78181) - https://sketchapp.com -->
    <title>Group 27</title>
    <desc>Created with Sketch.</desc>
    <defs>
        <polygon id="path-1" points="0 0.0193203883 17.4757282 0.0193203883 17.4757282 19.9029078 0 19.9029078"></polygon>
    </defs>
    <g id="Menu" stroke="none" stroke-width="1" fill="none" fill-rule="evenodd">
        <g id="Group-27">
            <path d="M9.65203883,6.17116505 C9.6068932,6.44800971 9.36703883,6.66019417 9.0776699,6.66019417 C8.75645631,6.66019417 8.49514563,6.3988835 8.49514563,6.0776699 C8.49514563,5.75645631 8.75645631,5.49514563 9.0776699,5.49514563 C9.37631068,5.49514563 9.62281553,5.72116505 9.65601942,6.0111165 C9.64728155,6.06402913 9.64597087,6.11786408 9.65203883,6.17116505 M9.0776699,2 C6.82907767,2 5,3.82932039 5,6.0776699 C5,7.47349515 5.7038835,8.75781553 6.88296117,9.51325243 C8.0868932,10.2846602 9.56480583,10.3666019 10.9382524,9.73475728 C11.2306311,9.60029126 11.3584466,9.25441748 11.2240291,8.96203883 C11.0895631,8.66980583 10.7436893,8.54184466 10.4513107,8.67626214 C9.44703883,9.13839806 8.37548544,9.08587379 7.51135922,8.5323301 C6.66830097,7.99208738 6.16504854,7.07451456 6.16504854,6.0776699 C6.16504854,4.4715534 7.4715534,3.16504854 9.0776699,3.16504854 C10.6835922,3.16504854 11.9902913,4.4715534 11.9902913,6.0776699 C11.9902913,6.3988835 11.7289806,6.66019417 11.407767,6.66019417 C11.1142233,6.66019417 10.84,6.43757282 10.8252427,6.08660194 L10.8252427,6.0776699 C10.8252427,5.11398058 10.0413107,4.33009709 9.0776699,4.33009709 C8.11398058,4.33009709 7.33009709,5.11398058 7.33009709,6.0776699 C7.33009709,7.04135922 8.11398058,7.82524272 9.0776699,7.82524272 C9.52480583,7.82524272 9.93325243,7.65631068 10.2427184,7.3788835 C10.5519903,7.65631068 10.9604369,7.82524272 11.407767,7.82524272 C12.3714078,7.82524272 13.1553398,7.04135922 13.1553398,6.0776699 C13.1553398,3.82932039 11.3260194,2 9.0776699,2" id="Fill-1" fill="#4C4747"></path>
            <g id="Group-5">
                <mask id="mask-2" fill="white">
                    <use xlink:href="#path-1"></use>
                </mask>
                <g id="Clip-4"></g>
                <path d="M16.3106796,17.9139272 L11.891699,13.4951408 L16.3106796,9.07611165 L16.3106796,17.9139272 Z M1.98878641,18.7378592 L6.64898058,14.077665 L10.8265534,14.077665 L15.4867476,18.7378592 L1.98878641,18.7378592 Z M1.16504854,17.9139272 L1.16504854,9.07611165 L5.58383495,13.4951408 L1.16504854,17.9139272 Z M2.33009709,6.74601456 L2.33009709,8.59353883 L1.40626214,7.66989806 L2.33009709,6.74601456 Z M3.49514563,5.3399466 L3.49514563,1.18436408 L13.9805825,1.18436408 L13.9805825,9.75858738 L10.8265534,12.9126165 L6.64898058,12.9126165 L3.49514563,9.75858738 L3.49514563,5.3399466 Z M15.1456311,6.74601456 L16.0692718,7.66989806 L15.1456311,8.59353883 L15.1456311,6.74601456 Z M17.4757282,7.66892718 C17.475534,7.51819903 17.4148544,7.3676165 17.3050485,7.25781068 L15.1456311,5.0983932 L15.1456311,0.601839806 C15.1456311,0.280043689 14.8847087,0.019315534 14.5631068,0.019315534 L2.91262136,0.019315534 C2.59082524,0.019315534 2.33009709,0.280043689 2.33009709,0.601839806 L2.33009709,5.0983932 L0.170631068,7.25781068 C0.168543689,7.25989806 0.16684466,7.26217961 0.164951456,7.26426699 C0.0557281553,7.37669417 0.000194174757,7.52480097 0,7.66892718 L0,7.67004369 L0,18.155335 C0,19.1201408 0.785048544,19.9029078 1.74757282,19.9029078 L15.7281553,19.9029078 C16.692767,19.9029078 17.4757282,19.1180534 17.4757282,18.155335 L17.4757282,7.67004369 L17.4757282,7.66892718 Z" id="Fill-3" fill="#4C4747" mask="url(#mask-2)"></path>
            </g>
        </g>
    </g>
</svg>