<?xml version="1.0" encoding="UTF-8"?>
<svg width="25px" height="25px" viewBox="0 0 25 25" version="1.1" xmlns="http://www.w3.org/2000/svg" xmlns:xlink="http://www.w3.org/1999/xlink">
    <!-- Generator: Sketch 55.2 (78181) - https://sketchapp.com -->
    <title>gold_health_pronlems 2</title>
    <desc>Created with Sketch.</desc>
    <g id="Menu" stroke="none" stroke-width="1" fill="none" fill-rule="evenodd">
        <g id="Menu_Mobile" transform="translate(-25.000000, -223.000000)" fill="#4B4B49">
            <g id="gold_health_pronlems-2" transform="translate(25.000000, 223.000000)">
                <path d="M7.67045455,0 C6.94137841,0 6.33303324,0.285863636 5.94815341,0.727982955 C5.56327358,1.17010227 5.39772727,1.73266193 5.39772727,2.27272727 L5.39772727,5.39772727 L2.27272727,5.39772727 C1.06657614,5.39772727 0,6.4963892 0,7.95454545 L0,14.7727273 C0,15.5018182 0.285565199,16.1109375 0.727982955,16.4950284 C1.17040057,16.8791193 1.73333437,17.0454545 2.27272727,17.0454545 L5.39772727,17.0454545 L5.39772727,20.4545455 C5.39772727,21.0576136 5.71512955,21.5994744 6.18785511,21.9371449 C6.66058068,22.2747869 7.27095767,22.4431818 7.95454545,22.4431818 L7.95454545,23.0113636 C7.95454545,23.6146875 8.27220483,24.1564631 8.7446733,24.4939631 C9.21714176,24.8314347 9.8311875,25 10.5113636,25 L17.3295455,25 C18.7818375,25 19.854329,23.9214347 19.8863636,22.7361506 C19.8863866,22.7331903 19.8863866,22.730233 19.8863636,22.7272727 L19.8863636,19.8863636 L22.7272727,19.8863636 C23.9339537,19.8863636 25,18.781733 25,17.3295455 L25,10.5113636 C25,9.8311875 24.8314384,9.21714205 24.4939631,8.7446733 C24.1564878,8.27214773 23.6147003,7.95454545 23.0113636,7.95454545 L22.4431818,7.95454545 C22.4431818,7.27095455 22.2836807,6.6517017 21.9460227,6.17897727 C21.6083648,5.70625284 21.0576222,5.39772727 20.4545455,5.39772727 L17.0454545,5.39772727 L17.0454545,2.27272727 C17.0454545,1.01965341 15.8402543,0 14.3821023,0 L7.67045455,0 Z M7.67045455,1.13636364 L14.3821023,1.13636364 C15.2897162,1.13636364 15.9090909,1.83594886 15.9090909,2.27272727 L15.9090909,5.96590909 C15.9091207,6.26340028 16.1797815,6.53406108 16.4772727,6.53409091 L20.4545455,6.53409091 C20.6963949,6.53409091 20.8613895,6.61894034 21.0227273,6.84481534 C21.1840651,7.07069034 21.3068182,7.45525568 21.3068182,7.95454545 C21.2782543,10.2041696 21.3068182,12.4927855 21.3068182,14.7727273 C21.3068182,15.272017 21.1877514,15.5426847 21.0582386,15.6871449 C20.9287259,15.8315767 20.7600795,15.9090909 20.4545455,15.9090909 L16.4772727,15.9090909 C16.1797815,15.9091207 15.9091207,16.1797815 15.9090909,16.4772727 L15.9090909,20.4545455 C15.9090909,20.7600852 15.8315963,20.9287216 15.6871449,21.0582386 C15.5426935,21.1877557 15.2720224,21.3068182 14.7727273,21.3068182 L8.56711648,21.3068182 C8.36292614,21.3068182 8.1587358,21.3068182 7.95454545,21.3068182 C7.45525057,21.3068182 7.0706875,21.1751563 6.84481534,21.0138494 C6.61894318,20.8525142 6.53409091,20.6964205 6.53409091,20.4545455 L6.53409091,16.4772727 C6.53406108,16.1797815 6.26340028,15.9091207 5.96590909,15.9090909 L2.27272727,15.9090909 C1.96719375,15.9090909 1.67234489,15.8063494 1.47372159,15.6338778 C1.2750983,15.4614347 1.13636364,15.2265341 1.13636364,14.7727273 L1.13636364,7.95454545 C1.13636364,7.04692898 1.78902557,6.53409091 2.27272727,6.53409091 L5.96590909,6.53409091 C6.26340028,6.53406108 6.53406108,6.26340028 6.53409091,5.96590909 L6.53409091,2.27272727 C6.53409091,1.96786648 6.62725852,1.67264205 6.80042614,1.47372159 C6.97359375,1.27480114 7.21664773,1.13636364 7.67045455,1.13636364 Z M9.03764205,7.38632773 C8.95322557,7.38615966 8.87262472,7.38654261 8.7890625,7.39524148 C8.11449119,7.46546591 7.45658892,7.7850142 6.89808239,8.27414773 C6.25352926,8.83863636 5.94974545,9.58080398 5.96590909,10.2894176 C5.98207386,10.9980313 6.29319773,11.660929 6.77379261,12.1715199 L10.3426847,15.962358 C10.425827,16.0505966 10.6047778,16.2326278 10.6800426,16.3085938 C10.8900866,16.5162511 11.2690043,16.5162511 11.4790483,16.3085938 C11.5543114,16.2326278 11.7332639,16.0505966 11.8164062,15.962358 L15.3852983,12.1715199 C15.8658932,11.660929 16.1770182,10.9980313 16.1931818,10.2894176 C16.2093466,9.58080398 15.9055616,8.83863636 15.2610085,8.27414773 C14.7024585,7.78497443 14.0413537,7.47126705 13.3700284,7.40411932 C12.6987031,7.33697159 11.9977361,7.54655398 11.5056818,8.07883523 L11.0795455,8.54048295 C10.9395213,8.39585938 10.7710597,8.2102733 10.6534091,8.07883523 C10.2309156,7.60564659 9.6285571,7.38779091 9.03764205,7.38632773 Z M8.91335227,8.52272727 C9.3032733,8.48213636 9.58389915,8.57513636 9.8100142,8.8334517 C10.0835361,9.14556477 10.3775656,9.45104631 10.6622869,9.75674716 C10.8743472,9.98613864 11.2847437,9.98613864 11.496804,9.75674716 L12.3401989,8.85120739 C12.5790293,8.59285227 12.8668767,8.49282102 13.2546165,8.53160511 C13.6423562,8.5703892 14.1034571,8.77353409 14.506392,9.12642045 C14.9287937,9.49635227 15.0656574,9.87526705 15.0568182,10.2627841 C15.0479801,10.6503011 14.8697866,11.0607955 14.5596591,11.3902699 L11.0795455,15.0745739 L7.59943182,11.3902699 C7.28930426,11.0607955 7.11111193,10.6503011 7.10227273,10.2627841 C7.09343466,9.87526705 7.23029716,9.49635227 7.65269886,9.12642045 C8.05567727,8.77349432 8.52343125,8.56331818 8.91335227,8.52272727 Z M22.4431818,9.09090909 L23.0113636,9.09090909 C23.2449821,9.09090909 23.4071543,9.17271307 23.5706676,9.40163352 C23.734181,9.63055398 23.8636364,10.0198182 23.8636364,10.5113636 L23.8636364,17.3295455 C23.8636364,18.220767 23.194502,18.75 22.7272727,18.75 L19.3181818,18.75 C19.0206906,18.7500298 18.7500298,19.0206906 18.75,19.3181818 L18.75,22.709517 L18.75,22.7272727 C18.726108,23.2136648 18.2109741,23.8636364 17.3295455,23.8636364 L10.5113636,23.8636364 C10.0198162,23.8636364 9.63943011,23.7341619 9.41051136,23.5706676 C9.18159261,23.4072869 9.09090909,23.245 9.09090909,23.0113636 L9.09090909,22.4431818 L14.7727273,22.4431818 C15.4563151,22.4431818 16.0385386,22.2710938 16.4506392,21.9016335 C16.8627398,21.5321449 17.0454545,20.9939489 17.0454545,20.4545455 L17.0454545,17.0454545 L20.4545455,17.0454545 C20.9939384,17.0454545 21.5321509,16.8538636 21.9016335,16.4417614 C22.2711162,16.0296591 22.4431818,15.4563352 22.4431818,14.7727273 L22.4431818,9.09090909 Z" id="gold_health_pronlems"></path>
            </g>
        </g>
    </g>
</svg>