<?xml version="1.0" encoding="UTF-8"?>
<svg width="22px" height="22px" viewBox="0 0 22 22" version="1.1" xmlns="http://www.w3.org/2000/svg" xmlns:xlink="http://www.w3.org/1999/xlink">
    <!-- Generator: Sketch 55.2 (78181) - https://sketchapp.com -->
    <title>Group 8</title>
    <desc>Created with Sketch.</desc>
    <g id="Menu" stroke="none" stroke-width="1" fill="none" fill-rule="evenodd" stroke-linecap="round">
        <g id="Menu_Mobile" transform="translate(-27.000000, -143.000000)" stroke="#6D6C68" stroke-width="1.28571429">
            <g id="Group-8" transform="translate(28.000000, 144.000000)">
                <g id="Group-2">
                    <path d="M7.41896807,14.0878209 L6.99230141,14.5211542 C6.22447087,15.2901761 5.18235386,15.7223084 4.09563474,15.7223084 C3.00891562,15.7223084 1.96679861,15.2901761 1.19896807,14.5211542 L1.19896807,14.5211542 C-0.399656024,12.9182863 -0.399656024,10.3240222 1.19896807,8.72115422 L8.75230141,1.20115422 C9.52013194,0.432132307 10.562249,2.30926389e-14 11.6489681,2.30926389e-14 C12.7356872,2.30926389e-14 13.7778042,0.432132307 14.5456347,1.20115422 L14.5456347,1.20115422 C15.3146567,1.96898476 15.746789,3.01110177 15.746789,4.09782089 C15.746789,5.18454001 15.3146567,6.22665702 14.5456347,6.99448756 L14.0123014,7.53448756 L13.5989681,7.87448756 L13.5989681,19.7678209" id="Path"></path>
                    <path d="M9.50563474,9.47448756 L4.97230141,4.94782089" id="Path"></path>
                    <circle id="Oval" cx="13.5989681" cy="13.8078209" r="5.96"></circle>
                </g>
            </g>
        </g>
    </g>
</svg>