<?xml version="1.0" encoding="UTF-8"?>
<svg width="28px" height="20px" viewBox="0 0 28 20" version="1.1" xmlns="http://www.w3.org/2000/svg" xmlns:xlink="http://www.w3.org/1999/xlink">
    <!-- Generator: Sketch 55.2 (78181) - https://sketchapp.com -->
    <title>Group 14</title>
    <desc>Created with Sketch.</desc>
    <g id="Menu" stroke="none" stroke-width="1" fill="none" fill-rule="evenodd">
        <g id="Menu_Mobile" transform="translate(-24.000000, -441.000000)" fill-rule="nonzero">
            <g id="Group-14" transform="translate(24.000000, 441.000000)">
                <g id="Group-11" fill="#4C4747">
                    <path d="M26.4896248,14.6795213 L24.8120619,14.2087766 C24.7396518,14.1884574 24.6890677,14.1226064 24.6890677,14.048617 L24.6890677,13.4986702 C24.8255474,13.4057979 24.9557447,13.3018617 25.0774391,13.1858511 C25.6672263,12.6237234 25.9920155,11.869734 25.9920155,11.0627128 L25.9920155,10.3038298 L26.1542205,9.98526596 C26.3322398,9.63553191 26.4263133,9.24398936 26.4263133,8.85303191 L26.4263133,6.79718085 C26.4263133,6.5768617 26.2444487,6.39824468 26.0201238,6.39824468 L22.1113346,6.39824468 C20.6899961,6.39824468 19.5336015,7.53398936 19.5336015,8.92994681 L19.5336015,8.9537234 C19.5336015,9.27882979 19.6118607,9.60441489 19.7598762,9.89515957 L19.9678994,10.3037766 L19.9678994,10.9553723 C19.9678994,11.9880319 20.4860348,12.9145745 21.2708472,13.4721277 L21.2709555,14.0485106 C21.2709555,14.1373936 21.2709555,14.1742021 20.9355513,14.2683511 L20.1169981,14.4980319 L17.7491296,13.6523936 C17.7576325,13.5426596 17.7199381,13.4310638 17.6384294,13.3469681 L16.8817795,12.5662234 L16.8817795,11.2555851 C16.9617718,11.1908511 17.0406267,11.1243617 17.1170445,11.0540426 C18.0715899,10.1753191 18.6190251,8.93468085 18.6190251,7.65026596 L18.6190251,6.60356383 C18.9072573,5.98755319 19.053323,5.33569149 19.053323,4.6643617 L19.053323,0.39893617 C19.053323,0.178617021 18.8714584,1.86517468e-14 18.6471335,1.86517468e-14 L12.5668008,1.86517468e-14 C10.4269942,1.86517468e-14 8.68617408,1.70978723 8.68617408,3.81132979 L8.68617408,4.66446809 C8.68617408,5.33579787 8.83223985,5.98765957 9.12047195,6.60367021 L9.12047195,7.50425532 C9.12047195,8.99553191 9.79561315,10.3390426 10.8577176,11.2247872 L10.8577176,12.5662766 L10.1010677,13.3470213 C10.019559,13.431117 9.9818646,13.5427128 9.9903675,13.6524468 L7.49121857,14.5449468 C7.31011219,14.6096277 7.14184139,14.697234 6.98905996,14.8033511 L6.59662669,14.6106383 C7.76482785,14.1112234 8.13489362,13.4088298 8.15265764,13.3739362 C8.20984913,13.2616489 8.20984913,13.1294149 8.15265764,13.0171277 C7.85982205,12.4419149 7.82434816,11.3876064 7.79586074,10.5404787 C7.78638298,10.2584574 7.77739265,9.99202128 7.76022437,9.75478723 C7.62174081,7.8412766 6.14061122,6.39824468 4.31492456,6.39824468 C2.48923791,6.39824468 1.00805416,7.8412234 0.869624758,9.75478723 C0.85245648,9.99207447 0.843466151,10.2585106 0.833988395,10.5405851 C0.805500967,11.3876596 0.769972921,12.4418617 0.477191489,13.0170745 C0.42,13.1293617 0.42,13.2615957 0.477191489,13.373883 C0.494955513,13.4087766 0.864263056,14.109734 2.03479304,14.609734 L0.944742747,15.145 C0.361996132,15.431383 -1.24344979e-14,16.0066489 -1.24344979e-14,16.6464894 L-1.24344979e-14,19.5937766 C-1.24344979e-14,19.8140957 0.181864603,19.9927128 0.406189555,19.9927128 C0.630514507,19.9927128 0.81237911,19.8140957 0.81237911,19.5937766 L0.81237911,16.6464894 C0.81237911,16.3107447 1.00231335,16.008883 1.30803868,15.8587234 L2.66541586,15.1921809 L3.1375706,15.6328723 C3.46772147,15.9410106 3.89124178,16.095 4.31492456,16.095 C4.73849903,16.095 5.16223598,15.9409043 5.49227853,15.6328723 L5.96437911,15.192234 L6.40696325,15.4095745 C6.19856093,15.7370745 6.08027853,16.121117 6.08027853,16.5234043 L6.08027853,19.593883 C6.08027853,19.8142021 6.26214313,19.9929255 6.48646809,19.9929255 C6.71079304,19.9929255 6.89265764,19.8142021 6.89265764,19.593883 L6.89265764,16.5234043 C6.89265764,15.9757447 7.24474275,15.4820213 7.76883559,15.2948404 L10.4037602,14.3538298 L11.5006344,15.9698404 C11.6408511,16.1764362 11.8655551,16.3089362 12.1171219,16.3334043 C12.145176,16.336117 12.1730677,16.3374468 12.2009052,16.3374468 C12.4228472,16.3374468 12.6354197,16.2516489 12.7943211,16.0956383 L13.4635048,15.4384043 L13.4635048,19.5939362 C13.4635048,19.8142553 13.6453694,19.9929255 13.8696944,19.9929255 C14.0940193,19.9929255 14.2758839,19.8142553 14.2758839,19.5939362 L14.2758839,15.4384043 L14.9450677,16.0956383 C15.1039149,16.2517021 15.3164874,16.3375 15.5384836,16.3375 C15.5662669,16.3375 15.5942128,16.3361702 15.6222128,16.3334574 C15.8738337,16.3089894 16.0985377,16.1764894 16.2387544,15.9698936 L17.3356828,14.3539362 L19.9705532,15.2949468 C20.4945919,15.4821277 20.8467311,15.9758511 20.8467311,16.5235106 L20.8467311,19.5939894 C20.8467311,19.8143085 21.0285957,19.9929255 21.2529207,19.9929255 C21.4772456,19.9929255 21.6591103,19.8143085 21.6591103,19.5939894 L21.6591103,16.5235106 C21.6591103,15.9688298 21.4347311,15.448617 21.0583288,15.063883 L21.1586847,15.0357447 C21.2599072,15.0073404 21.3980116,14.9684574 21.5366576,14.9017021 L22.5737408,15.920266 L22.5737408,19.5939894 C22.5737408,19.8143085 22.7556054,19.9929255 22.9799304,19.9929255 C23.2042553,19.9929255 23.3861199,19.8143085 23.3861199,19.5939894 L23.3861199,15.920266 L24.416,14.9087766 C24.4707544,14.936117 24.5282708,14.9592021 24.5888201,14.9761702 L26.2664371,15.4469149 C26.6493385,15.5543617 26.9168279,15.9026064 26.9168279,16.2937766 L26.9168279,19.5939894 C26.9168279,19.8143085 27.0986925,19.9929255 27.3230174,19.9929255 C27.5473424,19.9929255 27.729207,19.8143085 27.729207,19.5939894 L27.729207,16.2937766 C27.729207,15.5481383 27.2194662,14.8843617 26.4896248,14.6795213 Z M2.60584139,13.9748936 C1.84605029,13.706383 1.46493617,13.3484043 1.30224371,13.1529255 C1.41316054,12.8681383 1.48508317,12.5419681 1.53377176,12.1976596 C1.75777176,12.7251596 2.13292843,13.1754787 2.60584139,13.4967553 L2.60584139,13.9748936 Z M4.93276596,15.0545745 C4.58631335,15.3778723 4.04358994,15.3778191 3.69724565,15.0545213 L3.31948936,14.7019681 C3.38323404,14.5846809 3.41827466,14.4517021 3.41827466,14.3123936 L3.41827466,13.8871809 C3.7016325,13.9741489 4.00286267,14.0210638 4.31503288,14.0210638 C4.62682398,14.0210638 4.92789168,13.9739362 5.21173694,13.8874468 L5.21168279,14.3123404 C5.21168279,14.4517021 5.24666925,14.584734 5.31046809,14.7020745 L4.93276596,15.0545745 Z M4.3151412,13.2231915 C3.10220503,13.2231915 2.11548936,12.2540426 2.11548936,11.0628191 C2.11548936,10.8425 1.93362476,10.663883 1.70929981,10.663883 C1.68655319,10.663883 1.66434816,10.6661702 1.64263056,10.669734 C1.64382205,10.6354255 1.64495938,10.6010638 1.64615087,10.5670745 C1.65519536,10.292766 1.66391489,10.0336702 1.68,9.81143617 C1.73188395,9.09462766 2.02352805,8.43409574 2.50120696,7.95143617 C2.98316441,7.46441489 3.62732689,7.1962234 4.31503288,7.1962234 C5.00273888,7.1962234 5.6468472,7.46441489 6.1288588,7.95143617 C6.60653772,8.43409574 6.89818182,9.09462766 6.95006576,9.81143617 C6.96609671,10.033617 6.97487041,10.2926596 6.98407737,10.5669149 C6.98488975,10.5904787 6.98570213,10.6143617 6.98651451,10.6380851 C6.54458027,9.9693617 5.8620735,9.47654255 4.9802089,9.19824468 C4.16550097,8.94117021 3.46479691,8.95707447 3.43522631,8.95781915 C3.3288588,8.96074468 3.22790716,9.00446809 3.15408897,9.07968085 L2.4212147,9.82617021 C2.2655087,9.98478723 2.27016634,10.2373404 2.43166731,10.390266 C2.59316828,10.5431915 2.85031335,10.5385638 3.00601934,10.38 L3.61584526,9.75888298 C4.14102128,9.78409574 5.83060735,9.97707447 6.48771373,11.3981915 C6.3223675,12.4454255 5.40589555,13.2231915 4.3151412,13.2231915 Z M6.02400774,13.9762234 L6.0240619,13.5004255 C6.49659574,13.1809043 6.872294,12.7314362 7.09645648,12.1999468 C7.14514507,12.5434574 7.21701354,12.868883 7.32771373,13.1530319 C7.16594197,13.3466489 6.78304062,13.7078191 6.02400774,13.9762234 Z M9.93285106,7.50420213 L9.93285106,6.51441489 C9.93285106,6.4543617 9.91904062,6.39505319 9.89244874,6.34095745 C9.6310793,5.8093617 9.49855319,5.24531915 9.49855319,4.66446809 L9.49855319,3.81138298 C9.49855319,2.14973404 10.8749942,0.797925532 12.5668008,0.797925532 L18.2409439,0.797925532 L18.2409439,4.66452128 C18.2409439,5.24537234 18.1084178,5.80941489 17.8470484,6.34101064 C17.8204565,6.39510638 17.806646,6.45441489 17.806646,6.51446809 L17.806646,7.65037234 C17.806646,8.73074468 17.364441,9.73281915 16.5614855,10.4720213 C16.4612379,10.5642553 16.3571992,10.6507447 16.2496402,10.7313298 C16.2472573,10.7329255 16.2449826,10.7346809 16.2426538,10.7363298 C15.4904449,11.297234 14.5690986,11.5698404 13.6069168,11.508617 C11.5466692,11.3776064 9.93285106,9.61867021 9.93285106,7.50420213 Z M12.2199149,15.531383 C12.2170986,15.5341489 12.2105455,15.5406915 12.1972766,15.5393085 C12.1840619,15.5380319 12.1788627,15.5304255 12.1766422,15.5271277 L10.9133926,13.6660638 L11.3199072,13.2465426 L13.2363095,14.5330851 L12.2199149,15.531383 Z M13.8697485,13.9918617 L11.6700967,12.5151596 L11.6700967,11.7704787 C12.2392495,12.0726596 12.8765338,12.2616489 13.5543288,12.304734 C13.6614004,12.3115426 13.7678221,12.3148936 13.8739188,12.3148936 C14.6506074,12.3148936 15.3981044,12.1325532 16.0694004,11.7864362 L16.0694004,12.5151596 L13.8697485,13.9918617 Z M15.5628549,15.527234 C15.5606344,15.5305319 15.5554352,15.5381383 15.5422205,15.5394149 C15.5289516,15.5410638 15.5224526,15.5342021 15.5195822,15.5314894 L14.5031876,14.5332447 L16.4195899,13.2466489 L16.8261586,13.6661702 L15.5628549,15.527234 Z M22.9799304,15.1906383 L22.0581509,14.2853723 C22.074236,14.213617 22.0833346,14.1350532 22.0832805,14.0484043 L22.0832263,13.8800532 C22.3390174,13.9625 22.608619,14.0114362 22.8875899,14.0196277 C22.9188936,14.0205851 22.9499265,14.0210106 22.9811219,14.0210106 C23.2893926,14.0210106 23.5902979,13.975266 23.8766886,13.8879787 L23.8766886,14.048617 C23.8766886,14.1281915 23.8868704,14.2061702 23.9060426,14.281117 L22.9799304,15.1906383 Z M24.5116983,12.6132979 C24.0811915,13.023617 23.512472,13.2403191 22.9120155,13.2221277 C21.7365571,13.1875 20.7802785,12.1706383 20.7802785,10.9554787 L20.7802785,10.2096809 C20.7802785,10.1477128 20.7656015,10.0866489 20.7373849,10.0312766 L20.4864681,9.53840426 C20.3945609,9.35781915 20.3459807,9.15569149 20.3459807,8.9537766 L20.3459807,8.93 C20.3459807,7.97393617 21.137942,7.19617021 22.1113346,7.19617021 L25.6139342,7.19617021 L25.6139342,8.85308511 C25.6139342,9.12085106 25.5494855,9.38898936 25.4275745,9.62851064 L25.22253,10.0312766 C25.1943133,10.0867021 25.1796364,10.1477128 25.1796364,10.2096809 L25.1796364,11.062766 C25.1796364,11.6521277 24.9424217,12.202766 24.5116983,12.6132979 Z" id="Shape"></path>
                    <path d="M2.1434352,17.1628723 C1.91911025,17.1628723 1.73724565,17.3414894 1.73724565,17.5618085 L1.73724565,19.5937766 C1.73724565,19.8140957 1.91911025,19.9927128 2.1434352,19.9927128 C2.36776015,19.9927128 2.54962476,19.8140957 2.54962476,19.5937766 L2.54962476,17.5618085 C2.54962476,17.3415426 2.36776015,17.1628723 2.1434352,17.1628723 Z" id="Path"></path>
                    <path d="M9.09236364,17.4886702 C8.86803868,17.4886702 8.68617408,17.6672872 8.68617408,17.8876064 L8.68617408,19.5938298 C8.68617408,19.8141489 8.86803868,19.992766 9.09236364,19.992766 C9.31668859,19.992766 9.49855319,19.8141489 9.49855319,19.5938298 L9.49855319,17.8876064 C9.49855319,17.6673404 9.31668859,17.4886702 9.09236364,17.4886702 Z" id="Path"></path>
                    <path d="M18.6471335,17.4886702 C18.4228085,17.4886702 18.2409439,17.6672872 18.2409439,17.8876064 L18.2409439,19.5938298 C18.2409439,19.8141489 18.4228085,19.992766 18.6471335,19.992766 C18.8714584,19.992766 19.053323,19.8141489 19.053323,19.5938298 L19.053323,17.8876064 C19.053323,17.6673404 18.8714584,17.4886702 18.6471335,17.4886702 Z" id="Path"></path>
                    <path d="M17.1970909,4.80898936 C15.6608279,3.30015957 12.4465687,3.58861702 11.1358221,3.78265957 C10.722971,3.8437766 10.4233656,4.18691489 10.4233656,4.59856383 L10.4233656,5.51760638 C10.4233656,5.73792553 10.6052302,5.91654255 10.8295551,5.91654255 C11.0538801,5.91654255 11.2357447,5.73792553 11.2357447,5.51760638 L11.2357447,4.59851064 C11.2357447,4.58494681 11.2448433,4.57335106 11.2569749,4.57154255 C11.7805261,4.49404255 12.8194507,4.37446809 13.895853,4.44494681 C15.1625145,4.52776596 16.0799613,4.84005319 16.6226847,5.3731383 C16.7813153,5.52893617 17.0385145,5.52893617 17.1970909,5.3731383 C17.3557215,5.21734043 17.3557215,4.96473404 17.1970909,4.80898936 Z" id="Path"></path>
                </g>
                <path d="M24.5,14 C24.2238667,14 24,14.1596134 24,14.3564921 L24,16.6435079 C24,16.8403866 24.2238667,17 24.5,17 C24.7761333,17 25,16.8403866 25,16.6435079 L25,14.3564921 C25,14.1596609 24.7761333,14 24.5,14 Z" id="Path" fill="#000000"></path>
            </g>
        </g>
    </g>
</svg>