<?xml version="1.0" encoding="UTF-8"?>
<svg width="15px" height="20px" viewBox="0 0 15 20" version="1.1" xmlns="http://www.w3.org/2000/svg" xmlns:xlink="http://www.w3.org/1999/xlink">
    <!-- Generator: Sketch 55.2 (78181) - https://sketchapp.com -->
    <title>Shape 5</title>
    <desc>Created with Sketch.</desc>
    <g id="Menu" stroke="none" stroke-width="1" fill="none" fill-rule="evenodd">
        <g id="Menu_Mobile" transform="translate(-30.000000, -399.000000)" fill="#4C4747" fill-rule="nonzero">
            <g id="Shape-5" transform="translate(30.000000, 399.000000)">
                <g id="Shape-2">
                    <path d="M4.2338809,13.1568275 L13.0420945,13.1568275 C14.0408624,13.1568275 14.8556468,12.138347 14.8556468,10.8898871 L14.8556468,6.25744353 C14.8556468,6.25333676 14.8556468,6.2451232 14.8556468,6.24101643 C14.8556468,6.2286961 14.8556468,6.22048255 14.8556468,6.20816222 C14.8556468,6.19994867 14.8556468,6.19173511 14.8523614,6.18352156 C14.8523614,6.17530801 14.849076,6.16298768 14.849076,6.15477413 C14.849076,6.14656057 14.8457906,6.13834702 14.8457906,6.13013347 C14.8425051,6.12191992 14.8425051,6.11370637 14.8392197,6.10138604 C14.8359343,6.09317248 14.8359343,6.08495893 14.8326489,6.07674538 C14.8293634,6.06853183 14.8293634,6.06031828 14.826078,6.05210472 C14.8227926,6.04389117 14.8195072,6.03567762 14.8162218,6.02335729 C14.8129363,6.01514374 14.8096509,6.00693018 14.8063655,6.00282341 C14.8030801,5.99460986 14.7997947,5.9863963 14.7965092,5.97818275 C14.7932238,5.9699692 14.7899384,5.96586242 14.786653,5.95764887 C14.7833676,5.94943532 14.7767967,5.94122177 14.7735113,5.93300821 C14.7702259,5.92479466 14.7669405,5.92068789 14.7603696,5.91247433 C14.7570842,5.90426078 14.7505133,5.900154 14.7472279,5.89194045 C14.7439425,5.8837269 14.7373717,5.87962012 14.7340862,5.87140657 C14.7308008,5.86319302 14.72423,5.85908624 14.7209446,5.85497947 C14.7143737,5.84676591 14.7110883,5.84265914 14.7045175,5.83444559 C14.6979466,5.83033881 14.6946612,5.82212526 14.6880903,5.81801848 C14.6815195,5.8139117 14.6749487,5.80569815 14.6683778,5.80159138 C14.661807,5.7974846 14.6585216,5.79337782 14.6519507,5.78927105 C14.6453799,5.78516427 14.638809,5.78105749 14.6322382,5.77284394 C14.6256674,5.76873717 14.6190965,5.76463039 14.6125257,5.76052361 C14.6059548,5.75641684 14.599384,5.75231006 14.5928131,5.74820329 C14.5862423,5.74409651 14.5796715,5.73998973 14.5731006,5.73588296 C14.5665298,5.73177618 14.5599589,5.73177618 14.5533881,5.7276694 C14.5468172,5.72356263 14.536961,5.71945585 14.5303901,5.71945585 C14.5238193,5.71945585 14.5172485,5.71534908 14.513963,5.71534908 C14.5041068,5.7112423 14.4975359,5.7112423 14.4876797,5.7112423 C14.4843943,5.7112423 14.4811088,5.70713552 14.474538,5.70713552 L3.31067762,3.78105749 L3.31067762,1.83444559 C3.31067762,1.8139117 3.31067762,1.79337782 3.3073922,1.77695072 C3.3073922,1.77284394 3.3073922,1.76873717 3.30410678,1.76052361 C3.30410678,1.74820329 3.30082136,1.73588296 3.30082136,1.72356263 C3.29753593,1.7112423 3.29753593,1.70302875 3.29425051,1.69070842 C3.29425051,1.68249487 3.29096509,1.67838809 3.29096509,1.67017454 C3.28767967,1.65785421 3.28439425,1.64553388 3.28110883,1.63321355 C3.28110883,1.62910678 3.27782341,1.62089322 3.27782341,1.61678645 C3.27453799,1.60446612 3.27125257,1.59625257 3.26468172,1.58393224 C3.2613963,1.57982546 3.2613963,1.57161191 3.25811088,1.56750513 C3.25482546,1.55929158 3.25154004,1.55107803 3.2449692,1.54286448 C3.24168378,1.53465092 3.23839836,1.53054415 3.23511294,1.5223306 C3.23182752,1.51411704 3.22854209,1.51001027 3.22525667,1.50179671 C3.22197125,1.49358316 3.21540041,1.48536961 3.21211499,1.47715606 C3.20882957,1.47304928 3.20554415,1.46894251 3.20225873,1.46483573 C3.19568789,1.45662218 3.18911704,1.44840862 3.1825462,1.44019507 C3.17926078,1.4360883 3.17597536,1.43198152 3.17268994,1.42787474 C3.1661191,1.41966119 3.15954825,1.41144764 3.14969199,1.40323409 C3.14640657,1.39912731 3.13983573,1.39502053 3.13655031,1.39091376 C3.12997947,1.38270021 3.12340862,1.37859343 3.11683778,1.37037988 C3.10698152,1.36216632 3.09712526,1.35395277 3.09055441,1.349846 C3.08726899,1.34573922 3.08398357,1.34573922 3.08069815,1.34163244 C3.06755647,1.33341889 3.05112936,1.32520534 3.03798768,1.31699179 L0.616632444,0.0438911704 C0.389938398,-0.0752053388 0.130390144,0.056211499 0.0351129363,0.339579055 C-0.060164271,0.622946612 0.0449691992,0.94738193 0.271663244,1.06647844 L2.42032854,2.19994867 L2.42032854,4.71329569 L2.42032854,5.11165298 L2.42032854,8.16709446 L2.42032854,10.8981006 L2.42032854,14.3477926 C2.42032854,15.4976899 3.11026694,16.450462 4.00061602,16.5941992 C3.83963039,16.9309548 3.74435318,17.3252053 3.74435318,17.7440965 C3.74435318,18.9802361 4.54928131,19.9822895 5.5349076,19.9822895 C6.52053388,19.9822895 7.32546201,18.9761294 7.32546201,17.7440965 C7.32546201,17.3334189 7.23675565,16.9432752 7.07905544,16.6147331 L11.0675565,16.6147331 C10.9098563,16.9473819 10.8211499,17.3334189 10.8211499,17.7440965 C10.8211499,18.9802361 11.626078,19.9822895 12.6117043,19.9822895 C13.5973306,19.9822895 14.4022587,18.9761294 14.4022587,17.7440965 C14.4022587,16.5120637 13.5973306,15.5059035 12.6117043,15.5059035 L4.2338809,15.5059035 C3.72135524,15.5059035 3.3073922,14.9843429 3.3073922,14.3477926 L3.3073922,12.8447125 C3.57679671,13.0418378 3.89548255,13.1568275 4.2338809,13.1568275 Z M6.44168378,17.7399897 C6.44168378,18.3642197 6.03429158,18.8693532 5.53819302,18.8693532 C5.04209446,18.8693532 4.63470226,18.3601129 4.63470226,17.7399897 C4.63470226,17.1198665 5.04209446,16.6106263 5.53819302,16.6106263 C6.03429158,16.6106263 6.44168378,17.1157598 6.44168378,17.7399897 Z M13.5184805,17.7399897 C13.5184805,18.3642197 13.1110883,18.8693532 12.6149897,18.8693532 C12.1188912,18.8693532 11.711499,18.3601129 11.711499,17.7399897 C11.711499,17.1198665 12.1188912,16.6106263 12.6149897,16.6106263 C13.1110883,16.6106263 13.5184805,17.1157598 13.5184805,17.7399897 Z M13.0420945,12.0479979 L4.2338809,12.0479979 C3.72135524,12.0479979 3.3073922,11.5264374 3.3073922,10.8898871 L3.3073922,8.1588809 L3.3073922,5.10343943 L3.3073922,4.89810062 L13.9685832,6.73382957 L13.9685832,10.8857803 C13.9685832,11.5305441 13.5513347,12.0479979 13.0420945,12.0479979 Z" id="Shape"></path>
                </g>
            </g>
        </g>
    </g>
</svg>