<svg xmlns="http://www.w3.org/2000/svg" width="21" height="20" viewBox="0 0 21 20">
    <defs>
        <linearGradient id="a" x1="50.001%" x2="50.001%" y1="99.99%" y2="-.011%">
            <stop offset="0%" stop-color="#20B038"/>
            <stop offset="100%" stop-color="#60D66A"/>
        </linearGradient>
        <linearGradient id="b" x1="50.001%" x2="50.001%" y1="100.003%" y2=".003%">
            <stop offset="0%" stop-color="#F9F9F9"/>
            <stop offset="100%" stop-color="#FFF"/>
        </linearGradient>
    </defs>
    <g fill="none" fill-rule="evenodd">
        <path fill="#FFF" fill-rule="nonzero" d="M5.742 16.497l.314.175a9.022 9.022 0 0 0 4.38 1.125h.003c4.742 0 8.602-3.622 8.604-8.075 0-2.158-.894-4.187-2.518-5.713-1.625-1.526-3.784-2.367-6.083-2.368-4.746 0-8.606 3.622-8.607 8.074-.001 1.526.454 3.012 1.315 4.298l.205.305-.87 2.98 3.257-.801zM0 19.607l1.469-5.035A9.244 9.244 0 0 1 .087 9.715C.09 4.358 4.733 0 10.44 0c2.77.001 5.368 1.013 7.323 2.85 1.954 1.836 3.03 4.277 3.029 6.873-.002 5.356-4.647 9.715-10.352 9.715h-.004a10.88 10.88 0 0 1-4.947-1.182L0 19.606z"/>
        <path fill="url(#a)" fill-rule="nonzero" d="M.444 9.72c0 1.653.46 3.267 1.334 4.69L.36 19.27l5.298-1.305a10.51 10.51 0 0 0 4.775 1.142h.004c5.508 0 9.991-4.208 9.994-9.38 0-2.506-1.038-4.862-2.925-6.635-1.886-1.773-4.395-2.75-7.069-2.75C4.929.341.446 4.547.444 9.72"/>
        <path fill="url(#b)" fill-rule="nonzero" d="M.087 9.717c0 1.712.476 3.384 1.382 4.857L0 19.61l5.488-1.351a10.882 10.882 0 0 0 4.946 1.182h.005c5.705 0 10.35-4.359 10.352-9.715 0-2.596-1.075-5.037-3.03-6.874C15.807 1.015 13.208.003 10.44.001 4.733.002.089 4.362.087 9.718zm3.268 4.604l-.205-.306a7.694 7.694 0 0 1-1.315-4.297c.001-4.453 3.861-8.075 8.607-8.075 2.298 0 4.458.842 6.083 2.368 1.624 1.526 2.518 3.555 2.518 5.713-.002 4.453-3.862 8.075-8.604 8.075h-.004a9.024 9.024 0 0 1-4.379-1.125l-.314-.175-3.257.801.87-2.98z"/>
        <path fill="#FFF" d="M7.852 5.655c-.194-.404-.398-.412-.582-.42-.151-.005-.324-.005-.496-.005a.979.979 0 0 0-.69.304c-.237.243-.905.83-.905 2.025 0 1.195.927 2.35 1.056 2.511.13.162 1.79 2.693 4.418 3.666 2.185.809 2.63.648 3.104.607.474-.04 1.53-.587 1.746-1.154.216-.567.216-1.053.151-1.154-.065-.102-.237-.162-.496-.284-.259-.121-1.53-.709-1.767-.79-.237-.08-.41-.121-.582.122-.173.243-.668.79-.82.952-.15.162-.3.182-.56.06-.258-.121-1.091-.377-2.08-1.205-.769-.643-1.288-1.438-1.439-1.681-.15-.243-.016-.375.114-.496.116-.109.259-.283.388-.425.13-.142.172-.243.258-.405.087-.162.044-.304-.021-.425-.065-.122-.567-1.323-.797-1.803"/>
    </g>
</svg>
