<svg xmlns="http://www.w3.org/2000/svg" width="97.863" height="126.827" viewBox="0 0 97.863 126.827">
    <defs>
        <style>
            .prefix__cls-1{fill:#ffd8b7}.prefix__cls-1,.prefix__cls-3,.prefix__cls-8{stroke:#222;stroke-miterlimit:10}.prefix__cls-1,.prefix__cls-3{stroke-width:.7px}.prefix__cls-3,.prefix__cls-8{fill:#fff;stroke-linecap:round}.prefix__cls-8{fill:none}.prefix__cls-6{fill:#222}.prefix__cls-8{stroke-width:.798px}
        </style>
    </defs>
    <g id="prefix__Group_49758" data-name="Group 49758" transform="translate(.364 .357)">
        <g id="prefix__Group_49753" data-name="Group 49753" transform="translate(8.234)">
            <path id="prefix__Path_117888" d="M503.978 319.5a18.846 18.846 0 0 0-.622 11.452c1.008 3.762 1.656 3.657 7.26 5.443-1.914 5.051-9.735 10.549-14.927 10.632-4.679.075-17.755-5.893-20.094-10.115 2.631-.243 10.527-1.457 12.012-5.225 1.8-4.552.152-8.774-.414-10.927z" class="prefix__cls-1" data-name="Path 117888" transform="translate(-455 -281.103)"/>
            <path id="prefix__Path_117889" d="M509.611 412.689c-.236-9.954.412-20.16.3-30.778-.015-1.48.215-4.042.215-7.676 2.952-.784 10.593-2.688 12.659-5.138 2.365-2.8-1.643-7.916-3.728-11.006a17.145 17.145 0 0 1-1.572-2.874c-1.49-3.281-1.875-5.536-4.4-8.882 0 0-.466-.581-1.005-1.13-1.125-1.147-5.295-1.982-14.2-4.2-1.212 3.6-5.386 6.069-10.785 6.165-5.315.094-10.624-2.325-11.981-5.879-16.472 2.536-17.515 5.033-18.552 8.577-.375 1.281-1.149 4.116-2.352 9.3a31.444 31.444 0 0 1-2.077 5.95c-3.729 8.238-6.424 11.074-5.062 12.852.633.825 1.679.741 6.62 1.145 3.955.324 7.183.7 9.356.973l-1.274 32.64" data-name="Path 117889" transform="translate(-446.714 -287.273)" style="fill:#daf0f3;stroke-width:.7px;stroke-miterlimit:10;stroke:#222"/>
            <path id="prefix__Path_117890" d="M469.509 389.736a65.979 65.979 0 0 1 4.088-18.911" class="prefix__cls-3" data-name="Path 117890" transform="translate(-453.254 -295.83)"/>
            <path id="prefix__Path_117891" d="M534.636 370.217a58.43 58.43 0 0 1 .721 12.4" data-name="Path 117891" transform="translate(-471.94 -295.655)" style="fill:none;stroke-linecap:round;stroke-width:.7px;stroke-miterlimit:10;stroke:#222"/>
            <g id="prefix__Group_49751" data-name="Group 49751" transform="translate(20.578)">
                <path id="prefix__Path_117892" d="M523.6 304.824c.306.016 3.466.217 4.343 2.106.923 1.985-.746 5.685-5.037 7.457a23.173 23.173 0 0 0 .693-9.564z" class="prefix__cls-1" data-name="Path 117892" transform="translate(-489.153 -276.894)"/>
                <path id="prefix__Path_117893" d="M481.137 304.57c-.307.016-3.466.218-4.343 2.106-.923 1.986.746 5.685 5.037 7.458a23.178 23.178 0 0 1-.693-9.565z" class="prefix__cls-1" data-name="Path 117893" transform="translate(-475.852 -276.821)"/>
                <ellipse id="prefix__Ellipse_10381" cx="15.233" cy="20.934" class="prefix__cls-1" data-name="Ellipse 10381" rx="15.233" ry="20.934" transform="translate(4.572 9.501)"/>
                <path id="prefix__Path_117894" d="M489.384 266.524a19.969 19.969 0 0 1 13.383.631c1.425.6 7.85 3.3 10.27 10.1 2.653 7.449-.813 15.8-2.645 15.779-1.636-.015-.926-6.694-5.412-9.289-3.039-1.758-4.686.523-10.149-1.075-4.228-1.237-5.328-3.213-7.776-2.542-2.275.623-3.548 2.939-4.517 4.7-2.5 4.55-1.7 8.159-2.529 8.295-1.295.212-6.3-8.079-3.7-15.868 2.599-7.755 11.117-10.174 13.075-10.731z" data-name="Path 117894" transform="translate(-475.572 -265.656)" style="fill:#373738;stroke-width:.7px;stroke-miterlimit:10;stroke:#222"/>
            </g>
            <g id="prefix__Group_49752" data-name="Group 49752" transform="translate(34.43 25.937)">
                <circle id="prefix__Ellipse_10382" cx="1.067" cy="1.067" r="1.067" class="prefix__cls-6" data-name="Ellipse 10382" transform="translate(.638 5.52)"/>
                <circle id="prefix__Ellipse_10383" cx="1.067" cy="1.067" r="1.067" class="prefix__cls-6" data-name="Ellipse 10383" transform="translate(10.276 5.52)"/>
                <path id="prefix__Path_117895" d="M503.858 311.694c-.36 1.671-.36 2.759.315 3.381.312.287.847.209 1.248.383a1.246 1.246 0 0 1 .345 1.877 4.194 4.194 0 0 1-1.928 1.194" data-name="Path 117895" transform="translate(-497.47 -304.801)" style="stroke-width:.798px;stroke-linejoin:round;fill:none;stroke-linecap:round;stroke:#222"/>
                <path id="prefix__Path_117896" d="M497.433 302.028a4.654 4.654 0 0 0-2.433 1.234" class="prefix__cls-8" data-name="Path 117896" transform="translate(-494.996 -302.028)"/>
                <path id="prefix__Path_117897" d="M510.093 302.028a3.293 3.293 0 0 1 1.955 1.8" class="prefix__cls-8" data-name="Path 117897" transform="translate(-499.327 -302.028)"/>
                <path id="prefix__Path_117898" d="M506.978 322.329c-.472 5.434-9.639 6.05-11.15.035" class="prefix__cls-8" data-name="Path 117898" transform="translate(-495.235 -307.853)"/>
            </g>
        </g>
        <g id="prefix__Group_49754" data-name="Group 49754" transform="translate(0 72.858)">
            <path id="prefix__Path_117899" d="M445.833 384.879v21.953a13.36 13.36 0 0 0 13.336 13.346c8.9.59 18.4.932 28.42.912 9.411-.019 18.35-.354 26.766-.912a13.515 13.515 0 0 0 6.1-1.483 14.111 14.111 0 0 0 6.689-8.067 13.193 13.193 0 0 0 .559-3.8s.1-27.011-2.961-32.805c-.654-1.236-3.389-3.617-6.459-4.57a13.293 13.293 0 0 0-3.927-.594c-8.09-.607-16.724-.987-25.848-1.03-10.43-.049-20.236.347-29.338 1.03-3.839 0-10.29 3.626-11.014 4.841-.001 0-2.323 3.708-2.323 11.179z" class="prefix__cls-3" data-name="Path 117899" transform="translate(-438.227 -367.828)"/>
            <path id="prefix__Path_117900" d="M441.609 387.544c.513-1.74 3.9-2.216 6.906-2.32 2.561-.088 8.375-2.686 6.767-8.029-1.147-3.814-7.425-3.535-8.511-3.205-.083.025-.873.3-.934.188a1.275 1.275 0 0 1 .8-1.269 2.042 2.042 0 0 0 1.49-1.634c-.059-2.111-4.66.3-7.979 3.511a15.9 15.9 0 0 0-2.234 2.924 12.719 12.719 0 0 0-2.236 4.41c-.187.943-3.036 14.753 7.1 21.737v-13.706s-1.37-1.922-1.169-2.607z" class="prefix__cls-1" data-name="Path 117900" transform="translate(-435.167 -368.589)"/>
            <path id="prefix__Path_117901" d="M555.431 403.858c10.132-6.984 7.359-20.794 7.172-21.737a12.729 12.729 0 0 0-2.235-4.41 15.936 15.936 0 0 0-2.234-2.924c-3.32-3.213-7.92-5.621-7.98-3.511a2.043 2.043 0 0 0 1.49 1.634 1.273 1.273 0 0 1 .8 1.269c-.061.11-.851-.163-.934-.188-1.086-.329-6.6-.289-8.511 3.205-1.469 2.683 0 7.863 6.766 8.029a13.25 13.25 0 0 1 6.906 2.32s.375.95-1.762 2.358z" class="prefix__cls-1" data-name="Path 117901" transform="translate(-465.956 -368.589)"/>
        </g>
        <g id="prefix__Group_49755" data-name="Group 49755" transform="translate(34.679 60.887)">
            <circle id="prefix__Ellipse_10384" cx="13.862" cy="13.862" r="13.862" data-name="Ellipse 10384" style="fill:#cadb82;stroke-width:.5px;stroke-miterlimit:10;stroke:#222"/>
            <path id="prefix__Path_117902" d="M510 368.146c-.534.067-1.076.108-1.616.154a5.038 5.038 0 0 0-1.127-1.986c.946.036 1.88.087 2.791.162a.93.93 0 0 0 .144-1.855c-1.7-.139-3.515-.212-5.407-.218-.176 0-.352.01-.528.011a1.045 1.045 0 0 0-.126 0c-1.519.018-3.047.08-4.552.2a.93.93 0 0 0 .078 1.857h.075c1.315-.108 2.646-.167 3.973-.19a1.459 1.459 0 0 1 .684.146 4.407 4.407 0 0 1 2.055 1.988c-.466.018-.931.047-1.4.048a41.919 41.919 0 0 1-5.282-.323.93.93 0 0 0-.226 1.846 42.869 42.869 0 0 0 5.355.338h.16c.436 0 .873-.029 1.309-.045a3.188 3.188 0 0 1-1.282 1.142 4.383 4.383 0 0 1-2.817.115c-.845-.158-1.805-.338-2.346.49-.754 1.155.506 2.791 1.979 4.386a20.247 20.247 0 0 0 5.556 4.208.93.93 0 1 0 .861-1.649 18.477 18.477 0 0 1-5.052-3.822 13.98 13.98 0 0 1-1.469-1.81l.128.024a6.147 6.147 0 0 0 3.96-.263 4.985 4.985 0 0 0 2.263-2.21 1.442 1.442 0 0 1 1.17-.807c.307-.028.613-.06.917-.1a.932.932 0 0 0 .807-1.039.946.946 0 0 0-1.035-.798zm-5.105 1.689z" data-name="Path 117902" transform="translate(-490.603 -358.272)" style="fill:#818181"/>
            <path id="prefix__Line_148" d="M0 0L14.757 13" data-name="Line 148" transform="translate(6.991 6.652)" style="stroke:#000;stroke-linecap:round;fill:#fff;stroke-miterlimit:10"/>
        </g>
        <g id="prefix__Group_49757" data-name="Group 49757" transform="translate(36.363 93.417)">
            <g id="prefix__Group_49756" data-name="Group 49756">
                <path id="prefix__Path_117903" d="M502.861 397.142h-4.7a1.779 1.779 0 0 1-1.778-1.779v-4.7a3.007 3.007 0 0 0-2.348-3.009 2.891 2.891 0 0 0-3.418 2.834v4.875a1.779 1.779 0 0 1-1.778 1.779h-4.7a3.006 3.006 0 0 0-3.009 2.348 2.89 2.89 0 0 0 2.834 3.418h4.875a1.778 1.778 0 0 1 1.778 1.778v4.7a3.007 3.007 0 0 0 2.348 3.009 2.89 2.89 0 0 0 3.418-2.834v-4.875a1.778 1.778 0 0 1 1.778-1.778h4.875a2.891 2.891 0 0 0 2.834-3.418 3.007 3.007 0 0 0-3.009-2.348z" data-name="Path 117903" transform="translate(-481.08 -387.606)" style="fill:#f8cdd9"/>
                <path id="prefix__Path_38797" d="M497.112 413.186a2.8 2.8 0 0 1-1.834-.917 20.406 20.406 0 0 1-2.948-3.082c-.335-.372-2.876-3.219-3-5.537a4.341 4.341 0 0 1 .13-1.3 4.081 4.081 0 0 1 1.565-2.14c1.668-1.1 4.35-.731 5.352.517.241.3.489.78.883.776s.608-.476.882-.811a4.053 4.053 0 0 1 4.8-.635 3.7 3.7 0 0 1 1.446 1.835 4.056 4.056 0 0 1 .232 1.757c-.138 2.415-2.158 4.7-2.586 5.167a21.53 21.53 0 0 1-3.225 3.521 2.634 2.634 0 0 1-1.697.849z" data-name="Path 38797" transform="translate(-484.771 -392.954)" style="fill:#f08798;stroke-width:.7px;stroke-miterlimit:10;stroke:#222"/>
            </g>
        </g>
    </g>
</svg>
