<svg xmlns="http://www.w3.org/2000/svg" width="127.919" height="127.124" viewBox="0 0 127.919 127.124">
    <defs>
        <style>
            .prefix__cls-1{fill:#fff}.prefix__cls-1,.prefix__cls-11,.prefix__cls-2,.prefix__cls-3,.prefix__cls-5,.prefix__cls-6,.prefix__cls-7{stroke:#222}.prefix__cls-1,.prefix__cls-11,.prefix__cls-5,.prefix__cls-6,.prefix__cls-7{stroke-linecap:round}.prefix__cls-1,.prefix__cls-11,.prefix__cls-2,.prefix__cls-3,.prefix__cls-5,.prefix__cls-6,.prefix__cls-7{stroke-miterlimit:10}.prefix__cls-1,.prefix__cls-2,.prefix__cls-3,.prefix__cls-5,.prefix__cls-6,.prefix__cls-7{stroke-width:.7px}.prefix__cls-2,.prefix__cls-7{fill:#c2d677}.prefix__cls-3{fill:#ffd8b7}.prefix__cls-5{fill:#cbbede}.prefix__cls-11,.prefix__cls-6{fill:none}.prefix__cls-9{fill:#222}.prefix__cls-11{stroke-width:.798px}
        </style>
    </defs>
    <g id="prefix__Group_49745" data-name="Group 49745" transform="translate(.242 .349)">
        <path id="prefix__Path_38810" d="M259.437 79.527a5.46 5.46 0 0 0-1.21-3.493 3.852 3.852 0 0 0-2.909-1.451c-5.479-.338-11.215-.537-17.192-.547q-9.515 0-18.206.547a3.8 3.8 0 0 0-2.909 1.451 6.16 6.16 0 0 0-1.211 3.493c-.3 3.416-.516 7.2-.516 11.3-.013 4.415.2 8.473.516 12.108a5.908 5.908 0 0 0 .109 1.136 5.566 5.566 0 0 0 1.1 2.355 4.079 4.079 0 0 0 1.629 1.263c1.09.433 1.657-.024 1.869.3.661 1-4.366 6.261-3.772 7.283.09.157.516.565 5.347-2 4.647-2.47 5.582-3.56 7.913-4.415a22.07 22.07 0 0 1 7.68-.5s11.749.013 17.643-.48a4.251 4.251 0 0 0 2.909-1.451 4.952 4.952 0 0 0 .586-.886 5.925 5.925 0 0 0 .622-2.607c.2-3.282.326-6.759.352-10.415.03-4.618-.107-8.96-.35-12.991z" class="prefix__cls-1" data-name="Path 38810" transform="translate(-132.463 -62.926)"/>
        <g id="prefix__Group_27336" data-name="Group 27336" transform="translate(91.919 21.395)">
            <g id="prefix__Group_49741" data-name="Group 49741">
                <path id="prefix__Path_38811" d="M248.044 101.194a6.58 6.58 0 0 1-1.785-.238c-1.628-.456-2.759-1.7-4.987-4.17l-.189-.212c-1.94 2.371-4.187 4.588-7.277 4.588h-.08a6.017 6.017 0 0 1-3.952-1.5 6.454 6.454 0 0 1-.98-7.64 6.246 6.246 0 0 1 4.906-3.149 8.624 8.624 0 0 1 6.231 3.164 9.47 9.47 0 0 1 1.12 1.205c2.035-2.581 4.211-5.038 7.254-4.864a6.647 6.647 0 0 1 4.421 10.876 6.307 6.307 0 0 1-4.682 1.94zm-5.644-6.287q.189.212.425.471c1.971 2.182 2.958 3.272 4 3.565a4.428 4.428 0 0 0 4.364-1.112 4.56 4.56 0 0 0-3-7.372c-2.139-.185-3.928 2.061-5.794 4.445zm-8.648 4.164h.053c2.335 0 4.119-1.893 5.916-4.136l-.091-.121a8.127 8.127 0 0 0-1.12-1.25c-1.515-1.4-2.971-2.718-4.669-2.612a4.187 4.187 0 0 0-3.232 2.1 4.344 4.344 0 0 0 .6 5.093 3.9 3.9 0 0 0 2.546.932z" class="prefix__cls-2" data-name="Path 38811" transform="translate(-227.966 -88.371)"/>
            </g>
        </g>
        <g id="prefix__Group_49744" data-name="Group 49744">
            <g id="prefix__Group_49743" data-name="Group 49743">
                <path id="prefix__Path_117836" d="M158.815 110.666a8.848 8.848 0 0 0 .651 6.086 8.078 8.078 0 0 0 4.448 3.439 41.412 41.412 0 0 0-8.9 13.367c-.679 1.74-1.575 4.422-2.962 4.466s-2.426-2.523-3.4-4.582a62.023 62.023 0 0 0-8.018-12.659c-.245.088-.491.189-.751.29a9.24 9.24 0 0 0 3.727-2.639 11.242 11.242 0 0 0 2.355-7.886 23.205 23.205 0 0 1-7.765-10.862 22.692 22.692 0 0 1-1.04-8.6c.246-2.668.362-4.09 1.286-5.467 2.643-3.93 7.96-.971 14.1-5.292 4.218-2.988 4.868-5.771 7.353-5.626 4.521.261 7.137 9.7 7.368 10.6a25.162 25.162 0 0 1-.477 13.833 24.751 24.751 0 0 1-7.975 11.532z" class="prefix__cls-3" data-name="Path 117836" transform="translate(-110.374 -63.113)"/>
                <ellipse id="prefix__Ellipse_10368" cx="15.578" cy="20.99" class="prefix__cls-3" data-name="Ellipse 10368" rx="15.578" ry="20.99" transform="translate(26.538 7.376)"/>
                <path id="prefix__Path_117837" d="M173.955 102.116a24.748 24.748 0 0 1-7.145 9.826c-3.006 2.5-6.315 4.019-8.948 3.873h-.06a4.215 4.215 0 0 1-1.142-.184 8.071 8.071 0 0 1-4.447-3.44 7.789 7.789 0 0 1-.607-5.725 26.38 26.38 0 0 0 7.929-11.895 25.139 25.139 0 0 0 .477-13.828c-.233-.9-2.844-10.339-7.367-10.6-2.486-.146-2.784 5.108-8.087 10.037-5.974 5.558-10.908 6.408-13.227 6.441h-.017a6.718 6.718 0 0 1-.861-.022.131.131 0 0 0-.044-.005l-.179-.017a.792.792 0 0 0-.108-.011.064.064 0 0 0-.032-.006 1.8 1.8 0 0 1-.184-.032v.027c-.725-.006-1.522.255-1.928 1.614-.613 2.058-.049 3.846 2.556 5.514.113.466.255.948.412 1.441a24.181 24.181 0 0 0 7.7 11.093 10.561 10.561 0 0 1-2.28 7.659 9.309 9.309 0 0 1-3.727 2.638.1.1 0 0 0-.06.027 14.475 14.475 0 0 1-3.06.769c-6.359 1.03-11.239-3.174-11.819-3.683a2.4 2.4 0 0 0-.276-.26c-5.265-4.761-5.7-12.013-5.921-14.618-.942-10.888 6.836-22.907 14.8-30.2 4.788-4.382 11.407-10.448 20.5-9.966 6.651.352 11.282 4.036 14.088 6.267 10.893 8.656 17.792 25.079 13.064 37.266z" data-name="Path 117837" transform="translate(-103.12 -58.551)" style="fill:#373738;stroke-width:.7px;stroke-miterlimit:10;stroke:#222"/>
                <path id="prefix__Path_117838" d="M178.758 104.57c4.039-1.907 5.567-5.49 4.6-7.465-.778-1.593-3.087-1.955-3.627-2.028a27.489 27.489 0 0 1-.975 9.493z" class="prefix__cls-3" data-name="Path 117838" transform="translate(-122.144 -68.871)"/>
                <path id="prefix__Path_117839" d="M136.967 104.71c-2.605-1.668-3.169-3.456-2.556-5.514.406-1.36 1.2-1.62 1.928-1.614a22.208 22.208 0 0 0 .628 7.128z" class="prefix__cls-3" data-name="Path 117839" transform="translate(-109.551 -69.579)"/>
                <path id="prefix__Path_117840" d="M111.229 207.383c3.76-26.385 5.577-36.087 5.528-38.024-2.047 1.788-5.21 1.245-8.247.723-4.11-.707-7.508-1.29-8.407-3.5-.645-1.581-.582-3.673 6.732-12.987 6.68-8.507 10.513-10.834 12.064-11.895 4.587-3.14 10.949-2.9 11.218-3.006a54.561 54.561 0 0 1 8.018 12.659c.833 1.87 1.823 4.121 3.123 4.1 1.07-.019 1.554-1.577 4.163-6.308a57.088 57.088 0 0 1 4-6.55 33.682 33.682 0 0 1 3.966-4.493c.125.018.312.046.538.083A31.118 31.118 0 0 1 170 146.214c1.373 1.328 3.358 4.622 7.327 11.211 4.12 6.84 4.623 8.526 4.044 10.166-1.162 3.287-5.922 4.264-8.247 4.742-2.406.494-6.523.809-8.775-.484.1 2.129 4.735 32.758 5.367 35.535" class="prefix__cls-1" data-name="Path 117840" transform="translate(-99.85 -81.028)"/>
                <path id="prefix__Path_117841" d="M174.234 150.089c.382-1.954.737-4 1.051-6.125q.4-2.724.676-5.289" class="prefix__cls-5" data-name="Path 117841" transform="translate(-120.866 -81.189)"/>
                <path id="prefix__Path_117842" d="M162.141 173.913c-2.048.1-3.256-.359-3.884-1.166-3.056-3.928 5.362-19.017 11.153-18.21 6 .836 9.816 18.819 5.741 21.546-.822.55-2.1.565-4-.241" class="prefix__cls-6" data-name="Path 117842" transform="translate(-116.169 -85.662)"/>
                <path id="prefix__Path_117843" d="M136.7 139.407a85.816 85.816 0 0 0 .961 9.043 76.135 76.135 0 0 0 2.282 9.584" class="prefix__cls-6" data-name="Path 117843" transform="translate(-110.26 -81.396)"/>
                <ellipse id="prefix__Ellipse_10369" cx="2.973" cy="2.984" class="prefix__cls-7" data-name="Ellipse 10369" rx="2.973" ry="2.984" transform="translate(27.216 75.613)"/>
                <ellipse id="prefix__Ellipse_10370" cx="1.814" cy="1.821" class="prefix__cls-7" data-name="Ellipse 10370" rx="1.814" ry="1.821" transform="translate(43.788 86.339)"/>
                <ellipse id="prefix__Ellipse_10371" cx="1.814" cy="1.821" class="prefix__cls-7" data-name="Ellipse 10371" rx="1.814" ry="1.821" transform="translate(53.676 88.248)"/>
                <path id="prefix__Line_147" d="M0 14.526L4.444 0" class="prefix__cls-5" data-name="Line 147" transform="translate(16.827 74.89)"/>
                <path id="prefix__Path_117844" d="M201.484 169.014l-1.464.32a.473.473 0 0 1-.57-.347l-.309-1.392a1.517 1.517 0 0 0-2.974.592l.319 1.444a.477.477 0 0 1-.38.559l-1.555.34a1.514 1.514 0 0 0-1.2 1.764 1.508 1.508 0 0 0 1.834 1.086l1.552-.353a.475.475 0 0 1 .58.346l.311 1.4a1.46 1.46 0 0 0 1.441 1.147 1.523 1.523 0 0 0 1.52-1.8l-.317-1.43a.476.476 0 0 1 .37-.557l1.461-.332a1.466 1.466 0 0 0 1.134-1.718 1.46 1.46 0 0 0-1.753-1.069z" class="prefix__cls-2" data-name="Path 117844" transform="translate(-126.258 -89.029)"/>
                <path id="prefix__Path_117845" d="M182.772 184.877a32.385 32.385 0 0 1-2.937 9.912c-2.15 4.712-4.417 6.352-5.445 6.992-2.363 1.471-4.806 1.786-10.889 1.768a126.331 126.331 0 0 1-13.452-.562c-6.4-.8-15.469-2.244-25.886-4.027 0 0 13.168-1.365 22.043-2.643 10.369-1.494 22.95-4.024 22.95-4.024a17.73 17.73 0 0 0 1.632-4.576c.175-.875.319-1.766.437-2.652a8.493 8.493 0 0 0 4.372.912 20.809 20.809 0 0 0 7.175-1.1z" class="prefix__cls-3" data-name="Path 117845" transform="translate(-106.719 -94.242)"/>
                <g id="prefix__Group_49742" data-name="Group 49742" transform="translate(3.317 87.876)">
                    <path id="prefix__Path_117846" d="M163.562 191.237c-4.108.814-7.825 1.5-11.069 2.064-1.951.342-6.252 1.082-11.85 1.929-4.454.674-6.886 1.041-10.249 1.446a119.055 119.055 0 0 1-14.45 1.205c-7.978.059-9.3-.878-10.028-1.687-1.919-2.145-1.517-5.535-1.081-9.222a28.232 28.232 0 0 1 1.192-5.488 51.422 51.422 0 0 0 8.442 1.227c3.064.067 3.986-1.679 3.986-1.679-.057.2-.809 5.044-1.111 6.272" class="prefix__cls-3" data-name="Path 117846" transform="translate(-104.473 -181.032)"/>
                    <path id="prefix__Path_117847" d="M115.71 189.509q10.828.387 22.262 1.185c9.989.705 19.514 1.862 28.765 2.938" data-name="Path 117847" transform="translate(-107.648 -183.427)" style="fill:#f8cdd9;stroke-width:.7px;stroke-miterlimit:10;stroke:#222"/>
                </g>
            </g>
            <circle id="prefix__Ellipse_10372" cx="1.133" cy="1.133" r="1.133" class="prefix__cls-9" data-name="Ellipse 10372" transform="translate(46.956 27.162)"/>
            <circle id="prefix__Ellipse_10373" cx="1.133" cy="1.133" r="1.133" class="prefix__cls-9" data-name="Ellipse 10373" transform="translate(36.727 27.162)"/>
            <path id="prefix__Path_117848" d="M160.4 98.44c-.329 1.667-.329 2.751.288 3.371.285.287.773.209 1.139.382a1.309 1.309 0 0 1 .315 1.872 3.786 3.786 0 0 1-1.76 1.191" data-name="Path 117848" transform="translate(-116.896 -69.821)" style="stroke-width:.798px;stroke-linejoin:round;fill:none;stroke-linecap:round;stroke:#222"/>
            <path id="prefix__Path_117849" d="M165.792 90.22a4.935 4.935 0 0 1 2.586 1.309" class="prefix__cls-11" data-name="Path 117849" transform="translate(-118.481 -67.499)"/>
            <path id="prefix__Path_117850" d="M151.668 91.109a3.492 3.492 0 0 0-2.075 1.906" class="prefix__cls-11" data-name="Path 117850" transform="translate(-113.904 -67.75)"/>
            <path id="prefix__Path_117851" d="M156.057 112.143c1.324 4.122 5.485 4.122 6.809 0" class="prefix__cls-11" data-name="Path 117851" transform="translate(-115.73 -73.693)"/>
            <path id="prefix__Path_117852" d="M186.469 168.785a22.928 22.928 0 0 1 1 6.31c.052 2.684-.413 3.252.12 4.219a4.254 4.254 0 0 0 2.634 1.758" class="prefix__cls-6" data-name="Path 117852" transform="translate(-124.323 -89.696)"/>
        </g>
    </g>
</svg>
