<svg xmlns="http://www.w3.org/2000/svg" width="109.24" height="119.19" viewBox="0 0 109.24 119.19">
    <defs>
        <style>
            .prefix__cls-1{fill:#ffd8b7}.prefix__cls-1,.prefix__cls-13,.prefix__cls-7{stroke:#222;stroke-miterlimit:10}.prefix__cls-1{stroke-width:.7px}.prefix__cls-7{fill:#fff}.prefix__cls-13{stroke-linecap:round;fill:none}.prefix__cls-7{stroke-width:.5px}.prefix__cls-9{fill:#222}.prefix__cls-13{stroke-width:.798px}
        </style>
    </defs>
    <g id="prefix__Group_49763" data-name="Group 49763" transform="translate(.21 .357)">
        <path id="prefix__Path_117904" d="M224.651 634.313a92.685 92.685 0 0 1-.957-24.131c.247-2.675.6-5.218 1.028-7.618H235.9l-1.279 30.547" class="prefix__cls-1" data-name="Path 117904" transform="translate(-217.314 -515.538)"/>
        <path id="prefix__Path_117905" d="M306.123 576.734a52.659 52.659 0 0 0 .506 7.669c.67 4.8 1.419 5.342 1.814 5.524 1.256.581 3.07-.751 6.7-3.417a47.139 47.139 0 0 0 5.742-4.954 39.078 39.078 0 0 0 3.444-3.98 35.777 35.777 0 0 0 2.967-4.658c1.1-2.084 1.655-3.124 1.772-4.04.418-3.278-1.938-5.335-.851-6.662a2.012 2.012 0 0 1 1.63-.638 2.756 2.756 0 0 1 1.949 1.453c.877 1.513-.027 2.655.532 3.189.967.927 4.326-1.608 10.626-4.068 2.975-1.161 5.163-1.743 6.311-.716a1.668 1.668 0 0 1 .637 1.2c-.132 2.617-10.5 3.955-10.347 5.1.058.445 1.489.273 2.551 1.559a4.07 4.07 0 0 1 .851 2.126 5.048 5.048 0 0 1-1.063 3.721c-.243.283-1.012 1.1-4.039 1.736a23.537 23.537 0 0 1-4.536.5c-4.51.183-6.421 7.035-12.119 14.173-4.456 5.583-12.137 12.48-16.041 10.618-.632-.3-2.63-2.474-3.947-3.624-2.656-2.318-4.858-13.306-4.378-20.566" class="prefix__cls-1" data-name="Path 117905" transform="translate(-241.223 -501.979)"/>
        <path id="prefix__Path_117906" d="M270.15 527.386a17.828 17.828 0 0 0-.587 10.833c.953 3.559 1.566 3.46 6.867 5.149-1.81 4.778-9.209 9.979-14.121 10.057-4.426.071-16.794-5.574-19.008-9.568 2.49-.23 9.957-1.378 11.363-4.942 1.7-4.306.144-8.3-.392-10.337z" class="prefix__cls-1" data-name="Path 117906" transform="translate(-223.821 -491.07)"/>
        <path id="prefix__Path_117907" d="M273.917 616.7c-.223-9.416.391-19.07.288-29.114-.014-1.4.2-3.823.2-7.261 2.791-.742 10.019-2.542 11.974-4.86 2.237-2.652-1.554-7.487-3.526-10.41a16.368 16.368 0 0 1-1.487-2.719c-1.409-3.1-1.773-5.237-4.165-8.4 0 0-.441-.55-.951-1.069-1.063-1.085-5.008-1.875-13.433-3.975-1.147 3.406-5.094 5.74-10.2 5.831-5.027.089-10.05-2.2-11.334-5.561-15.581 2.4-16.568 4.761-17.549 8.113-.354 1.212-1.087 3.893-2.225 8.8a29.8 29.8 0 0 1-1.964 5.629c-3.527 7.792-6.077 10.475-4.788 12.156.6.78 1.588.7 6.262 1.083 3.742.307 6.8.66 8.85.92l-1.2 30.876" data-name="Path 117907" transform="translate(-214.421 -498.069)" style="fill:#daf0f3;stroke-width:.7px;stroke-miterlimit:10;stroke:#222"/>
        <path id="prefix__Path_117908" d="M237.217 596.6a62.364 62.364 0 0 1 3.867-17.889" data-name="Path 117908" transform="translate(-221.841 -507.776)" style="stroke-linecap:round;fill:#fff;stroke-width:.7px;stroke-miterlimit:10;stroke:#222"/>
        <path id="prefix__Path_117909" d="M302.24 576.33a68.916 68.916 0 0 1 .752 12.928" data-name="Path 117909" transform="translate(-243.004 -506.999)" style="fill:none;stroke-linecap:round;stroke-width:.7px;stroke-miterlimit:10;stroke:#222"/>
        <g id="prefix__Group_49759" data-name="Group 49759" transform="translate(19.465)">
            <path id="prefix__Path_117910" d="M291.27 512.714c.29.015 3.278.206 4.109 1.993.874 1.878-.706 5.377-4.764 7.054a21.919 21.919 0 0 0 .656-9.047z" class="prefix__cls-1" data-name="Path 117910" transform="translate(-258.685 -486.294)"/>
            <path id="prefix__Path_117911" d="M248.6 512.461c-.29.015-3.278.206-4.109 1.992-.874 1.879.706 5.378 4.764 7.055a21.922 21.922 0 0 1-.656-9.047z" class="prefix__cls-1" data-name="Path 117911" transform="translate(-243.597 -486.212)"/>
            <ellipse id="prefix__Ellipse_10385" cx="14.409" cy="19.802" class="prefix__cls-1" data-name="Ellipse 10385" rx="14.409" ry="19.802" transform="translate(4.325 8.987)"/>
            <path id="prefix__Path_117912" d="M256.345 474.367a18.891 18.891 0 0 1 12.658.6c1.348.571 7.427 3.126 9.715 9.553 2.509 7.046-.769 14.942-2.5 14.926-1.547-.015-.875-6.332-5.119-8.787-2.874-1.663-4.432.5-9.6-1.017-4-1.17-5.039-3.039-7.355-2.4-2.152.59-3.356 2.781-4.273 4.447-2.366 4.3-1.608 7.717-2.393 7.846-1.225.2-5.961-7.641-3.495-15.01 2.452-7.342 10.509-9.631 12.362-10.158z" data-name="Path 117912" transform="translate(-243.279 -473.546)" style="fill:#373738;stroke-width:.7px;stroke-miterlimit:10;stroke:#222"/>
        </g>
        <g id="prefix__Group_49761" data-name="Group 49761" transform="translate(87.536 47.912)">
            <path id="prefix__Path_117913" d="M346.672 570.58l6.861 1.968a3.809 3.809 0 0 0 4.519-2.866 78.131 78.131 0 0 0 5.217-18.19 4.407 4.407 0 0 0-.225-3 3.357 3.357 0 0 0-2.088-1.822l-6.856-1.97a3.808 3.808 0 0 0-4.519 2.865c-.878 2.057-1.748 4.346-2.546 6.857a76.591 76.591 0 0 0-2.672 11.333 4.465 4.465 0 0 0 .074 2.628 3.6 3.6 0 0 0 2.235 2.197z" data-name="Path 117913" transform="translate(-344.195 -544.576)" style="stroke-width:.5px;fill:#373738;stroke-miterlimit:10;stroke:#222"/>
            <path id="prefix__Path_117914" d="M347.6 570.357l6.15 1.765a3.472 3.472 0 0 0 4.078-2.663 73.894 73.894 0 0 0 4.805-16.751 4.132 4.132 0 0 0-.182-2.759 2.977 2.977 0 0 0-1.864-1.661l-6.15-1.765a3.472 3.472 0 0 0-4.078 2.663c-.8 1.9-1.6 4.005-2.332 6.318a72.5 72.5 0 0 0-2.473 10.434 4.192 4.192 0 0 0 .049 2.415 3.193 3.193 0 0 0 1.997 2.004z" class="prefix__cls-7" data-name="Path 117914" transform="translate(-344.585 -545.175)"/>
            <path id="prefix__Path_117915" d="M361.678 546.349a.377.377 0 0 0-.055.09.337.337 0 0 0-.051.165c.026.115.437.19.66.237.283.059.564.148 1.126.324.773.242 1.159.364 1.214.386.1.04.408.165.515.087a.229.229 0 0 0 .074-.143.242.242 0 0 0-.01-.109c-.051-.129-.339-.2-.4-.218-.422-.107-.832-.254-1.251-.368-.532-.146-.8-.219-1.057-.309-.214-.074-.664-.239-.765-.142z" data-name="Path 117915" transform="translate(-349.85 -545.144)" style="fill:#fff"/>
            <g id="prefix__Group_49760" data-name="Group 49760" transform="translate(5.992 4.978)">
                <circle id="prefix__Ellipse_10386" cx="4.88" cy="4.88" r="4.88" class="prefix__cls-7" data-name="Ellipse 10386"/>
                <path id="prefix__Path_117916" d="M361.834 557.655a.3.3 0 0 0-.2-.11c-.182-.026-.362-.059-.542-.094a1.635 1.635 0 0 0-.185-.747c.335.1.622.2.891.3l.022.005a.3.3 0 0 0 .183-.574 18.86 18.86 0 0 0-1.8-.568l-.057-.013a.248.248 0 0 0-.082-.022c-.519-.136-.995-.244-1.459-.331a.3.3 0 0 0-.341.233.3.3 0 0 0 .233.36c.445.084.917.19 1.406.318a1.49 1.49 0 0 1 .58.909 13.55 13.55 0 0 1-2.124-.678.308.308 0 0 0-.231 0 .3.3 0 0 0 0 .558 14.143 14.143 0 0 0 1.682.577l.053.014c.141.038.283.071.425.1a.9.9 0 0 1-.509.266 1.477 1.477 0 0 1-.921-.211c-.254-.124-.544-.266-.786-.051-.355.314-.057.975.25 1.57a6.733 6.733 0 0 0 1.408 1.833.3.3 0 0 0 .1.055l.028.013h.007a.3.3 0 0 0 .289-.087.3.3 0 0 0-.016-.426 6.117 6.117 0 0 1-1.285-1.674 2.627 2.627 0 0 1-.307-.716l.041.02a2.064 2.064 0 0 0 1.292.266 1.516 1.516 0 0 0 1.066-.72c.187.035.4.073.6.1h.023a.3.3 0 0 0 .222-.065.3.3 0 0 0 .11-.2.3.3 0 0 0-.066-.21z" class="prefix__cls-9" data-name="Path 117916" transform="translate(-354.65 -553.11)"/>
                <circle id="prefix__Ellipse_10387" cx="2.245" cy="2.245" r="2.245" data-name="Ellipse 10387" transform="translate(3.408 7.583)" style="fill:#c4d778;stroke-width:.5px;stroke-miterlimit:10;stroke:#222"/>
                <path id="prefix__Path_117917" d="M360.285 566.156c.009.07.1.654.43.74.123.032.243-.014.541-.194a8.366 8.366 0 0 0 .925-.649" data-name="Path 117917" transform="translate(-355.423 -556.544)" style="stroke-width:.5px;fill:none;stroke-linecap:round;stroke-miterlimit:10;stroke:#222"/>
            </g>
        </g>
        <path id="prefix__Path_117918" d="M362.159 569.721c-1.548-.28-3.11 2.212-3.721 3.72-.291.719-1.465 3.617.036 5.1a3.144 3.144 0 0 0 3.047.637c2.369-.746 3.365-4.439 2.551-7.016-.135-.424-.704-2.222-1.913-2.441z" class="prefix__cls-1" data-name="Path 117918" transform="translate(-261.063 -504.841)"/>
        <g id="prefix__Group_49762" data-name="Group 49762" transform="translate(33.831 22.64)">
            <circle id="prefix__Ellipse_10388" cx="1.01" cy="1.01" r="1.01" class="prefix__cls-9" data-name="Ellipse 10388" transform="translate(.603 5.222)"/>
            <circle id="prefix__Ellipse_10389" cx="1.01" cy="1.01" r="1.01" class="prefix__cls-9" data-name="Ellipse 10389" transform="translate(9.721 5.222)"/>
            <path id="prefix__Path_117919" d="M273.426 516.776c-.341 1.581-.341 2.61.3 3.2.3.272.8.2 1.18.362a1.18 1.18 0 0 1 .326 1.776 3.96 3.96 0 0 1-1.823 1.129" data-name="Path 117919" transform="translate(-267.382 -510.256)" style="stroke-width:.798px;stroke-linejoin:round;fill:none;stroke-linecap:round;stroke:#222"/>
            <path id="prefix__Path_117920" d="M266.882 507.11a4.4 4.4 0 0 0-2.306 1.168" class="prefix__cls-13" data-name="Path 117920" transform="translate(-264.576 -507.11)"/>
            <path id="prefix__Path_117921" d="M279.673 507.11a3.113 3.113 0 0 1 1.85 1.7" class="prefix__cls-13" data-name="Path 117921" transform="translate(-269.49 -507.11)"/>
            <path id="prefix__Path_117922" d="M275.955 527.411c-.447 5.14-9.118 5.723-10.547.033" class="prefix__cls-13" data-name="Path 117922" transform="translate(-264.847 -513.717)"/>
        </g>
    </g>
</svg>
