<svg xmlns="http://www.w3.org/2000/svg" width="118.698" height="126.778" viewBox="0 0 118.698 126.778">
    <defs>
        <style>
            .prefix__cls-1{fill:#ffd8b7}.prefix__cls-1,.prefix__cls-5,.prefix__cls-6,.prefix__cls-8,.prefix__cls-9{stroke:#222}.prefix__cls-1,.prefix__cls-5,.prefix__cls-6,.prefix__cls-9{stroke-miterlimit:10}.prefix__cls-1,.prefix__cls-5,.prefix__cls-6{stroke-width:.7px}.prefix__cls-5{fill:#fff}.prefix__cls-8,.prefix__cls-9{fill:none}.prefix__cls-5,.prefix__cls-8,.prefix__cls-9{stroke-linecap:round}.prefix__cls-6{fill:#373738}.prefix__cls-7{fill:#222}.prefix__cls-8{stroke-linejoin:round}.prefix__cls-8,.prefix__cls-9{stroke-width:.798px}
        </style>
    </defs>
    <g id="prefix__Group_49750" data-name="Group 49750" transform="translate(.361 .357)">
        <g id="prefix__Group_49748" data-name="Group 49748" transform="translate(44.524)">
            <g id="prefix__Group_49747" data-name="Group 49747">
                <path id="prefix__Path_117854" d="M476.991 201.441a94.772 94.772 0 0 0 .978-24.669c-.252-2.734-.614-5.333-1.05-7.788l-10.122.9.893 31.446" class="prefix__cls-1" data-name="Path 117854" transform="translate(-410.885 -80.018)"/>
                <path id="prefix__Path_117855" d="M422.361 96.329c.586 1.545.642 10.245-.333 12-1.191 2.15-4.567 2.27-6.782 3.021 1.851 4.885 10.11 11.513 15.131 11.593 4.524.073 15.4-6.344 17.659-10.426-5.471-1.289-9.545 0-9.844-4.407a37.39 37.39 0 0 1 .4-10.566z" class="prefix__cls-1" data-name="Path 117855" transform="translate(-396.117 -59.203)"/>
                <path id="prefix__Path_117856" d="M404.789 157.6c.315 6.365.373 13.362 0 20.891-.34 6.863-.992 13.242-1.817 19.074l3.956 5.615 6.028-33.443z" data-name="Path 117856" transform="translate(-392.6 -76.756)" style="fill:#fff"/>
                <path id="prefix__Path_117857" d="M401.221 186.172q.343-14.439 0-29.849-.165-6.926-.472-13.644c-2.854-.758-5.4-1.523-7.6-2.23-3.376-1.087-4.59-1.606-4.707-2.477-.149-1.1 1.621-1.609 3.637-4.6a16.637 16.637 0 0 0 1.52-2.779c1.441-3.174 1.813-5.353 4.258-8.589 0 0 .451-.562.972-1.093 1.087-1.11 3.439-2.573 12.051-4.721 6.452 11.078 20.921 6.82 22.239.892 15.666 1.493 18.08 5.94 19.083 9.367.362 1.239 3.535 11.374 4.6 13.716 3.605 7.966 6.212 10.708 4.895 12.427-.611.8-1.624.716-6.4 1.108-3.824.313-6.946.674-9.047.94l1.231 31.564" data-name="Path 117857" transform="translate(-388.436 -64.894)" style="fill:#ffd889;stroke-width:.7px;stroke-miterlimit:10;stroke:#222"/>
                <path id="prefix__Path_117858" d="M467.979 164.223a63.823 63.823 0 0 0-3.953-18.288" data-name="Path 117858" transform="translate(-410.092 -73.415)" style="stroke-linecap:round;fill:none;stroke-width:.7px;stroke-miterlimit:10;stroke:#222"/>
                <path id="prefix__Path_117859" d="M406.926 144.107a86.456 86.456 0 0 0-.906 9.418q-.074 1.821-.072 3.55" class="prefix__cls-5" data-name="Path 117859" transform="translate(-393.453 -72.891)"/>
                <g id="prefix__Group_49746" data-name="Group 49746" transform="translate(15.959)">
                    <path id="prefix__Path_117860" d="M415.241 82.149c-.3.016-3.351.21-4.2 2.037-.893 1.92.721 5.5 4.87 7.211a22.383 22.383 0 0 1-.67-9.248z" class="prefix__cls-1" data-name="Path 117860" transform="translate(-410.802 -55.141)"/>
                    <path id="prefix__Path_117861" d="M456.275 81.9c.3.016 3.351.21 4.2 2.037.893 1.92-.721 5.5-4.87 7.211a22.383 22.383 0 0 0 .67-9.248z" class="prefix__cls-1" data-name="Path 117861" transform="translate(-423.638 -55.07)"/>
                    <ellipse id="prefix__Ellipse_10374" cx="14.73" cy="20.244" class="prefix__cls-1" data-name="Ellipse 10374" rx="14.73" ry="20.244" transform="translate(3.867 9.187)"/>
                    <path id="prefix__Path_117862" d="M435.43 45.135a19.311 19.311 0 0 0-12.94.61c-1.378.583-7.592 3.2-9.931 9.766-2.565 7.2.786 15.275 2.558 15.258 1.581-.015.895-6.473 5.233-8.983 2.938-1.7 4.531.507 9.814-1.04 4.088-1.2 5.152-3.107 7.519-2.458 2.2.6 3.431 2.843 4.368 4.546 2.419 4.4 1.645 7.89 2.447 8.021 1.251.205 6.094-7.811 3.573-15.345-2.511-7.496-10.747-9.837-12.641-10.375z" class="prefix__cls-6" data-name="Path 117862" transform="translate(-411.038 -44.296)"/>
                </g>
            </g>
            <circle id="prefix__Ellipse_10375" cx="1.068" cy="1.068" r="1.068" class="prefix__cls-7" data-name="Ellipse 10375" transform="translate(28.412 29.212)"/>
            <circle id="prefix__Ellipse_10376" cx="1.068" cy="1.068" r="1.068" class="prefix__cls-7" data-name="Ellipse 10376" transform="translate(38.057 29.212)"/>
            <path id="prefix__Path_117863" d="M436.225 87.163c-.36 1.672-.36 2.761.315 3.383.313.288.848.209 1.249.383a1.247 1.247 0 0 1 .346 1.878 4.183 4.183 0 0 1-1.929 1.2" class="prefix__cls-8" data-name="Path 117863" transform="translate(-402.058 -56.577)"/>
            <path id="prefix__Path_117864" d="M430.738 77.5a4.654 4.654 0 0 0-2.439 1.234" class="prefix__cls-9" data-name="Path 117864" transform="translate(-399.856 -53.808)"/>
            <path id="prefix__Path_117865" d="M443.4 77.5a3.294 3.294 0 0 1 1.956 1.8" class="prefix__cls-9" data-name="Path 117865" transform="translate(-404.181 -53.808)"/>
            <path id="prefix__Path_117866" d="M440.287 97.8c-.472 5.438-9.644 6.054-11.156.035" class="prefix__cls-9" data-name="Path 117866" transform="translate(-400.095 -59.624)"/>
        </g>
        <path id="prefix__Path_117867" d="M345.023 103.38a31.365 31.365 0 0 1-4.06-13.974c-.585-13.985 7.509-32.328 21.777-36.253a17.39 17.39 0 0 1 10.334-.2c9.222 2.985 12.818 13.854 19.285 34.592 7.064 22.65 4.576 26.956 3.045 28.67-1 1.122-2.919 2.616-9.879 3.017-6.605.387-30.397 1.761-40.502-15.852z" class="prefix__cls-6" data-name="Path 117867" transform="translate(-330.303 -46.573)"/>
        <path id="prefix__Path_117868" d="M389.489 130.666c-4.065-2.752-10.511-3.022-13.927-8.685-1.378-2.285-1.463-5.435-1.493-6.855l-9.98-1.5c-.149 1.5-.489 4.82-2.317 6.716-1.207 1.255-2.618 1.967-9.96 4.382-6.5 2.143-6.985 2.967-7.993 4.295" class="prefix__cls-1" data-name="Path 117868" transform="translate(-331.13 -64.157)"/>
        <path id="prefix__Path_117869" d="M377.511 69.957c6.307 1.6 11.072 8.8 11.072 17.46 0 9.837-6.153 17.8-13.728 17.8-7.592 0-13.745-7.967-13.745-17.8a24.1 24.1 0 0 1 .325-3.9" class="prefix__cls-1" data-name="Path 117869" transform="translate(-336.083 -51.648)"/>
        <path id="prefix__Path_117870" d="M381.361 54.881a33.7 33.7 0 0 1-8.063 16.2 30.655 30.655 0 0 1-12.885 8.407" class="prefix__cls-6" data-name="Path 117870" transform="translate(-335.883 -47.328)"/>
        <path id="prefix__Path_117872" d="M359.267 89.058c-.325.018-3.677.242-4.609 2.335-.98 2.2.791 6.3 5.345 8.265a26.763 26.763 0 0 1-.736-10.6z" class="prefix__cls-1" data-name="Path 117872" transform="translate(-334.16 -57.12)"/>
        <path id="prefix__Path_117873" d="M386.611 190.616c-2.857-23.673-4.295-32.386-4.214-34.118 1.8 1.639 8.3.07 11.053.253 6.112.407-6.623-22.291-12.437-25.031-4.5-2.121-8.307-3.418-8.547-3.519-3.858 4.459-13.9 7.033-20.589-1.511-.113.014-10.736 2.588-16.663 8.081-1.253 1.162-5.6 8.845-9.086 15.866-.521 1.049 1.129 3.808 4.325 5.944s8.3 1.785 9.324 1.229c-.132 1.9-4.866 29.211-5.485 31.682" data-name="Path 117873" transform="translate(-326.034 -67.901)" style="fill:#daf0f3;stroke-width:.7px;stroke-miterlimit:10;stroke:#222"/>
        <circle id="prefix__Ellipse_10377" cx="1.068" cy="1.068" r="1.068" class="prefix__cls-7" data-name="Ellipse 10377" transform="translate(43.273 34.019)"/>
        <circle id="prefix__Ellipse_10378" cx="1.068" cy="1.068" r="1.068" class="prefix__cls-7" data-name="Ellipse 10378" transform="translate(33.629 34.019)"/>
        <path id="prefix__Path_117874" d="M381.105 93.9c-.31 1.571-.31 2.594.271 3.179.269.27.729.2 1.074.36a1.234 1.234 0 0 1 .3 1.765 3.57 3.57 0 0 1-1.66 1.122" class="prefix__cls-8" data-name="Path 117874" transform="translate(-341.752 -58.507)"/>
        <path id="prefix__Path_117875" d="M386.216 85.169a4.652 4.652 0 0 1 2.439 1.235" class="prefix__cls-9" data-name="Path 117875" transform="translate(-343.276 -56.006)"/>
        <path id="prefix__Path_117876" d="M372.814 86.012a3.293 3.293 0 0 0-1.956 1.8" class="prefix__cls-9" data-name="Path 117876" transform="translate(-338.876 -56.247)"/>
        <path id="prefix__Path_117877" d="M375.089 105.62a6.512 6.512 0 0 0 9.547.158" class="prefix__cls-9" data-name="Path 117877" transform="translate(-340.088 -61.865)"/>
        <g id="prefix__Group_49749" data-name="Group 49749" transform="translate(38.763 77.219)">
            <path id="prefix__Path_117878" d="M419.091 210.746a11.882 11.882 0 0 0-1.986-5.9c-3.374-4.85-9.041-4.045-11.613-8.132-.992-1.576-1.809-4.333-.218-9.356l-10.77-.218c1.776 5.463.953 8.3-.217 9.9-2.656 3.621-8.126 2.218-11.614 6.419a11.188 11.188 0 0 0-2.312 6.853" data-name="Path 117878" transform="translate(-380.362 -162.439)" style="fill:#ccc1e0;stroke-width:.7px;stroke-miterlimit:10;stroke:#222"/>
            <path id="prefix__Path_117879" d="M399.023 197.039c1.17-1.6 1.993-4.437.217-9.9l10.77.218c-1.592 5.022-.775 7.779.218 9.356a13.873 13.873 0 0 0 2.3 2.23s-6.982 5.924-15.632.1a16.771 16.771 0 0 0 2.127-2.004z" class="prefix__cls-1" data-name="Path 117879" transform="translate(-385.098 -162.439)"/>
            <path id="prefix__Path_117880" d="M391.2 171.855c-.263.024-2.975.295-3.642 1.743-.7 1.523.913 4.231 4.693 5.4a15.545 15.545 0 0 1-.947-3.471 15.152 15.152 0 0 1-.104-3.672z" class="prefix__cls-1" data-name="Path 117880" transform="translate(-382.377 -158.06)"/>
            <path id="prefix__Path_117881" d="M421.837 171.855c.263.024 2.975.295 3.642 1.743.7 1.523-.913 4.231-4.693 5.4a15.546 15.546 0 0 0 .947-3.471 15.115 15.115 0 0 0 .104-3.672z" class="prefix__cls-1" data-name="Path 117881" transform="translate(-391.943 -158.06)"/>
            <path id="prefix__Path_117882" d="M414.392 170.827c0 7.495-5.069 13.571-11.321 13.571s-11.32-6.076-11.32-13.571 5.068-13.572 11.32-13.572 11.321 6.076 11.321 13.572z" class="prefix__cls-1" data-name="Path 117882" transform="translate(-383.625 -153.877)"/>
            <path id="prefix__Path_117883" d="M391.324 167.756c2.32 1.189 11.3-.473 15.412-4.6 4.4-4.419 5.066 5.127 7.216 3.836 1.64-.985 1.093-5.719-.87-8.921a12.324 12.324 0 0 0-10.77-5.548c-5.327.154-10.218 3.822-11.64 8.486-.703 2.305-.897 5.953.652 6.747z" class="prefix__cls-6" data-name="Path 117883" transform="translate(-383.165 -152.521)"/>
        </g>
        <path id="prefix__Path_117884" d="M332.937 169.089s-1.478 10.456 1.782 16.441c2.844 5.221 9.862 12.7 25.222 15.519 1.745 2.543 6 3.4 9.084 3.416 5.769.038 3.154-5.392 1.38-6.834-1.2-.976-6.447-.4-9.48-1.2-10.157-2.662-15.3-7.783-18.036-14.012-1.234-2.815-.986-11.71-1.229-12.465 0 .003-3.56 1.408-8.723-.865z" class="prefix__cls-1" data-name="Path 117884" transform="translate(-327.916 -80.048)"/>
        <path id="prefix__Path_117885" d="M408.494 180.29c.379.093.572.046.852.121a.938.938 0 0 1 .465 1.276 2.718 2.718 0 0 1-1.084 1.067" class="prefix__cls-8" data-name="Path 117885" transform="translate(-349.658 -83.257)"/>
        <circle id="prefix__Ellipse_10379" cx=".685" cy=".685" r=".685" class="prefix__cls-7" data-name="Ellipse 10379" transform="translate(61.8 93.896)"/>
        <circle id="prefix__Ellipse_10380" cx=".685" cy=".685" r=".685" class="prefix__cls-7" data-name="Ellipse 10380" transform="translate(55.618 93.896)"/>
        <path id="prefix__Path_117886" d="M405.217 185.831a4.173 4.173 0 0 0 6.12.1" class="prefix__cls-9" data-name="Path 117886" transform="translate(-348.719 -84.845)"/>
        <path id="prefix__Path_117887" d="M345.3 166.573s2.457-7.331 2.457-9.295" class="prefix__cls-5" data-name="Path 117887" transform="translate(-331.553 -76.665)"/>
    </g>
</svg>
