<svg xmlns="http://www.w3.org/2000/svg" width="130.481" height="119.376" viewBox="0 0 130.481 119.376">
    <defs>
        <style>
            .prefix__cls-1{fill:#ffd8b7}.prefix__cls-1,.prefix__cls-10,.prefix__cls-3,.prefix__cls-4,.prefix__cls-5,.prefix__cls-8,.prefix__cls-9{stroke:#222}.prefix__cls-1,.prefix__cls-10,.prefix__cls-3,.prefix__cls-4,.prefix__cls-9{stroke-miterlimit:10}.prefix__cls-1,.prefix__cls-10,.prefix__cls-3,.prefix__cls-4,.prefix__cls-5,.prefix__cls-9{stroke-width:.7px}.prefix__cls-5{fill:#fff}.prefix__cls-10,.prefix__cls-5,.prefix__cls-8,.prefix__cls-9{stroke-linecap:round}.prefix__cls-3{fill:#373738}.prefix__cls-4,.prefix__cls-8,.prefix__cls-9{fill:none}.prefix__cls-5,.prefix__cls-8{stroke-linejoin:round}.prefix__cls-10{fill:#c2d677}.prefix__cls-7{fill:#222}.prefix__cls-8{stroke-width:.798px}
        </style>
    </defs>
    <g id="prefix__Group_49769" data-name="Group 49769" transform="translate(.352 .306)">
        <g id="prefix__Group_49765" data-name="Group 49765">
            <path id="prefix__Path_117923" d="M363.809 345.525q2.357-3.586 1.692-4.28-.955-1-8.162 3.982" class="prefix__cls-1" data-name="Path 117923" transform="translate(-263.641 -288.09)"/>
            <path id="prefix__Path_38810" d="M392.014 293.362a4.763 4.763 0 0 0-1.055-3.043 3.353 3.353 0 0 0-2.535-1.264c-4.772-.295-9.77-.468-14.978-.477q-8.289 0-15.861.477a3.306 3.306 0 0 0-2.535 1.264 5.363 5.363 0 0 0-1.05 3.043c-.266 2.976-.45 6.27-.45 9.841-.011 3.846.171 7.381.45 10.548a5.19 5.19 0 0 0 .094.989 4.859 4.859 0 0 0 .959 2.052 3.559 3.559 0 0 0 1.419 1.1c.949.377 1.444-.021 1.629.259.576.875-3.8 5.454-3.287 6.345.079.137.45.492 4.658-1.741 4.049-2.153 4.863-3.1 6.894-3.847a19.21 19.21 0 0 1 6.691-.431s10.236.011 15.371-.419a3.7 3.7 0 0 0 2.535-1.264 4.294 4.294 0 0 0 .51-.772 5.167 5.167 0 0 0 .542-2.272c.173-2.858.284-5.888.306-9.073.024-4.021-.096-7.804-.307-11.315z" data-name="Path 38810" transform="translate(-262.543 -272.897)" style="stroke-linecap:round;fill:#fff;stroke-width:.7px;stroke-miterlimit:10;stroke:#222"/>
            <path id="prefix__Path_117924" d="M257.848 316.354a28.942 28.942 0 0 1-4.254-13.62c-.613-13.631 7.869-31.51 22.82-35.335a19.529 19.529 0 0 1 10.829-.19c9.664 2.909 13.432 13.5 20.209 33.716 7.4 22.077 4.8 26.274 3.191 27.944-1.05 1.094-3.058 2.55-10.351 2.942-6.924.372-31.855 1.711-42.444-15.457z" class="prefix__cls-3" data-name="Path 117924" transform="translate(-233.609 -266.512)"/>
            <path id="prefix__Path_117925" d="M247.8 347.565c1.075-4.736 3.23-6.575 4.365-7.327a6.494 6.494 0 0 1 .718-.424c1.157-.6 2.619-.918 8.257-2.674 7.695-2.39 9.173-3.094 10.437-4.335a8.948 8.948 0 0 0 2.6-5.573l10.11 1.315a11.268 11.268 0 0 0 1.745 5.885c2.113 3.308 11.048 4.2 14.594 8.593 4.459 5.526.853 17.277 3.018 25.592.289 1.111.826 2.716 1.941 2.987s2.305-.915 2.986-1.642c5.008-5.354 8.613-13.893 11.758-20.815.426-.937.768-1.679.927-2.024l-.045.126c.068-.176.185-.47.345-.829a13.154 13.154 0 0 1 2.356-3.82 11.149 11.149 0 0 1 1.083-1.008c2.286-1.806 5.779-.053 10.6-.149 3.164-.064 3.936-.865 10.3-1.344 1.291-.1 3.716-.249 4.292.9a1.546 1.546 0 0 1 .038 1.12c-.46 1.477-2.688 1.938-5.226 2.613-2.115.563-4.156 1.379-6.271 1.941a43.963 43.963 0 0 0-10.451 4.479c-6.336 3.962-4.443 10.19-10.75 21.8-2.534 4.664-7.768 14.3-12.84 13.736-4.328-.48-7.745-8.3-9.108-18.216" class="prefix__cls-1" data-name="Path 117925" transform="translate(-231.941 -284.083)"/>
            <path id="prefix__Path_117927" d="M290.166 282.339c6.609 1.58 11.6 8.71 11.6 17.277 0 9.734-6.447 17.618-14.385 17.618-7.956 0-14.4-7.884-14.4-17.618a22.563 22.563 0 0 1 .341-3.861" class="prefix__cls-1" data-name="Path 117927" transform="translate(-239.228 -271.092)"/>
            <path id="prefix__Path_117928" d="M294.2 267.722a32.118 32.118 0 0 1-8.448 15.858 32.517 32.517 0 0 1-13.5 8.23" class="prefix__cls-3" data-name="Path 117928" transform="translate(-239.016 -266.862)"/>
            <path id="prefix__Path_117930" d="M271.019 301.317c-.34.017-3.854.239-4.829 2.31-1.027 2.178.829 6.234 5.6 8.178a25.072 25.072 0 0 1-.771-10.488z" class="prefix__cls-1" data-name="Path 117930" transform="translate(-237.184 -276.584)"/>
            <path id="prefix__Path_117931" d="M295.524 405.579c-2.987-6.66-4.137-17.957-3.648-28.345a33.95 33.95 0 0 1 1.31-8.765 12.768 12.768 0 0 0-.933-8.1c.807 1.4 1.167 5.548 1.194 6.471.039 1.353 6.975 1.713 8.269.22 1.826-2.108-2.656-14.7-2.984-18.36-.384-4.293-11.559-8.426-13.439-8.728a24.8 24.8 0 0 0-5.009 5.66c-1.786 3.047-3.562 6.822-4.79 6.184-2.186-1.137-3.9-4.647-5.384-7.41-2.223-4.149-3.857-7.193-3.857-7.193-2.639.073-16.633 2.746-20.345 9.19-.767 1.332-11.524 13.108-9.478 14.693 1.369 1.061 10.093 10.661 13.583 7.805a7.984 7.984 0 0 0 1.855-2.643c-.984 10.554 2.8 12.183-.984 39.32" class="prefix__cls-5" data-name="Path 117931" transform="translate(-228.576 -286.972)"/>
            <path id="prefix__Path_117932" d="M373.454 307.991c0-2.467.089-4.215.186-5.388a1.4 1.4 0 0 1 2.034-1.133c1.118.564 2.742 1.42 4.813 2.609 1.952 1.12 3.485 2.088 4.536 2.781a1.405 1.405 0 0 1 .032 2.331c-1.034.721-2.572 1.729-4.638 2.922-2.032 1.173-3.653 1.985-4.772 2.5a1.406 1.406 0 0 1-2-1.148c-.099-1.165-.191-2.935-.191-5.474z" data-name="Path 117932" transform="translate(-268.304 -276.584)" style="fill:#c2d677;stroke-width:.7px;stroke-miterlimit:10;stroke:#222"/>
            <g id="prefix__Group_49764" data-name="Group 49764" transform="translate(41.534 20.013)">
                <circle id="prefix__Ellipse_10390" cx="1.123" cy="1.123" r="1.123" class="prefix__cls-7" data-name="Ellipse 10390" transform="translate(11.324 4.351)"/>
                <circle id="prefix__Ellipse_10391" cx="1.123" cy="1.123" r="1.123" class="prefix__cls-7" data-name="Ellipse 10391" transform="translate(1.197 4.929)"/>
                <path id="prefix__Path_117933" d="M295.038 303.194c-.231 1.669-.17 2.742.475 3.321.3.268.777.163 1.15.313a1.3 1.3 0 0 1 .418 1.836 3.761 3.761 0 0 1-1.675 1.278" class="prefix__cls-8" data-name="Path 117933" transform="translate(-287.11 -297.14)"/>
                <path id="prefix__Path_117934" d="M299.92 294.675a4.891 4.891 0 0 1 2.635 1.15" class="prefix__cls-8" data-name="Path 117934" transform="translate(-288.558 -294.675)"/>
                <path id="prefix__Path_117935" d="M285.877 296.323a3.465 3.465 0 0 0-1.946 2" class="prefix__cls-8" data-name="Path 117935" transform="translate(-283.931 -295.152)"/>
                <path id="prefix__Path_117936" d="M298.223 315.521c-1.735 3.947-7.869 3.612-9.766-.094 0 0 .669 6.2 5.33 5.934 4.754-.271 4.436-5.84 4.436-5.84z" class="prefix__cls-5" data-name="Path 117936" transform="translate(-285.241 -300.68)"/>
            </g>
            <path id="prefix__Path_117937" d="M260.3 366.284c.048-1.314-1.663 8.551-4.651 11" class="prefix__cls-4" data-name="Path 117937" transform="translate(-234.213 -295.35)"/>
            <path id="prefix__Path_117938" d="M235.067 373.091c-.335-.34-6.037 7.623-7.457 9.806-9.923 15.253 17.944 16.337 20.787 19.585a11.826 11.826 0 0 1 1 1.349c.23.383.422.747.591 1.094 1.077 2.277 1.17 4 2.561 4.327 2.159.495 5.173-3 6.175-6.419.03-.1.061-.217.093-.331.56-2.159.839-5.775-1.072-7.148-1.637-1.183-3.376.4-5.984.632-.645.055-13.5-1.121-16.467-8.454-.2-.485 6.861-8.566 7.063-8.656a43.288 43.288 0 0 1-7.29-5.785z" class="prefix__cls-1" data-name="Path 117938" transform="translate(-225.484 -297.351)"/>
        </g>
        <g id="prefix__Group_49768" data-name="Group 49768" transform="translate(28.514 50.242)">
            <g id="prefix__Group_49767" data-name="Group 49767">
                <path id="prefix__Path_117939" d="M269.077 337.214a85.107 85.107 0 0 0-.336 9 75.368 75.368 0 0 0 .882 9.718" class="prefix__cls-9" data-name="Path 117939" transform="translate(-266.51 -337.214)"/>
                <ellipse id="prefix__Ellipse_10392" cx="2.955" cy="2.944" class="prefix__cls-10" data-name="Ellipse 10392" rx="2.955" ry="2.944" transform="rotate(-81.793 13.402 11.608)"/>
                <g id="prefix__Group_49766" data-name="Group 49766" transform="translate(14.905 2.759)">
                    <path id="prefix__Path_117940" d="M303.023 352.415c.362-1.939.7-3.965.99-6.075q.377-2.7.625-5.244" data-name="Path 117940" transform="translate(-291.341 -341.096)" style="fill:#cbbede;stroke-linecap:round;stroke-width:.7px;stroke-miterlimit:10;stroke:#222"/>
                    <path id="prefix__Path_117941" d="M291.1 376.231c-2.028.117-3.228-.328-3.856-1.122-3.059-3.865 5.153-18.88 10.894-18.128 5.949.778 9.878 18.557 5.865 21.291-.81.551-2.072.577-3.967-.206" class="prefix__cls-9" data-name="Path 117941" transform="translate(-286.583 -345.685)"/>
                    <ellipse id="prefix__Ellipse_10393" cx="1.797" cy="1.804" class="prefix__cls-10" data-name="Ellipse 10393" rx="1.797" ry="1.804" transform="rotate(-.48 3423.498 -264.741)"/>
                    <ellipse id="prefix__Ellipse_10394" cx="1.797" cy="1.804" class="prefix__cls-10" data-name="Ellipse 10394" rx="1.797" ry="1.804" transform="rotate(-.48 3644.215 -1434.813)"/>
                </g>
            </g>
        </g>
    </g>
</svg>
