<svg width="218" height="56" viewBox="0 0 218 56" fill="none" xmlns="http://www.w3.org/2000/svg">
<path d="M190 0H28C12.536 0 0 12.536 0 28C0 43.464 12.536 56 28 56H190C205.464 56 218 43.464 218 28C218 12.536 205.464 0 190 0Z" fill="#0099EF"/>
<path d="M61.716 33V18.722H67.48C68.58 18.722 69.493 18.8943 70.219 19.239C70.945 19.5763 71.4877 20.031 71.847 20.603C72.2063 21.175 72.386 21.8093 72.386 22.506C72.386 23.3127 72.1587 24.002 71.704 24.574C71.2567 25.146 70.626 25.5493 69.812 25.784C70.3473 25.894 70.8277 26.0957 71.253 26.389C71.6783 26.6823 72.012 27.0527 72.254 27.5C72.5033 27.9473 72.628 28.4607 72.628 29.04C72.628 29.4947 72.5473 29.953 72.386 30.415C72.232 30.877 71.9607 31.306 71.572 31.702C71.1907 32.0907 70.6663 32.406 69.999 32.648C69.339 32.8827 68.5067 33 67.502 33H61.716ZM64.312 30.734H67.436C68.2647 30.734 68.8697 30.569 69.251 30.239C69.6397 29.9017 69.834 29.4507 69.834 28.886C69.834 28.3213 69.636 27.8703 69.24 27.533C68.844 27.1883 68.2427 27.016 67.436 27.016H64.312V30.734ZM64.312 20.966V24.75H67.37C68.14 24.75 68.723 24.5813 69.119 24.244C69.5223 23.8993 69.724 23.43 69.724 22.836C69.724 22.2713 69.526 21.8203 69.13 21.483C68.7413 21.1383 68.162 20.966 67.392 20.966H64.312ZM80.1836 33.308C79.2083 33.308 78.3246 33.099 77.5326 32.681C76.748 32.263 76.1246 31.6397 75.6626 30.811C75.2006 29.975 74.9696 28.93 74.9696 27.676C74.9696 26.4 75.2006 25.344 75.6626 24.508C76.1246 23.672 76.748 23.0487 77.5326 22.638C78.3246 22.2273 79.2083 22.022 80.1836 22.022C81.1443 22.022 82.0133 22.2273 82.7906 22.638C83.5753 23.0487 84.1986 23.672 84.6606 24.508C85.1226 25.344 85.3536 26.4 85.3536 27.676C85.3536 28.93 85.1226 29.975 84.6606 30.811C84.1986 31.6397 83.5753 32.263 82.7906 32.681C82.0133 33.099 81.1443 33.308 80.1836 33.308ZM80.0956 31.042C80.609 31.042 81.0636 30.9173 81.4596 30.668C81.863 30.4113 82.1783 30.0337 82.4056 29.535C82.6403 29.0363 82.7576 28.4167 82.7576 27.676C82.7576 26.5467 82.534 25.696 82.0866 25.124C81.6466 24.552 81.0416 24.266 80.2716 24.266C79.751 24.266 79.289 24.3943 78.8856 24.651C78.4823 24.9003 78.1633 25.278 77.9286 25.784C77.7013 26.29 77.5876 26.9207 77.5876 27.676C77.5876 28.7907 77.8113 29.6303 78.2586 30.195C78.7133 30.7597 79.3256 31.042 80.0956 31.042ZM92.6446 33.308C91.6692 33.308 90.7856 33.099 89.9936 32.681C89.2089 32.263 88.5856 31.6397 88.1236 30.811C87.6616 29.975 87.4306 28.93 87.4306 27.676C87.4306 26.4 87.6616 25.344 88.1236 24.508C88.5856 23.672 89.2089 23.0487 89.9936 22.638C90.7856 22.2273 91.6692 22.022 92.6446 22.022C93.6052 22.022 94.4742 22.2273 95.2516 22.638C96.0362 23.0487 96.6596 23.672 97.1216 24.508C97.5836 25.344 97.8146 26.4 97.8146 27.676C97.8146 28.93 97.5836 29.975 97.1216 30.811C96.6596 31.6397 96.0362 32.263 95.2516 32.681C94.4742 33.099 93.6052 33.308 92.6446 33.308ZM92.5566 31.042C93.0699 31.042 93.5246 30.9173 93.9206 30.668C94.3239 30.4113 94.6392 30.0337 94.8666 29.535C95.1012 29.0363 95.2186 28.4167 95.2186 27.676C95.2186 26.5467 94.9949 25.696 94.5476 25.124C94.1076 24.552 93.5026 24.266 92.7326 24.266C92.2119 24.266 91.7499 24.3943 91.3466 24.651C90.9432 24.9003 90.6242 25.278 90.3896 25.784C90.1622 26.29 90.0486 26.9207 90.0486 27.676C90.0486 28.7907 90.2722 29.6303 90.7196 30.195C91.1742 30.7597 91.7866 31.042 92.5566 31.042ZM100.904 33V17.908H103.5V33H100.904ZM103.148 26.378L107.724 22.33H111.244L103.148 29.062V26.378ZM108.34 33L103.566 26.202L106.03 25.608L111.508 33H108.34ZM119.443 18.722H122.281L128.771 28.908H128.573V18.722H131.169V33H128.529L121.621 22.198H122.039V33H119.443V18.722ZM139.459 33.308C138.484 33.308 137.6 33.099 136.808 32.681C136.023 32.263 135.4 31.6397 134.938 30.811C134.476 29.975 134.245 28.93 134.245 27.676C134.245 26.4 134.476 25.344 134.938 24.508C135.4 23.672 136.023 23.0487 136.808 22.638C137.6 22.2273 138.484 22.022 139.459 22.022C140.42 22.022 141.289 22.2273 142.066 22.638C142.851 23.0487 143.474 23.672 143.936 24.508C144.398 25.344 144.629 26.4 144.629 27.676C144.629 28.93 144.398 29.975 143.936 30.811C143.474 31.6397 142.851 32.263 142.066 32.681C141.289 33.099 140.42 33.308 139.459 33.308ZM139.371 31.042C139.884 31.042 140.339 30.9173 140.735 30.668C141.138 30.4113 141.454 30.0337 141.681 29.535C141.916 29.0363 142.033 28.4167 142.033 27.676C142.033 26.5467 141.809 25.696 141.362 25.124C140.922 24.552 140.317 24.266 139.547 24.266C139.026 24.266 138.564 24.3943 138.161 24.651C137.758 24.9003 137.439 25.278 137.204 25.784C136.977 26.29 136.863 26.9207 136.863 27.676C136.863 28.7907 137.087 29.6303 137.534 30.195C137.989 30.7597 138.601 31.042 139.371 31.042ZM145.936 22.33H148.642L150.952 30.426H150.688L152.866 22.902H155.22L157.398 30.448H157.134L159.444 22.33H162.04L158.52 33H155.968L153.79 25.916H154.186L152.052 33H149.478L145.936 22.33Z" fill="white"/>
</svg>
