<svg width="323" height="247" viewBox="0 0 323 247" fill="none" xmlns="http://www.w3.org/2000/svg">
<g clip-path="url(#clip0_834_1781)">
<path d="M233.435 178C282.588 178 322.435 138.153 322.435 89C322.435 39.8467 282.588 0 233.435 0C184.282 0 144.435 39.8467 144.435 89C144.435 138.153 184.282 178 233.435 178Z" fill="#DCEDF9"/>
<path d="M74.039 54.2471C76.606 75.8731 78.6619 98.9321 79.9389 123.299C81.9069 160.825 81.7289 195.706 80.2659 227.425L248.103 227.792C247.503 197.504 247.979 164.748 250.071 129.876C251.671 103.205 254.056 77.953 256.954 54.248" stroke="#2D2D2D" stroke-width="0.7" stroke-miterlimit="10"/>
<path d="M79.2851 54.2471C81.8501 75.8731 83.906 98.9321 85.185 123.299C87.154 160.825 86.975 195.706 85.514 227.425L253.35 227.792C252.75 197.504 253.228 164.748 255.318 129.876C256.918 103.205 259.302 77.953 262.202 54.248" stroke="#2D2D2D" stroke-width="0.7" stroke-miterlimit="10"/>
<path d="M50.435 226H275.435V240H50.435V226Z" fill="white"/>
<path d="M273.513 79.4321C237.896 80.4201 201.198 80.9121 163.421 80.9081C128.123 80.8761 93.7563 80.3841 60.3209 79.4321C56.6063 79.4201 53.0046 78.1545 50.099 75.8401C48.8005 74.8007 47.7466 73.4883 47.0121 71.996C46.2776 70.5037 45.8805 68.868 45.849 67.2051C44.0948 55.2357 44.0948 43.0745 45.849 31.1051C45.953 29.4565 46.3819 27.8447 47.1113 26.3626C47.8407 24.8804 48.8561 23.5573 50.099 22.4691C52.9796 20.1094 56.5985 18.8382 60.322 18.8781C93.13 17.9655 126.841 17.4728 161.455 17.4001C199.896 17.3454 237.249 17.8381 273.514 18.8781C277.229 18.889 280.831 20.1544 283.736 22.4691C285.035 23.5083 286.089 24.8208 286.824 26.3133C287.559 27.8058 287.956 29.4418 287.987 31.1051C289.738 43.0748 289.738 55.2354 287.987 67.2051C287.935 69.6364 287.1 71.9862 285.606 73.9051C285.053 74.6146 284.427 75.2632 283.737 75.8401C280.232 78.7621 275.522 79.3041 273.513 79.4321Z" fill="white" stroke="#2D2D2D" stroke-width="0.7" stroke-miterlimit="10"/>
<path d="M239.739 178.2C239.685 185.8 239.351 192.947 238.856 199.533C238.042 204.776 234.848 208.578 231.494 208.578C227.445 208.578 224.131 204.514 224.131 199.533C223.69 193.815 223.382 187.633 223.276 181.067C226.71 180.951 230.008 179.7 232.656 177.511C235.942 174.744 238.355 171.085 239.605 166.975C239.711 170.597 239.765 174.333 239.739 178.2V178.2Z" fill="#0099EF" stroke="#2D2D2D" stroke-width="0.7" stroke-miterlimit="10"/>
<path d="M239.604 166.976C238.354 171.086 235.941 174.745 232.655 177.512C230.007 179.701 226.709 180.952 223.275 181.068C223.249 179.168 223.236 177.218 223.236 175.235C223.262 167.141 223.596 159.587 224.131 152.656C224.129 152.217 224.161 151.779 224.225 151.345C224.432 149.498 225.149 147.745 226.296 146.282C226.909 145.479 227.694 144.823 228.594 144.364C229.494 143.905 230.486 143.653 231.496 143.628C235.17 143.628 238.244 146.971 238.765 151.313C238.83 151.758 238.861 152.207 238.858 152.657C239.202 157.177 239.457 161.963 239.604 166.976Z" fill="white" stroke="#2D2D2D" stroke-width="0.7" stroke-miterlimit="10"/>
<path d="M239.027 151.273C233.896 151.887 228.71 151.887 223.579 151.273C222.58 151.231 221.637 150.804 220.945 150.082C220.254 149.361 219.868 148.4 219.868 147.401C219.868 146.401 220.254 145.44 220.945 144.719C221.637 143.997 222.58 143.57 223.579 143.528C228.705 142.831 233.901 142.831 239.027 143.528C240.026 143.57 240.969 143.997 241.661 144.719C242.352 145.44 242.738 146.401 242.738 147.401C242.738 148.4 242.352 149.361 241.661 150.082C240.969 150.804 240.026 151.231 239.027 151.273V151.273Z" fill="white" stroke="#2D2D2D" stroke-width="0.7" stroke-miterlimit="10"/>
<path d="M268.072 178.2C268.018 185.8 267.684 192.947 267.189 199.533C266.374 204.776 263.181 208.578 259.827 208.578C255.778 208.578 252.464 204.514 252.464 199.533C252.023 193.815 251.716 187.633 251.608 181.067C255.042 180.951 258.341 179.7 260.989 177.511C264.274 174.744 266.688 171.084 267.938 166.975C268.043 170.597 268.098 174.333 268.072 178.2V178.2Z" fill="#DCEDF9" stroke="#2D2D2D" stroke-width="0.7" stroke-miterlimit="10"/>
<path d="M267.938 166.976C266.688 171.086 264.274 174.745 260.989 177.512C258.341 179.702 255.042 180.952 251.608 181.068C251.582 179.168 251.569 177.218 251.569 175.235C251.596 167.141 251.93 159.587 252.469 152.656C252.467 152.217 252.498 151.779 252.562 151.345C252.77 149.498 253.487 147.745 254.633 146.282C255.246 145.479 256.031 144.823 256.931 144.364C257.831 143.904 258.823 143.653 259.833 143.628C263.508 143.628 266.581 146.971 267.101 151.313C267.166 151.758 267.198 152.207 267.195 152.657C267.538 157.177 267.79 161.963 267.938 166.976Z" fill="white" stroke="#2D2D2D" stroke-width="0.7" stroke-miterlimit="10"/>
<path d="M267.36 151.273C262.229 151.887 257.043 151.887 251.912 151.273C250.913 151.231 249.97 150.804 249.278 150.082C248.587 149.361 248.201 148.4 248.201 147.401C248.201 146.401 248.587 145.44 249.278 144.719C249.97 143.997 250.913 143.571 251.912 143.528C257.038 142.831 262.234 142.831 267.36 143.528C268.359 143.571 269.302 143.997 269.994 144.719C270.685 145.44 271.071 146.401 271.071 147.401C271.071 148.4 270.685 149.361 269.994 150.082C269.302 150.804 268.359 151.231 267.36 151.273V151.273Z" fill="white" stroke="#2D2D2D" stroke-width="0.7" stroke-miterlimit="10"/>
<path d="M278.032 157.897H212.492C210.032 157.897 208.038 159.891 208.038 162.351V223.425C208.038 225.885 210.032 227.879 212.492 227.879H278.032C280.492 227.879 282.486 225.885 282.486 223.425V162.351C282.486 159.891 280.492 157.897 278.032 157.897Z" stroke="#2D2D2D" stroke-width="0.7" stroke-miterlimit="10"/>
<path d="M152.941 157.073C155.486 158.618 164.458 164.484 167.914 176.063C168.796 179.016 171.186 187.028 167.367 195.601C161.832 208.019 148.188 210.572 147.099 210.757C133.925 212.995 124.51 204.685 123.362 203.636H101.998C105.999 211.471 112.224 217.95 119.892 222.261C125.891 225.578 132.58 227.453 139.429 227.739C157.529 228.511 169.942 218.139 171.929 216.417C175.042 213.717 183.91 205.795 186.536 192.317C188.799 180.698 185.155 171.473 183.066 166.389C179.277 157.302 173.093 149.413 165.172 143.565C161.097 148.067 157.02 152.57 152.941 157.073V157.073Z" fill="white" stroke="#2D2D2D" stroke-width="0.7" stroke-miterlimit="10" stroke-linecap="round"/>
<path d="M184.975 224.923C184.56 225.325 184.293 225.854 184.216 226.427C184.139 226.999 184.258 227.58 184.552 228.077C186.941 231.465 200.623 229.268 227.701 229.371C230.408 229.382 235.418 229.405 242.064 229.625C255.397 230.067 268.798 229.284 282.112 229.879C283.429 229.938 286.495 230.087 287.97 228.948C289.405 227.84 289.053 225.728 287.288 224.721C285.502 223.7 282.62 224.013 281.46 224.13C273.783 224.9 265.91 224.318 258.137 224.467C253.805 224.551 247.76 224.441 235.672 224.218L227.877 224.077C226.642 224.056 226.696 224.059 226.15 224.044C200.12 223.409 188.147 221.344 184.975 224.923Z" fill="#0099EF" stroke="#2D2D2D" stroke-width="0.7" stroke-miterlimit="10"/>
<path d="M197.027 172.696C197.343 175.75 197.704 180.179 197.793 185.549C197.906 192.326 197.963 195.714 197.027 199.165C195.635 204.312 193.413 206.132 188.802 213.065C185.534 217.992 182.614 223.142 180.062 228.475C179.636 229.208 179.376 230.025 179.299 230.869C179.222 231.713 179.331 232.564 179.618 233.361C179.997 234.239 180.583 235.013 181.325 235.616C182.068 236.219 182.945 236.634 183.882 236.825C187.316 237.108 192.189 237.477 198.066 237.811C198.733 237.849 203.917 238.137 210.866 238.265C215.999 238.301 221.122 237.819 226.158 236.825C228.181 236.425 230.297 235.912 231.4 234.161C232.624 232.214 231.972 229.706 231.489 228.21C228.014 217.455 217.72 211.358 214.345 199.343C213.19 195.229 213.126 191.426 213.045 186.643C212.963 181.701 213.368 176.763 214.254 171.901C208.513 172.163 202.771 172.428 197.027 172.696V172.696Z" fill="white" stroke="#2D2D2D" stroke-width="0.7" stroke-miterlimit="10" stroke-linecap="round"/>
<path d="M193.711 167.533C193.347 168.188 193.165 168.928 193.182 169.678C193.2 170.427 193.417 171.158 193.811 171.795C194.565 172.995 196.059 173.774 205.285 173.766C214.461 173.758 215.935 172.983 216.647 171.795C217.007 171.162 217.195 170.446 217.191 169.717C217.188 168.989 216.993 168.274 216.626 167.645C215.52 165.907 213.247 166.092 204.878 166.07C196.967 166.049 194.766 165.872 193.711 167.533V167.533Z" fill="white" stroke="#2D2D2D" stroke-width="0.7" stroke-miterlimit="10" stroke-linecap="round"/>
<path d="M161.528 88.738C158.908 90.18 158.905 92.87 156.644 98.097C153.193 106.07 149.082 109.291 144.465 114.97C130.1 132.638 137.012 141.901 122.265 159.723C116.653 166.508 112.486 168.992 113.045 173.645C113.9 180.773 125.183 187.43 131.806 184.738C135.742 183.138 136.582 178.828 138.973 172.733C146.524 153.489 153.934 156.248 163.715 135.255C169.415 123.023 168.009 119.702 174.442 110.969C178.35 105.663 181.309 103.574 180.97 99.83C180.306 92.468 167.491 85.458 161.528 88.738V88.738Z" fill="#DCEDF9" stroke="#2D2D2D" stroke-width="0.7" stroke-miterlimit="10"/>
<path d="M153.078 99.9211C154.857 99.5261 156.104 100.057 167.458 106.562C174.835 110.788 175.621 111.315 176.224 112.588C178.11 116.575 174.813 120.756 168.692 131.144C156.503 151.825 150.408 162.168 149.04 165.244C147.572 168.544 145.871 172.744 141.987 174.01C138.805 175.049 135.773 173.594 130.142 170.79C123.352 167.411 118.712 165.103 117.748 160.862C117.113 158.062 118.421 155.93 121.787 150.248C128.762 138.48 133.897 129.495 134.866 127.789C136.966 124.096 138.626 120.927 143.973 111.489C148.881 102.831 150.294 100.539 153.078 99.9211V99.9211Z" fill="white" stroke="#2D2D2D" stroke-width="0.7" stroke-miterlimit="10" stroke-linecap="round"/>
<path d="M153.854 163.703C163.062 163.703 170.526 156.239 170.526 147.031C170.526 137.823 163.062 130.359 153.854 130.359C144.646 130.359 137.182 137.823 137.182 147.031C137.182 156.239 144.646 163.703 153.854 163.703Z" fill="white" stroke="#2D2D2D" stroke-width="0.7" stroke-miterlimit="10" stroke-linecap="round"/>
<path d="M153.855 156.068C158.846 156.068 162.892 152.022 162.892 147.031C162.892 142.04 158.846 137.994 153.855 137.994C148.864 137.994 144.818 142.04 144.818 147.031C144.818 152.022 148.864 156.068 153.855 156.068Z" fill="#0099EF" stroke="#2D2D2D" stroke-width="0.7" stroke-miterlimit="10"/>
<path d="M87.5281 198.273C87.0418 198.767 86.6607 199.355 86.4078 200.001C86.155 200.647 86.0356 201.337 86.0569 202.03C86.0782 202.723 86.2398 203.405 86.5318 204.033C86.8239 204.662 87.2402 205.226 87.756 205.689C91.056 208.81 97.305 207.101 114.233 207.114C130.402 207.125 136.538 208.692 139.613 205.689C140.094 205.218 140.476 204.654 140.735 204.032C140.994 203.41 141.125 202.743 141.12 202.069C141.116 201.395 140.976 200.729 140.71 200.111C140.443 199.492 140.054 198.933 139.567 198.468C136.336 195.353 129.895 197.16 113.41 197.108C97.048 197.051 90.6641 195.229 87.5281 198.273V198.273Z" fill="#0099EF" stroke="#2D2D2D" stroke-width="0.7" stroke-miterlimit="10"/>
<path d="M84.103 237.909C83.5014 238.6 83.1343 239.464 83.0542 240.377C82.974 241.29 83.1851 242.205 83.6571 242.99C87.6711 249.361 108.713 244.873 147.646 245.326C175.001 245.646 192.902 248.19 196.468 242.677C196.916 241.974 197.132 241.149 197.087 240.317C197.042 239.485 196.738 238.688 196.217 238.038C191.562 232.007 171.328 237.904 140.16 237.828C108.86 237.753 89.15 231.709 84.103 237.909V237.909Z" fill="#0099EF" stroke="#2D2D2D" stroke-width="0.7" stroke-miterlimit="10"/>
<path d="M114.506 245.711C116.159 238.706 119.209 232.108 123.475 226.311C128.225 219.9 134.764 210.622 143.265 211.035C150.503 211.387 155.516 218.543 160.383 225.485C164.66 231.615 167.727 238.505 169.421 245.785L114.506 245.711Z" fill="white" stroke="#2D2D2D" stroke-width="0.7" stroke-miterlimit="10" stroke-linecap="round"/>
<path d="M142.351 239.232C148.502 239.232 153.489 234.245 153.489 228.094C153.489 221.943 148.502 216.956 142.351 216.956C136.2 216.956 131.213 221.943 131.213 228.094C131.213 234.245 136.2 239.232 142.351 239.232Z" fill="white" stroke="#2D2D2D" stroke-width="0.7" stroke-miterlimit="10" stroke-linecap="round"/>
<path d="M142.351 232.497C145.685 232.497 148.388 229.794 148.388 226.46C148.388 223.126 145.685 220.423 142.351 220.423C139.017 220.423 136.314 223.126 136.314 226.46C136.314 229.794 139.017 232.497 142.351 232.497Z" fill="#0099EF" stroke="#2D2D2D" stroke-width="0.7" stroke-miterlimit="10"/>
<path d="M99.6051 173.248C104.319 170.413 106.433 165.276 104.326 161.774C102.22 158.272 96.6918 157.73 91.9782 160.564C87.2646 163.399 85.1508 168.536 87.2569 172.038C89.3631 175.541 94.8915 176.082 99.6051 173.248Z" fill="white" stroke="#2D2D2D" stroke-width="0.7" stroke-miterlimit="10"/>
<path d="M23.293 156.054L7.66699 169.724L23.3671 180.979L54.5811 186.473L87.703 179.48L77.382 136.909L23.293 156.054Z" fill="white"/>
<path d="M51.8519 143.37C55.0039 139.17 58.219 133.292 57.569 126.651C56.72 118.003 49.869 113.684 51.903 109.101C53.74 104.967 61.019 104.657 63.646 104.546C66.946 104.405 72.7859 104.158 75.0929 107.621C78.1489 112.206 71.6399 118.229 72.7479 127.598C73.4659 133.667 77.0359 138.232 79.8379 141.076L51.8519 143.37V143.37Z" fill="white" stroke="#2D2D2D" stroke-width="0.7" stroke-miterlimit="10"/>
<path d="M49.555 153.14C48.061 154.428 48.169 156.288 47.348 158.275C44.92 164.161 38.174 180.5 42.795 187.629C42.844 187.704 43.034 187.957 43.314 188.284C45.856 191.255 50.442 193.549 69.974 191.738C86.733 190.186 91.617 187.738 94.434 183.686C94.498 183.594 94.6489 183.378 94.7989 183.134C99.8239 174.996 90.926 159.177 83.399 148.173C74.287 153.431 67.438 153.873 62.832 153.285C57.842 152.646 52.709 150.429 49.555 153.14V153.14Z" fill="#DCEDF9" stroke="#2D2D2D" stroke-width="0.7" stroke-miterlimit="10"/>
<path d="M93.8866 162.853C99.5904 159.423 102.507 153.803 100.401 150.301C98.2945 146.799 91.9634 146.74 86.2596 150.17C80.5559 153.599 77.6394 159.219 79.7456 162.722C81.8517 166.224 88.1829 166.283 93.8866 162.853Z" fill="white" stroke="#2D2D2D" stroke-width="0.7" stroke-miterlimit="10"/>
<path d="M40.995 163.925C48.681 159.304 51.457 154.531 52.566 151.007C53.629 147.622 53.4739 144.373 55.7739 143.275C57.8319 142.292 59.435 144.227 64.642 144.502C67.491 144.653 70.234 144.802 71.551 143.186C73.114 141.271 72.084 137.586 70.751 135.386C67.069 129.301 56.9069 127.586 49.1749 129.271C41.1659 131.013 36.006 136.34 30.866 141.645C24.309 148.414 24.384 151.322 19.046 156.107C13.7436 160.708 7.31329 163.817 0.41394 165.116" fill="white"/>
<path d="M40.995 163.925C48.681 159.304 51.457 154.531 52.566 151.007C53.629 147.622 53.4739 144.373 55.7739 143.275C57.8319 142.292 59.435 144.227 64.642 144.502C67.491 144.653 70.234 144.802 71.551 143.186C73.114 141.271 72.084 137.586 70.751 135.386C67.069 129.301 56.9069 127.586 49.1749 129.271C41.1659 131.013 36.006 136.34 30.866 141.645C24.309 148.414 24.384 151.322 19.046 156.107C13.7436 160.708 7.31329 163.817 0.41394 165.116" stroke="#2D2D2D" stroke-width="0.7" stroke-miterlimit="10" stroke-linecap="round"/>
<path d="M82.0107 141.963C86.7243 139.129 88.8381 133.992 86.732 130.49C84.6258 126.987 79.0973 126.446 74.3837 129.28C69.6701 132.115 67.5564 137.252 69.6625 140.754C71.7686 144.256 77.2971 144.798 82.0107 141.963Z" fill="white" stroke="#2D2D2D" stroke-width="0.7" stroke-miterlimit="10"/>
<path d="M87.405 153.543C93.1442 150.091 96.0895 144.454 93.9833 140.952C91.8772 137.45 85.5172 137.408 79.778 140.859C74.0388 144.31 71.0935 149.947 73.1997 153.45C75.3058 156.952 81.6657 156.994 87.405 153.543Z" fill="white" stroke="#2D2D2D" stroke-width="0.7" stroke-miterlimit="10"/>
<path d="M42.0599 186.109C36.2196 184.119 30.0296 183.363 23.882 183.889C20.1729 184.173 16.5582 185.197 13.251 186.9C9.94373 188.603 7.01086 190.951 4.625 193.805" stroke="#2D2D2D" stroke-width="0.7" stroke-miterlimit="10" stroke-linecap="round"/>
<path d="M55.486 102.004C57.0192 102.004 58.262 100.761 58.262 99.228C58.262 97.6949 57.0192 96.452 55.486 96.452C53.9529 96.452 52.71 97.6949 52.71 99.228C52.71 100.761 53.9529 102.004 55.486 102.004Z" fill="#DCEDF9" stroke="#2D2D2D" stroke-width="0.7" stroke-miterlimit="10"/>
<path d="M60.579 118.747C62.7865 118.747 64.576 116.958 64.576 114.75C64.576 112.543 62.7865 110.753 60.579 110.753C58.3715 110.753 56.582 112.543 56.582 114.75C56.582 116.958 58.3715 118.747 60.579 118.747Z" fill="#DCEDF9" stroke="#2D2D2D" stroke-width="0.7" stroke-miterlimit="10"/>
<path d="M62.187 88.2061C64.8954 88.2061 67.091 86.0105 67.091 83.3021C67.091 80.5937 64.8954 78.3981 62.187 78.3981C59.4786 78.3981 57.283 80.5937 57.283 83.3021C57.283 86.0105 59.4786 88.2061 62.187 88.2061Z" fill="#DCEDF9" stroke="#2D2D2D" stroke-width="0.7" stroke-miterlimit="10"/>
<path d="M53.832 59.1511C55.7153 59.1511 57.242 57.6243 57.242 55.7411C57.242 53.8578 55.7153 52.3311 53.832 52.3311C51.9487 52.3311 50.422 53.8578 50.422 55.7411C50.422 57.6243 51.9487 59.1511 53.832 59.1511Z" fill="#DCEDF9" stroke="#2D2D2D" stroke-width="0.7" stroke-miterlimit="10"/>
<path d="M223.471 168.181H229.124Z" fill="white"/>
<path d="M223.471 168.181H229.124" stroke="#2D2D2D" stroke-width="0.7" stroke-miterlimit="10" stroke-linecap="round"/>
<path d="M223.471 171.723H229.124Z" fill="white"/>
<path d="M223.471 171.723H229.124" stroke="#2D2D2D" stroke-width="0.7" stroke-miterlimit="10" stroke-linecap="round"/>
<path d="M223.471 176.014H229.124Z" fill="white"/>
<path d="M223.471 176.014H229.124" stroke="#2D2D2D" stroke-width="0.7" stroke-miterlimit="10" stroke-linecap="round"/>
<path d="M223.471 164.027H229.124Z" fill="white"/>
<path d="M223.471 164.027H229.124" stroke="#2D2D2D" stroke-width="0.7" stroke-miterlimit="10" stroke-linecap="round"/>
<path d="M202.221 186.276H210.054Z" fill="white"/>
<path d="M202.221 186.276H210.054" stroke="#2D2D2D" stroke-width="0.7" stroke-miterlimit="10" stroke-linecap="round"/>
<path d="M202.221 190.907H210.054Z" fill="white"/>
<path d="M202.221 190.907H210.054" stroke="#2D2D2D" stroke-width="0.7" stroke-miterlimit="10" stroke-linecap="round"/>
<path d="M202.221 196.083H210.054Z" fill="white"/>
<path d="M202.221 196.083H210.054" stroke="#2D2D2D" stroke-width="0.7" stroke-miterlimit="10" stroke-linecap="round"/>
<path d="M202.221 201.26H210.054Z" fill="white"/>
<path d="M202.221 201.26H210.054" stroke="#2D2D2D" stroke-width="0.7" stroke-miterlimit="10" stroke-linecap="round"/>
<path d="M251.622 164.027H257.275Z" fill="white"/>
<path d="M251.622 164.027H257.275" stroke="#2D2D2D" stroke-width="0.7" stroke-miterlimit="10" stroke-linecap="round"/>
<path d="M251.622 170.111H257.275Z" fill="white"/>
<path d="M251.622 170.111H257.275" stroke="#2D2D2D" stroke-width="0.7" stroke-miterlimit="10" stroke-linecap="round"/>
<path d="M98.099 53.899C96.979 53.899 95.991 53.707 95.135 53.323C94.279 52.931 93.603 52.363 93.107 51.619C92.619 50.875 92.363 49.971 92.339 48.907H95.219C95.219 49.707 95.495 50.307 96.047 50.707C96.599 51.107 97.283 51.307 98.099 51.307C98.971 51.307 99.683 51.027 100.235 50.467C100.795 49.899 101.075 49.203 101.075 48.379C101.075 46.779 100.003 45.979 97.859 45.979H93.107L93.827 37.987H103.163V40.579H96.107L96.659 39.763L96.203 44.395L95.963 44.131C96.347 44.043 96.803 43.979 97.331 43.939C97.859 43.891 98.315 43.867 98.699 43.867C100.307 43.867 101.587 44.259 102.539 45.043C103.499 45.819 103.979 46.931 103.979 48.379C103.979 49.411 103.735 50.347 103.247 51.187C102.759 52.019 102.075 52.679 101.195 53.167C100.315 53.655 99.283 53.899 98.099 53.899ZM112.548 53.899C111.268 53.899 110.14 53.603 109.164 53.011C108.196 52.419 107.436 51.523 106.884 50.323C106.34 49.123 106.068 47.611 106.068 45.787C106.068 43.955 106.34 42.439 106.884 41.239C107.436 40.039 108.196 39.147 109.164 38.563C110.14 37.971 111.268 37.675 112.548 37.675C113.812 37.675 114.928 37.971 115.896 38.563C116.872 39.147 117.632 40.039 118.176 41.239C118.728 42.439 119.004 43.955 119.004 45.787C119.004 47.611 118.728 49.123 118.176 50.323C117.632 51.523 116.872 52.419 115.896 53.011C114.928 53.603 113.812 53.899 112.548 53.899ZM112.548 51.307C113.668 51.307 114.536 50.835 115.152 49.891C115.768 48.939 116.076 47.571 116.076 45.787C116.076 44.003 115.768 42.635 115.152 41.683C114.536 40.723 113.668 40.243 112.548 40.243C111.42 40.243 110.544 40.723 109.92 41.683C109.304 42.635 108.996 44.003 108.996 45.787C108.996 47.571 109.304 48.939 109.92 49.891C110.544 50.835 111.42 51.307 112.548 51.307ZM122.671 53.563L133.231 37.987H136.087L125.551 53.563H122.671ZM133.927 53.827C133.351 53.827 132.815 53.695 132.319 53.431C131.823 53.159 131.423 52.755 131.119 52.219C130.815 51.675 130.663 50.995 130.663 50.179C130.663 49.363 130.815 48.687 131.119 48.151C131.423 47.607 131.823 47.203 132.319 46.939C132.815 46.667 133.351 46.531 133.927 46.531C134.519 46.531 135.067 46.667 135.571 46.939C136.075 47.203 136.479 47.607 136.783 48.151C137.087 48.687 137.239 49.363 137.239 50.179C137.239 50.995 137.087 51.675 136.783 52.219C136.479 52.755 136.075 53.159 135.571 53.431C135.067 53.695 134.519 53.827 133.927 53.827ZM133.927 52.003C134.279 52.003 134.563 51.867 134.779 51.595C134.995 51.323 135.103 50.851 135.103 50.179C135.103 49.515 134.995 49.043 134.779 48.763C134.563 48.475 134.279 48.331 133.927 48.331C133.583 48.331 133.303 48.475 133.087 48.763C132.879 49.043 132.775 49.515 132.775 50.179C132.775 50.851 132.879 51.323 133.087 51.595C133.303 51.867 133.583 52.003 133.927 52.003ZM124.855 44.947C124.279 44.947 123.743 44.815 123.247 44.551C122.751 44.279 122.351 43.875 122.047 43.339C121.743 42.795 121.591 42.115 121.591 41.299C121.591 40.491 121.743 39.819 122.047 39.283C122.351 38.747 122.751 38.347 123.247 38.083C123.743 37.811 124.279 37.675 124.855 37.675C125.447 37.675 125.995 37.811 126.499 38.083C127.003 38.347 127.407 38.747 127.711 39.283C128.015 39.819 128.167 40.491 128.167 41.299C128.167 42.115 128.015 42.795 127.711 43.339C127.407 43.875 127.003 44.279 126.499 44.551C125.995 44.815 125.447 44.947 124.855 44.947ZM124.855 43.147C125.199 43.147 125.479 43.007 125.695 42.727C125.919 42.447 126.031 41.971 126.031 41.299C126.031 40.635 125.919 40.167 125.695 39.895C125.479 39.615 125.199 39.475 124.855 39.475C124.511 39.475 124.231 39.615 124.015 39.895C123.807 40.167 123.703 40.635 123.703 41.299C123.703 41.971 123.807 42.447 124.015 42.727C124.231 43.007 124.511 43.147 124.855 43.147Z" fill="#4B2BAC"/>
<path d="M149.346 38.449H153.762C155.282 38.449 156.602 38.761 157.722 39.385C158.842 40.001 159.71 40.873 160.326 42.001C160.942 43.129 161.25 44.457 161.25 45.985C161.25 47.497 160.942 48.817 160.326 49.945C159.71 51.073 158.842 51.953 157.722 52.585C156.602 53.209 155.282 53.521 153.762 53.521H149.346V38.449ZM151.218 40.105V51.889H153.762C154.898 51.889 155.874 51.633 156.69 51.121C157.514 50.609 158.146 49.909 158.586 49.021C159.034 48.125 159.258 47.113 159.258 45.985C159.258 44.849 159.034 43.841 158.586 42.961C158.146 42.073 157.514 41.377 156.69 40.873C155.874 40.361 154.898 40.105 153.762 40.105H151.218ZM166.246 39.337C165.862 39.337 165.558 39.229 165.334 39.013C165.11 38.789 164.998 38.497 164.998 38.137C164.998 37.785 165.11 37.505 165.334 37.297C165.558 37.089 165.862 36.985 166.246 36.985C166.63 36.985 166.934 37.089 167.158 37.297C167.382 37.505 167.494 37.785 167.494 38.137C167.494 38.497 167.382 38.789 167.158 39.013C166.934 39.229 166.63 39.337 166.246 39.337ZM165.31 53.521V42.025H167.182V53.521H165.31ZM176.466 53.809C175.354 53.809 174.426 53.653 173.682 53.341C172.938 53.021 172.374 52.585 171.99 52.033C171.606 51.473 171.402 50.833 171.378 50.113H173.178C173.218 50.841 173.51 51.389 174.054 51.757C174.606 52.117 175.354 52.297 176.298 52.297C176.794 52.297 177.25 52.217 177.666 52.057C178.082 51.897 178.414 51.677 178.662 51.397C178.91 51.117 179.034 50.801 179.034 50.449C179.034 50.001 178.87 49.649 178.542 49.393C178.214 49.137 177.69 48.913 176.97 48.721L174.738 48.001C173.77 47.697 173.026 47.281 172.506 46.753C171.994 46.217 171.738 45.577 171.738 44.833C171.738 43.905 172.146 43.161 172.962 42.601C173.778 42.041 174.85 41.761 176.178 41.761C177.586 41.761 178.678 42.049 179.454 42.625C180.23 43.201 180.634 43.921 180.666 44.785H178.818C178.746 44.281 178.49 43.901 178.05 43.645C177.61 43.381 176.986 43.249 176.178 43.249C175.402 43.249 174.794 43.425 174.354 43.777C173.922 44.121 173.706 44.505 173.706 44.929C173.706 45.721 174.386 46.305 175.746 46.681L178.026 47.449C179.01 47.745 179.762 48.133 180.282 48.613C180.81 49.093 181.074 49.705 181.074 50.449C181.074 51.025 180.886 51.569 180.51 52.081C180.134 52.593 179.602 53.009 178.914 53.329C178.226 53.649 177.41 53.809 176.466 53.809ZM188.98 53.809C188.06 53.809 187.2 53.561 186.4 53.065C185.608 52.569 184.968 51.869 184.48 50.965C183.992 50.061 183.748 48.993 183.748 47.761C183.748 46.497 183.992 45.417 184.48 44.521C184.968 43.625 185.608 42.941 186.4 42.469C187.2 41.997 188.06 41.761 188.98 41.761C189.628 41.761 190.208 41.861 190.72 42.061C191.24 42.253 191.692 42.521 192.076 42.865C192.46 43.209 192.776 43.601 193.024 44.041C193.28 44.473 193.468 44.929 193.588 45.409L191.668 45.577C191.468 44.913 191.132 44.389 190.66 44.005C190.196 43.613 189.628 43.417 188.956 43.417C188.388 43.417 187.852 43.581 187.348 43.909C186.852 44.229 186.448 44.713 186.136 45.361C185.824 46.001 185.668 46.801 185.668 47.761C185.668 48.649 185.808 49.421 186.088 50.077C186.376 50.725 186.768 51.229 187.264 51.589C187.76 51.949 188.324 52.129 188.956 52.129C189.844 52.129 190.516 51.913 190.972 51.481C191.436 51.041 191.668 50.433 191.668 49.657H193.588C193.588 50.457 193.4 51.169 193.024 51.793C192.648 52.417 192.112 52.909 191.416 53.269C190.728 53.629 189.916 53.809 188.98 53.809ZM201.475 53.809C200.443 53.809 199.523 53.581 198.715 53.125C197.915 52.669 197.283 51.993 196.819 51.097C196.355 50.201 196.123 49.097 196.123 47.785C196.123 46.465 196.355 45.361 196.819 44.473C197.283 43.577 197.915 42.901 198.715 42.445C199.523 41.989 200.443 41.761 201.475 41.761C202.499 41.761 203.411 41.989 204.211 42.445C205.019 42.901 205.651 43.577 206.107 44.473C206.571 45.361 206.803 46.465 206.803 47.785C206.803 49.097 206.571 50.201 206.107 51.097C205.651 51.993 205.019 52.669 204.211 53.125C203.411 53.581 202.499 53.809 201.475 53.809ZM201.427 52.177C202.171 52.177 202.803 52.001 203.323 51.649C203.843 51.289 204.235 50.781 204.499 50.125C204.771 49.469 204.907 48.689 204.907 47.785C204.907 46.417 204.623 45.341 204.055 44.557C203.487 43.765 202.643 43.369 201.523 43.369C200.771 43.369 200.135 43.549 199.615 43.909C199.103 44.261 198.711 44.769 198.439 45.433C198.175 46.089 198.043 46.873 198.043 47.785C198.043 49.137 198.327 50.209 198.895 51.001C199.471 51.785 200.315 52.177 201.427 52.177ZM218.248 42.025H220.12V53.521H218.248V42.025ZM210.112 42.025H211.984V49.177C211.984 50.137 212.216 50.865 212.68 51.361C213.152 51.857 213.824 52.105 214.696 52.105C215.416 52.105 216.04 51.913 216.568 51.529C217.104 51.145 217.516 50.617 217.804 49.945C218.1 49.265 218.248 48.489 218.248 47.617H218.944C218.944 48.905 218.756 50.005 218.38 50.917C218.012 51.829 217.488 52.529 216.808 53.017C216.136 53.497 215.344 53.737 214.432 53.737C213.568 53.737 212.812 53.577 212.164 53.257C211.516 52.937 211.012 52.453 210.652 51.805C210.292 51.149 210.112 50.321 210.112 49.321V42.025ZM233.139 53.521V46.777C233.139 45.681 232.875 44.849 232.347 44.281C231.827 43.705 231.115 43.417 230.211 43.417C229.523 43.417 228.927 43.605 228.423 43.981C227.919 44.357 227.531 44.897 227.259 45.601C226.987 46.297 226.851 47.129 226.851 48.097H226.131C226.131 46.761 226.307 45.621 226.659 44.677C227.011 43.733 227.523 43.013 228.195 42.517C228.875 42.013 229.699 41.761 230.667 41.761C231.571 41.761 232.343 41.965 232.983 42.373C233.631 42.773 234.127 43.349 234.471 44.101C234.815 44.853 234.987 45.745 234.987 46.777V53.521H233.139ZM224.979 53.521V42.049H226.587L226.851 44.689V53.521H224.979ZM242.991 53.809C242.367 53.809 241.807 53.689 241.311 53.449C240.815 53.209 240.423 52.849 240.135 52.369C239.847 51.889 239.703 51.289 239.703 50.569V38.857H241.551V50.521C241.551 51.705 242.103 52.297 243.207 52.297C243.535 52.297 243.851 52.261 244.155 52.189C244.467 52.117 244.815 52.009 245.199 51.865L245.463 53.209C245.055 53.385 244.647 53.529 244.239 53.641C243.839 53.753 243.423 53.809 242.991 53.809ZM237.855 43.345V42.049H245.175V43.345H237.855Z" fill="#4B2BAC"/>
</g>
<defs>
<clipPath id="clip0_834_1781">
<rect width="322.435" height="246.756" fill="white"/>
</clipPath>
</defs>
</svg>
