<?xml version="1.0" encoding="UTF-8"?>
<svg width="150px" height="35px" viewBox="0 0 150 35" version="1.1" xmlns="http://www.w3.org/2000/svg" xmlns:xlink="http://www.w3.org/1999/xlink">
    <!-- Generator: Sketch 57.1 (83088) - https://sketch.com -->
    <title>mdpi/Logo</title>
    <desc>Created with Sketch.</desc>
    <defs>
        <polygon id="path-1" points="0 0.0967788162 36.0226747 0.0967788162 36.0226747 34.8909657 0 34.8909657"></polygon>
        <polygon id="path-3" points="0.0744541485 0.105741433 11.4092795 0.105741433 11.4092795 15.9678287 0.0744541485 15.9678287"></polygon>
    </defs>
    <g id="new-colors" stroke="none" stroke-width="1" fill="none" fill-rule="evenodd">
        <g id="-Distop-Menu--New-colors-" transform="translate(-17.000000, -89.000000)">
            <g id="Group-25" transform="translate(17.000000, 73.000000)">
                <g id="Logo" transform="translate(0.000000, 16.000000)">
                    <g id="Group-3" transform="translate(0.000000, 0.012321)">
                        <mask id="mask-2" fill="white">
                            <use xlink:href="#path-1"></use>
                        </mask>
                        <g id="Clip-2"></g>
                        <path d="M18.0117576,0.0967788162 C8.0655786,0.0967788162 -3.27510917e-05,6.62520561 -3.27510917e-05,14.6786947 C-3.27510917e-05,21.1612181 5.22867904,26.6556729 12.45881,28.5498162 C11.3890502,32.0344424 7.63206332,34.8910312 7.63206332,34.8910312 C11.2463646,33.6645047 14.873548,31.1237882 16.2334825,29.1873396 C16.8187445,29.2323707 17.4108843,29.2571215 18.0117576,29.2571215 C27.9593559,29.2571215 36.0226747,22.7304393 36.0226747,14.6786947 C36.0226747,6.62520561 27.9593559,0.0967788162 18.0117576,0.0967788162" id="Fill-1" fill="#03A62C" mask="url(#mask-2)"></path>
                    </g>
                    <path d="M24.0861681,24.135662 C22.8554913,24.135662 21.7368231,23.3776558 20.5518886,22.5745093 C19.1595306,21.6298364 17.5851856,20.5606464 15.5525437,20.5286994 C15.2312555,20.7658489 14.8002511,20.9540421 14.5295087,20.9688707 C14.4761245,20.9718146 14.4314738,20.9806464 14.3862773,20.9895872 C14.3157533,21.0029984 14.2364956,21.0192445 14.1281987,21.0192445 C13.8721943,21.0192445 13.4381332,20.944447 12.1563646,20.3820483 C10.9715393,19.8604283 9.82677948,18.7765187 8.93289301,17.3308333 C8.91651747,17.3051012 8.90396288,17.2856931 8.89872271,17.2760981 C8.66509825,16.93831 8.12656114,16.0579673 8.15985808,15.1591978 C8.19774017,14.2129984 8.69326419,13.7233255 8.90549127,13.5144159 L8.94402838,13.476581 C9.17929039,13.2394315 9.44260917,13.2151168 9.54501092,13.2151168 L9.57317686,13.2151168 C9.64151747,13.2179517 9.70963974,13.2239486 9.77492358,13.2312539 C9.83431223,13.2364875 9.89075328,13.2424844 9.9425,13.2445561 L10.0093122,13.2445561 C10.2349672,13.2445561 10.3781987,13.3743069 10.4908624,13.6757866 C10.5405349,13.8077181 10.6118231,14.0063785 10.6888974,14.2145249 C10.828417,14.5953816 11.0004694,15.0672819 11.0286354,15.1273598 C11.0575655,15.1911449 11.1443559,15.3799922 11.0272162,15.5904283 L11.0035262,15.6348053 C10.9470852,15.7401324 10.9011245,15.8238707 10.8016703,15.9334502 L10.7075655,16.0372508 C10.6318013,16.1208801 10.5546179,16.2091978 10.4900983,16.2684034 C10.3810371,16.3683879 10.3632424,16.3979361 10.4173908,16.4958489 C10.5145524,16.6809891 10.8736135,17.3241822 11.418155,17.8472196 C12.0019978,18.4119081 12.5095306,18.6541822 12.7809279,18.7830607 C12.8358406,18.8111916 12.8796179,18.8304907 12.9122598,18.8497897 C12.9767795,18.8853349 13.0293996,18.9037617 13.0658624,18.9037617 C13.0903166,18.9037617 13.1206659,18.8971106 13.1690284,18.8445561 C13.2937009,18.7126246 13.6735044,18.2999299 13.8033079,18.122204 C13.8981769,17.9910358 14.0080022,17.9265966 14.1378057,17.9265966 C14.2306004,17.9265966 14.3180459,17.9584346 14.4064738,17.9939798 C14.6118231,18.0783723 15.7106223,18.6777336 15.7209934,18.6838396 L15.8189192,18.7370483 C15.9725218,18.8186059 16.082238,18.8765031 16.138679,18.9800857 C16.2009061,19.0934813 16.1793996,19.3549455 16.1260153,19.5958022 C18.1624782,19.7914097 19.7158624,20.8420639 21.0898799,21.7749611 C22.1937009,22.5225 23.1462118,23.1694003 24.0795087,23.1694003 C24.4207751,23.1694003 24.7464301,23.0848988 25.0757969,22.9129517 C25.6003603,22.6343692 26.2109498,22.003824 26.2012336,21.135366 C26.1915175,20.1263629 25.306583,19.1008956 23.7071288,18.239852 C22.3553821,19.3178738 20.232238,19.3098053 17.5919541,18.2155374 C17.4650983,18.1636371 17.3687009,18.0590732 17.3225218,17.9330296 C16.5690284,17.600366 15.7818013,17.1863629 14.9821288,16.7024688 C12.8900983,15.4376713 11.7832205,14.2010047 11.497631,12.8080919 C11.2838755,11.7663785 11.5584389,10.6496495 12.3128057,9.49235981 C12.252107,9.3316433 12.2720852,9.15075545 12.3715393,9.00781153 L12.6164083,8.66260903 C12.7759061,8.43810748 13.1148799,8.37661215 13.34119,8.53591121 L13.3641157,8.5536838 C13.4754694,8.63218847 13.5511245,8.74929128 13.5748144,8.88634735 C13.5986135,9.02492991 13.568155,9.16274922 13.487369,9.27450935 L13.2439192,9.62058411 C13.158548,9.74357477 13.0228493,9.82066199 12.8723035,9.8369081 C12.2083297,10.8521262 11.9626965,11.8079206 12.1408624,12.6776869 C12.3879148,13.8765187 13.398941,14.9775467 15.3233952,16.1437773 C16.0986135,16.6083723 16.8574563,17.0092913 17.5823472,17.3307243 C17.7010153,17.2780607 17.8405349,17.2759891 17.9613865,17.3277804 C20.3866048,18.3301324 22.2583297,18.3390732 23.3005786,17.3166589 C24.6122598,16.0067212 24.0765611,13.6965031 23.3985044,11.9856464 C23.348941,11.8611293 23.3533079,11.7262539 23.4088755,11.6083879 C23.1002511,10.8787305 22.713024,10.113419 22.2560371,9.33088006 C21.123286,7.39181464 20.0393341,6.36340343 18.8427183,6.09735981 C17.9257969,5.89063084 16.8997052,6.1619081 15.8062555,6.89461838 C15.7935917,7.04792056 15.7149891,7.19173676 15.5888974,7.27994548 L15.2439192,7.52145639 C15.0169541,7.68151869 14.677107,7.62144081 14.5183734,7.39628505 C14.4233952,7.2628271 14.3930459,7.12369938 14.4167358,6.9866433 C14.4412991,6.85111371 14.5160808,6.7301947 14.6296179,6.65103583 L14.9753603,6.40930685 C15.1111681,6.3130296 15.2914083,6.29002336 15.4480677,6.3448676 C16.6921725,5.5128271 17.8909716,5.213419 18.986714,5.45656542 C20.373941,5.76622274 21.5935917,6.89167445 22.8236135,9.00116044 C23.296976,9.81248442 23.6981769,10.6045093 24.0157533,11.3588084 C24.141845,11.4055841 24.2428275,11.5026246 24.2939192,11.6307399 C25.2902074,14.1417991 25.3229585,16.1727804 24.3882424,17.5139019 C26.6611681,18.8037773 27.1552729,20.1850234 27.1657523,21.1252259 C27.1725218,21.8794159 26.8512336,22.6388396 26.2836572,23.2041822 C26.0587664,23.4302103 25.8029803,23.6176402 25.5247052,23.7651636 C25.0513428,24.0126713 24.5810371,24.135662 24.0861681,24.135662" id="Fill-4" fill="#FFFFFF"></path>
                    <path d="M11.5723581,12.7652196 C11.8571834,14.1588956 12.9648253,15.3970888 15.0568559,16.661014 C15.8558734,17.1433816 16.6431004,17.558366 17.3982314,17.8910296 C17.4435371,18.0185997 17.5391703,18.1206558 17.6668996,18.1740826 C20.3070742,19.2678053 22.4303275,19.2751106 23.7820742,18.1985062 C24.1477948,17.9141449 24.5557642,17.5250016 24.4630786,17.4732103 C25.3970306,16.1297991 25.365262,14.1004533 24.3696288,11.5893941 C24.3176638,11.4611698 24.2168996,11.3634751 24.0905895,11.3166994 C23.7731223,10.5631636 23.3724672,9.77179283 22.898559,8.95828816 C21.6685371,6.8510919 20.4488865,5.72411371 19.0608952,5.41358411 C17.9651528,5.17207321 16.7670087,5.47213551 15.5229039,6.30341277 C15.3656987,6.24867757 15.1861135,6.27092056 15.0496507,6.36796106 L14.7039083,6.60947196 C14.5911354,6.68873988 14.5153712,6.80802336 14.4916812,6.94442523 C14.4679913,7.08224455 14.4975764,7.2201729 14.5926638,7.35406698 C14.7513974,7.58009502 15.0911354,7.6401729 15.3189738,7.47934735 L15.6630786,7.23925389 C15.7900437,7.15039097 15.8686463,7.00810125 15.8805459,6.85392679 C16.9739956,6.12110748 17.9999782,5.84928505 18.9177729,6.05677726 C20.1136245,6.32205763 21.1982314,7.34970561 22.3303275,9.28877103 C22.7873144,10.0719642 23.1754148,10.8380389 23.4840393,11.5664969 C23.4283624,11.6842539 23.4237773,11.8197835 23.474214,11.9428832 C24.1508515,13.6536308 24.6879694,15.964067 23.3756332,17.2746589 C22.3333843,18.2971822 20.4616594,18.2883505 18.0365502,17.2866526 C17.9148253,17.2347523 17.7760699,17.236933 17.6566376,17.2880701 C16.9326201,16.9688178 16.1729039,16.5678988 15.3976856,16.0997056 C13.4741048,14.93631 12.4620961,13.8368084 12.2165721,12.6350327 C12.0377511,11.7650483 12.2833843,10.8107804 12.9473581,9.79578037 C13.0971397,9.77942523 13.234476,9.70157477 13.319738,9.57716667 L13.5623144,9.23403583 C13.6424454,9.12140343 13.673559,8.98292991 13.649869,8.84511059 C13.6254148,8.70718224 13.5504148,8.59095171 13.4384061,8.51081153 L13.4154803,8.49456542 C13.1892795,8.33526636 12.8508515,8.39687072 12.6913537,8.62202648 L12.4472489,8.96515732 C12.3463755,9.10744704 12.3270524,9.29029751 12.3879694,9.45188629 C11.6325109,10.6076495 11.3579476,11.7249237 11.5723581,12.7652196" id="Fill-6" fill="#FFFFFF"></path>
                    <path d="M13.1251528,8.53216044 C12.9931659,8.53216044 12.8662009,8.59518224 12.7950218,8.6952757 L12.550917,9.03971495 C12.4767904,9.14504206 12.4596507,9.28122586 12.5064847,9.40585202 L12.5294105,9.46582087 L12.4953493,9.52066511 C11.758559,10.649933 11.4901092,11.7325343 11.6978603,12.7394657 C11.9744978,14.0953069 13.0628166,15.3059143 15.1237336,16.5530483 C15.9219869,17.0339984 16.7039738,17.4450576 17.4487336,17.7754315 L17.4999345,17.796257 L17.5177293,17.8488115 C17.5516812,17.9422539 17.6238428,18.0185779 17.7157642,18.0548863 C20.294476,19.1254938 22.3939301,19.1431573 23.7026638,18.0992632 C24.011179,17.8591698 24.2308297,17.6430639 24.3139083,17.535338 L24.2783188,17.5139673 L24.3575764,17.4005717 C25.2665284,16.0965218 25.2286463,14.1019579 24.2506987,11.636148 C24.2137991,11.5442321 24.1387991,11.4716153 24.0453493,11.4368333 L23.9941485,11.4175343 L23.9725328,11.3663972 C23.6609607,10.6246371 23.2619432,9.83708255 22.7878166,9.02194237 C21.5763537,6.94592991 20.3826856,5.84032243 19.0325764,5.53884268 C17.9731878,5.30321963 16.8032096,5.60033801 15.5931659,6.40860903 L15.5405459,6.44491745 L15.4796288,6.42430997 C15.3624891,6.38124143 15.2229694,6.40130374 15.1236245,6.47173988 L14.7764629,6.71314174 C14.6926201,6.77398287 14.6354148,6.86502648 14.6177293,6.96730062 C14.5991703,7.07404517 14.6250437,7.18002648 14.6969869,7.2800109 C14.810524,7.44443458 15.0834498,7.4890296 15.244476,7.37487072 L15.5894541,7.13401402 C15.6830131,7.06804829 15.744476,6.95988629 15.7534279,6.84365576 L15.7579039,6.78128816 L15.8089956,6.74650623 C16.9323581,5.99591433 17.9991703,5.7196215 18.9456769,5.93147508 C20.1794105,6.20569626 21.29,7.25188006 22.44131,9.22649065 C22.9004803,10.013391 23.2914192,10.7845903 23.6008079,11.5174097 L23.6223144,11.56931 L23.5992795,11.6212103 C23.5577948,11.7078925 23.5556114,11.8063505 23.5927293,11.8946682 C24.2833406,13.6424875 24.8225328,16.0083131 23.4657642,17.3642632 C22.393821,18.4179704 20.4710044,18.4311636 17.9871616,17.4050421 C17.8974236,17.3656807 17.7942576,17.3672072 17.7074672,17.4065685 L17.6562664,17.427176 L17.6043013,17.4065685 C16.8801747,17.0842632 16.1160917,16.68269 15.3312664,16.2091542 C13.3735153,15.0259143 12.344476,13.8981729 12.0907642,12.660852 C11.9052838,11.7576121 12.1575764,10.7699798 12.8401092,9.72455919 L12.8726419,9.67473053 L12.933559,9.66895171 C13.0492795,9.65564953 13.150917,9.59709813 13.2139083,9.50518224 L13.4573581,9.15987072 C13.518821,9.0761324 13.5418559,8.97015109 13.5240611,8.86711371 C13.5063755,8.76418536 13.4491703,8.67379595 13.3653275,8.61611682 C13.2809389,8.55516667 13.2051747,8.53216044 13.1251528,8.53216044 M21.2307205,19.1283287 C20.1727511,19.1283287 18.9569214,18.846148 17.6178384,18.2896371 C17.4783188,18.2340296 17.3642358,18.1244502 17.299607,17.9865218 C16.5584498,17.6569112 15.7817031,17.2479237 14.9901092,16.7707897 C12.8660917,15.4859299 11.7392358,14.2220047 11.4462227,12.7925654 C11.2296288,11.7324252 11.498952,10.6016308 12.2466594,9.43180218 C12.1985153,9.24568069 12.2318122,9.049419 12.3424017,8.89164642 L12.5863974,8.54775234 C12.7793013,8.27516667 13.2155459,8.19655296 13.4885808,8.38921651 C13.6516812,8.50642835 13.7452402,8.65449688 13.7749345,8.82339097 C13.8052838,8.99610125 13.7676201,9.16728505 13.6665284,9.30663084 L13.4231878,9.65194237 C13.3312664,9.78670872 13.1873799,9.87862461 13.0227511,9.9126433 C12.4016812,10.878796 12.1724236,11.7879237 12.3409825,12.6111324 C12.579083,13.7722383 13.5716594,14.8457897 15.4633624,15.9914128 C16.2216594,16.4484844 16.960524,16.8375187 17.6616157,17.1518645 C17.7988428,17.1042165 17.9532096,17.112285 18.0867249,17.169528 C20.4577948,18.1489829 22.2953493,18.1565062 23.2863974,17.1842477 C24.543821,15.9268645 24.0178384,13.6647305 23.355393,11.9904003 C23.2990611,11.8532352 23.2961135,11.7050576 23.3450218,11.5680016 C23.0424017,10.8580794 22.6647817,10.1142477 22.2204585,9.35253427 C21.1075764,7.44759657 20.0498253,6.43924766 18.8902183,6.18127259 C18.025917,5.98566511 17.0458952,6.23993302 15.9999345,6.92663084 C15.9693668,7.09421651 15.8736245,7.24751869 15.7365066,7.34314174 L15.3924017,7.58465265 C15.1178384,7.77873364 14.6808297,7.70088318 14.4887991,7.42753427 C14.3775546,7.27128816 14.3351965,7.09716044 14.3655459,6.92445016 C14.3960044,6.75261215 14.4894541,6.60356231 14.6312664,6.50357788 L14.9768996,6.26348442 C15.1237336,6.16055607 15.3226419,6.12130374 15.5021179,6.16491745 C16.7528821,5.34105452 17.9754803,5.04469938 19.0883624,5.28915421 C20.5142358,5.60775234 21.7589956,6.75261215 23.0083406,8.8938271 C23.4786463,9.70078972 23.8747162,10.4832196 24.1885808,11.2211636 C24.3228603,11.2848396 24.4311572,11.4011791 24.4875983,11.5412882 C25.4868341,14.0588894 25.5261354,16.1150576 24.6033188,17.4923785 C24.6048472,17.6895125 24.1412009,18.0822539 23.8599782,18.2985779 C23.1713319,18.8497461 22.2863974,19.1283287 21.2307205,19.1283287" id="Fill-8" fill="#FFFFFF"></path>
                    <path d="M52.7720415,13.4542944 C52.5006441,12.6414439 52.1088319,11.9530016 51.5963865,11.3894034 C51.0836135,10.8259143 50.463417,10.3934844 49.7356878,10.0923318 C49.0075218,9.79117913 48.1868886,9.6406028 47.2740066,9.6406028 L43.6431114,9.6406028 L43.6431114,22.7782508 L47.2740066,22.7782508 C48.1868886,22.7782508 49.0075218,22.6281106 49.7356878,22.3268489 C50.463417,22.0258053 51.0836135,21.5933754 51.5963865,21.0297773 C52.1088319,20.4662882 52.5006441,19.7781729 52.7720415,18.9648863 C53.0432205,18.1519268 53.1791376,17.2335312 53.1791376,16.2095903 C53.1791376,15.1860857 53.0432205,14.26769 52.7720415,13.4542944 Z M56.0609061,19.9780327 C55.6041376,21.1223474 54.9626528,22.1073629 54.1356878,22.9334065 C53.3086135,23.7593411 52.3133079,24.4004626 51.1504258,24.8563349 C49.9875437,25.3125343 48.6951856,25.5401978 47.2740066,25.5401978 L40.1541376,25.5401978 L40.1541376,6.87898287 L47.2740066,6.87898287 C48.6951856,6.87898287 49.9875437,7.10937227 51.1504258,7.56927882 C52.3133079,8.0296215 53.3086135,8.67063396 54.1356878,9.4923162 C54.9626528,10.3141075 55.6041376,11.2969424 56.0609061,12.441257 C56.5173472,13.5855717 56.7457314,14.8416464 56.7457314,16.2095903 C56.7457314,17.5775343 56.5173472,18.833609 56.0609061,19.9780327 Z" id="Fill-10" fill="#03A62C"></path>
                    <path d="M72.2326201,17.7531121 C72.2326201,16.8831277 72.115262,16.1024424 71.8812009,15.4111651 C71.6467031,14.720215 71.3136245,14.1335016 70.8816376,13.6505888 C70.4495415,13.167785 69.924214,12.798704 69.305655,12.5426916 C68.6867686,12.2866791 67.9891703,12.1586729 67.2132969,12.1586729 C66.4370961,12.1586729 65.7394978,12.2866791 65.1209389,12.5426916 C64.5022707,12.798704 63.9750873,13.167785 63.5392795,13.6505888 C63.1033624,14.1335016 62.7684279,14.720215 62.5343668,15.4111651 C62.299869,16.1024424 62.1828384,16.8831277 62.1828384,17.7531121 C62.1828384,18.6234237 62.299869,19.4042181 62.5343668,20.0950592 C62.7684279,20.7864455 63.1033624,21.3713053 63.5392795,21.8502928 C63.9750873,22.3293894 64.5022707,22.6969439 65.1209389,22.9528474 C65.7394978,23.2088598 66.4370961,23.3365389 67.2132969,23.3365389 C67.9891703,23.3365389 68.6867686,23.2088598 69.305655,22.9528474 C69.924214,22.6969439 70.4495415,22.3293894 70.8816376,21.8502928 C71.3136245,21.3713053 71.6467031,20.7864455 71.8812009,20.0950592 C72.115262,19.4042181 72.2326201,18.6234237 72.2326201,17.7531121 M75.2531441,17.7531121 C75.2531441,18.9158536 75.0610044,19.992785 74.6765066,20.9837975 C74.2920087,21.97481 73.7483406,22.8321464 73.045393,23.556134 C72.3423362,24.2803396 71.4967031,24.8452461 70.5082751,25.2511807 C69.519738,25.6568972 68.4212664,25.85981 67.2132969,25.85981 C66.0123144,25.85981 64.9175546,25.6568972 63.9291266,25.2511807 C62.9406987,24.8452461 62.0931004,24.2803396 61.3865502,23.556134 C60.6798908,22.8321464 60.1326201,21.97481 59.7446288,20.9837975 C59.3564192,19.992785 59.1625328,18.9158536 59.1625328,17.7531121 C59.1625328,16.5903707 59.3564192,15.5138754 59.7446288,14.5228629 C60.1326201,13.5317414 60.6798908,12.674514 61.3865502,11.9501994 C62.0931004,11.2263209 62.9406987,10.6614143 63.9291266,10.2554798 C64.9175546,9.84976324 66.0123144,9.64652336 67.2132969,9.64652336 C68.0186463,9.64652336 68.7765066,9.74007477 69.4867686,9.92641433 C70.1970306,10.112972 70.848559,10.3762897 71.4417904,10.7161495 C72.0350218,11.0564455 72.5676638,11.4695763 73.0399345,11.9558692 C73.5119869,12.442271 73.9129694,12.9852617 74.2425546,13.5847321 C74.5721397,14.1845296 74.8231223,14.8351371 74.9949563,15.5373178 C75.1668996,16.2393894 75.2531441,16.9782056 75.2531441,17.7531121" id="Fill-12" fill="#03A62C"></path>
                    <path d="M88.7626965,21.9434735 C88.9238319,21.9434735 89.0666266,22.0058411 89.1909716,22.1300312 L90.3554913,23.3916667 C89.7109498,24.1888162 88.918155,24.7996262 87.9773253,25.2235514 C87.0363865,25.6478037 85.9068013,25.8597664 84.5891157,25.8597664 C83.4102948,25.8597664 82.3501419,25.6588162 81.4093122,25.2564798 C80.4683734,24.8541433 79.6645524,24.2945794 78.9983952,23.5778972 C78.332238,22.861324 77.8215393,22.0058411 77.46619,21.0110125 C77.1109498,20.0165109 76.9336572,18.9304206 76.9336572,17.7530685 C76.9336572,16.561324 77.123941,15.4697819 77.5046179,14.4787695 C77.8852948,13.487757 78.4216485,12.6339097 79.1138974,11.9172274 C79.8057096,11.2006542 80.6311463,10.6429439 81.5904258,10.2444237 C82.5495961,9.84590343 83.6113865,9.64658879 84.7759061,9.64658879 C85.9324563,9.64658879 86.9593122,9.83707165 87.8563646,10.2171651 C88.7535262,10.5973676 89.5167358,11.0947819 90.1467576,11.7088629 L89.1583297,13.0799688 C89.0995961,13.1681776 89.0243777,13.2448287 88.9331114,13.3106854 C88.8414083,13.3765421 88.7150983,13.4092523 88.5539629,13.4092523 C88.4442467,13.4092523 88.3306004,13.3780685 88.2135699,13.316028 C88.0962118,13.2539875 87.9680459,13.1770093 87.8290721,13.0857477 C87.6898799,12.994486 87.5287445,12.8937383 87.3456659,12.7840498 C87.1626965,12.6744704 86.9503603,12.5737227 86.7087664,12.482243 C86.4669541,12.3909813 86.1871507,12.3140031 85.8687009,12.2518536 C85.5502511,12.189704 85.182238,12.1587383 84.7647707,12.1587383 C84.0541812,12.1587383 83.4045087,12.285109 82.8152074,12.5371963 C82.2257969,12.7895016 81.7185917,13.1550935 81.2940284,13.634081 C80.8693559,14.1131776 80.5397707,14.6980374 80.3056004,15.3890966 C80.0712118,16.0803738 79.9541812,16.8682555 79.9541812,17.7530685 C79.9541812,18.645296 80.0803821,19.4389564 80.332893,20.1337227 C80.5854039,20.8284891 80.9276528,21.413785 81.3597489,21.8889564 C81.7917358,22.3641277 82.3006878,22.7281931 82.8864956,22.9804984 C83.4721943,23.2325857 84.102107,23.3586293 84.7759061,23.3586293 C85.178417,23.3586293 85.5426092,23.3368224 85.8683734,23.2927726 C86.1941376,23.2491589 86.4942467,23.1793769 86.7689192,23.0844081 C87.0437009,22.9893302 87.3035262,22.8669938 87.5490502,22.7168536 C87.7942467,22.5670405 88.0378057,22.3822274 88.2796179,22.1630685 C88.3525437,22.0971028 88.4296179,22.0442212 88.5101856,22.0039875 C88.5907533,21.9637539 88.6748144,21.9434735 88.7626965,21.9434735" id="Fill-14" fill="#03A62C"></path>
                    <path d="M101.608755,12.7070826 C101.520546,12.8607118 101.427314,12.9723629 101.328734,13.0415997 C101.229607,13.1113816 101.107227,13.1458364 100.960611,13.1458364 C100.80679,13.1458364 100.640306,13.0892477 100.460721,12.975743 C100.281245,12.8623474 100.067052,12.7363037 99.8184716,12.5975031 C99.569345,12.4588115 99.2780786,12.3322227 98.9451092,12.2188271 C98.6120306,12.1054315 98.2182533,12.0487336 97.7646507,12.0487336 C97.3544978,12.0487336 96.9957642,12.0981262 96.6881223,12.1970202 C96.380262,12.2959143 96.1224017,12.4327523 95.9137773,12.6082975 C95.7050437,12.7837336 95.5495852,12.9941698 95.4471834,13.2390607 C95.344345,13.4842788 95.2931441,13.7529393 95.2931441,14.0453692 C95.2931441,14.4185935 95.3975109,14.7294502 95.6063537,14.9777212 C95.8150873,15.2264283 96.0913974,15.4385 96.4355022,15.6139361 C96.7794978,15.7895903 97.1712009,15.9469268 97.6105022,16.0857274 C98.0498035,16.2248551 98.5002402,16.3730327 98.9615939,16.5301511 C99.4228384,16.6873785 99.8732751,16.870229 100.312576,17.0787025 C100.751878,17.287176 101.14369,17.5503847 101.487904,17.8685467 C101.83179,18.1865997 102.108319,18.5759611 102.317052,19.0366308 C102.525786,19.4971916 102.630153,20.0567555 102.630153,20.7147773 C102.630153,21.4315685 102.507336,22.1025654 102.26214,22.7278769 C102.016616,23.3534065 101.657882,23.8980327 101.185939,24.3624097 C100.713559,24.8268956 100.136921,25.1924875 99.4561354,25.4592944 C98.7750218,25.7259922 97.9953275,25.8597773 97.1166157,25.8597773 C96.6113755,25.8597773 96.1132314,25.8102757 95.6228384,25.7117087 C95.1321179,25.6129237 94.6615939,25.4722695 94.2111572,25.289419 C93.7607205,25.1066776 93.3379039,24.8870826 92.9425983,24.6310701 C92.5474017,24.3751667 92.1958734,24.089933 91.888559,23.7753692 L92.7561354,22.3604315 C92.8290611,22.2581573 92.9242576,22.1722383 93.0416157,22.1025654 C93.1587555,22.0331106 93.2829913,21.9983287 93.4149782,21.9983287 C93.5980568,21.9983287 93.795655,22.0733442 94.0082096,22.2231573 C94.2204367,22.3734065 94.4729476,22.5397928 94.7659607,22.7225343 C95.0588646,22.9052757 95.4011135,23.071771 95.7929258,23.2215841 C96.1846288,23.3717243 96.6550437,23.4465218 97.2044978,23.4465218 C98.0464192,23.4465218 98.6979476,23.2472072 99.1591921,22.8486869 C99.6204367,22.4500576 99.8513319,21.8778458 99.8513319,21.1318333 C99.8513319,20.7147773 99.7469651,20.3748084 99.5382314,20.1115997 C99.3294978,19.848609 99.0532969,19.6274875 98.7089738,19.4481262 C98.364869,19.2688738 97.9730568,19.1170981 97.5337555,18.9927991 C97.094345,18.8687181 96.6478384,18.7335156 96.1937991,18.5870826 C95.739869,18.4406495 95.2931441,18.2652134 94.853952,18.0605561 C94.4146507,17.8558988 94.0228384,17.5886558 93.6785153,17.2595903 C93.3344105,16.930634 93.0581004,16.5191386 92.849476,16.0255405 C92.6407424,15.5318333 92.5365939,14.922986 92.5365939,14.1991075 C92.5365939,13.6212259 92.6517686,13.0581729 92.8823362,12.5097305 C93.1130131,11.9612882 93.4479476,11.4749953 93.8872489,11.050852 C94.3266594,10.6264907 94.8684716,10.2866308 95.5131223,10.0306184 C96.1573362,9.77449688 96.8968559,9.64659969 97.7316812,9.64659969 C98.66869,9.64659969 99.5328821,9.79292368 100.323712,10.0853536 C101.114214,10.3782196 101.788013,10.7875343 102.344672,11.3140607 L101.608755,12.7070826 Z" id="Fill-16" fill="#03A62C"></path>
                    <path d="M110.275753,18.4937819 L116.232413,18.4937819 L113.958068,12.286243 C113.846168,12.0111495 113.729793,11.6861184 113.609159,11.3119128 C113.488635,10.9377072 113.368111,10.5314455 113.247587,10.0922555 C113.126627,10.5314455 113.008286,10.9399969 112.89191,11.3185639 C112.775426,11.6973489 112.661561,12.0282679 112.549662,12.3119751 L110.275753,18.4937819 Z M122.370404,25.5402305 L119.682631,25.5402305 C119.381103,25.5402305 119.135469,25.4649969 118.94595,25.3144206 C118.75643,25.1638442 118.614509,24.9767414 118.519749,24.7530031 L117.123897,20.9459626 L109.383832,20.9459626 L107.988417,24.7530031 C107.919421,24.9510093 107.785797,25.1317882 107.587653,25.2950125 C107.389509,25.4586729 107.143985,25.5402305 106.851299,25.5402305 L104.137762,25.5402305 L111.490164,6.87901558 L115.030775,6.87901558 L122.370404,25.5402305 Z" id="Fill-18" fill="#03A62C"></path>
                    <path d="M127.968908,17.7968785 L130.176878,17.7968785 C130.718581,17.7968785 131.190633,17.7293863 131.593472,17.5941838 C131.996419,17.4587632 132.331354,17.2649003 132.598384,17.0128131 C132.865633,16.7605078 133.065087,16.4532492 133.197074,16.0910374 C133.329061,15.7292617 133.395,15.3250717 133.395,14.8789034 C133.395,14.4550872 133.329061,14.0710685 133.197074,13.7272835 C133.065087,13.3838255 132.867489,13.0911776 132.603843,12.8496667 C132.340197,12.6082648 132.007118,12.4235607 131.604607,12.2955545 C131.201659,12.1675483 130.725895,12.1035452 130.176878,12.1035452 L127.968908,12.1035452 L127.968908,17.7968785 Z M127.968908,20.1005545 L127.968908,25.6841994 L125.014432,25.6841994 L125.014432,9.82211215 L130.176878,9.82211215 C131.238231,9.82211215 132.157118,9.94662928 132.933428,10.1950093 C133.709629,10.4438255 134.350459,10.7909907 134.855808,11.2370498 C135.36083,11.6832181 135.736048,12.2169408 135.981354,12.8385452 C136.22655,13.4602586 136.349258,14.1404143 136.349258,14.8789034 C136.349258,15.6469408 136.221092,16.350866 135.96476,16.9908972 C135.708537,17.6309283 135.324367,18.1811153 134.811703,18.6418941 C134.299039,19.1025639 133.656463,19.4608505 132.883865,19.7167539 C132.111485,19.9728754 131.209083,20.1005545 130.176878,20.1005545 L127.968908,20.1005545 Z" id="Fill-20" fill="#03A62C"></path>
                    <g id="Group-24" transform="translate(138.537118, 9.716371)">
                        <mask id="mask-4" fill="white">
                            <use xlink:href="#path-3"></use>
                        </mask>
                        <g id="Clip-23"></g>
                        <path d="M3.0290393,8.08050779 L5.23689956,8.08050779 C5.77871179,8.08050779 6.25076419,8.01301558 6.65349345,7.87781308 C7.05644105,7.74239252 7.39137555,7.5485296 7.65851528,7.29644237 C7.92565502,7.04413707 8.12521834,6.7368785 8.25709607,6.37466667 C8.38908297,6.01289097 8.45502183,5.60870093 8.45502183,5.16253271 C8.45502183,4.73871651 8.38908297,4.35469782 8.25709607,4.01091277 C8.12521834,3.66745483 7.92751092,3.37480685 7.66386463,3.13329595 C7.40032751,2.89189408 7.06713974,2.70719003 6.66473799,2.5791838 C6.26179039,2.45117757 5.7860262,2.38717445 5.23689956,2.38717445 L3.0290393,2.38717445 L3.0290393,8.08050779 Z M3.0290393,10.3841838 L3.0290393,15.9678287 L0.0744541485,15.9678287 L0.0744541485,0.105741433 L5.23689956,0.105741433 C6.29825328,0.105741433 7.21724891,0.230258567 7.99355895,0.478638629 C8.76975983,0.727454829 9.41048035,1.07461994 9.91582969,1.52067913 C10.4208515,1.96684735 10.7960699,2.50057009 11.0413755,3.12217445 C11.2865721,3.74388785 11.4093886,4.42404361 11.4093886,5.16253271 C11.4093886,5.93057009 11.2811135,6.63449533 11.0247817,7.27452648 C10.768559,7.91455763 10.3843886,8.46474455 9.87172489,8.92552336 C9.35906114,9.38619315 8.71648472,9.74447975 7.94399563,10.0003832 C7.17150655,10.2565047 6.2691048,10.3841838 5.23689956,10.3841838 L3.0290393,10.3841838 Z" id="Fill-22" fill="#03A62C" mask="url(#mask-4)"></path>
                    </g>
                </g>
            </g>
        </g>
    </g>
</svg>