<svg width="218" height="56" viewBox="0 0 218 56" fill="none" xmlns="http://www.w3.org/2000/svg">
<g clip-path="url(#clip0_833_150)">
<path d="M190 0H28C12.536 0 0 12.536 0 28C0 43.464 12.536 56 28 56H190C205.464 56 218 43.464 218 28C218 12.536 205.464 0 190 0Z" fill="#0099EF"/>
<path d="M37.714 33V18.722H43.478C44.578 18.722 45.491 18.8943 46.217 19.239C46.943 19.5763 47.4857 20.031 47.845 20.603C48.2043 21.175 48.384 21.8093 48.384 22.506C48.384 23.3127 48.1567 24.002 47.702 24.574C47.2547 25.146 46.624 25.5493 45.81 25.784C46.3453 25.894 46.8257 26.0957 47.251 26.389C47.6763 26.6823 48.01 27.0527 48.252 27.5C48.5013 27.9473 48.626 28.4607 48.626 29.04C48.626 29.4947 48.5453 29.953 48.384 30.415C48.23 30.877 47.9587 31.306 47.57 31.702C47.1887 32.0907 46.6643 32.406 45.997 32.648C45.337 32.8827 44.5047 33 43.5 33H37.714ZM40.31 30.734H43.434C44.2627 30.734 44.8677 30.569 45.249 30.239C45.6377 29.9017 45.832 29.4507 45.832 28.886C45.832 28.3213 45.634 27.8703 45.238 27.533C44.842 27.1883 44.2407 27.016 43.434 27.016H40.31V30.734ZM40.31 20.966V24.75H43.368C44.138 24.75 44.721 24.5813 45.117 24.244C45.5203 23.8993 45.722 23.43 45.722 22.836C45.722 22.2713 45.524 21.8203 45.128 21.483C44.7393 21.1383 44.16 20.966 43.39 20.966H40.31ZM59.0856 22.286H61.6816V33H59.0856V22.286ZM51.7596 22.286H54.3556V28.842C54.3556 29.5387 54.528 30.063 54.8726 30.415C55.2173 30.7597 55.6903 30.932 56.2916 30.932C56.805 30.932 57.2706 30.8 57.6886 30.536C58.114 30.2647 58.4513 29.8687 58.7006 29.348C58.9573 28.82 59.0856 28.1673 59.0856 27.39H59.7896C59.7896 28.6953 59.621 29.777 59.2836 30.635C58.9463 31.493 58.4806 32.1347 57.8866 32.56C57.2926 32.9853 56.607 33.198 55.8296 33.198C55.067 33.198 54.3776 33.0623 53.7616 32.791C53.1456 32.5197 52.658 32.0833 52.2986 31.482C51.9393 30.8807 51.7596 30.0887 51.7596 29.106V22.286ZM64.1446 22.33H67.0926L69.9306 30.734H69.4686L71.9106 22.33H74.5506L70.4586 34.936C70.0406 36.1973 69.5236 37.1103 68.9076 37.675C68.2989 38.2397 67.5546 38.522 66.6746 38.522C66.1686 38.522 65.6736 38.4633 65.1896 38.346C64.7129 38.236 64.2253 38.06 63.7266 37.818V35.53C64.1299 35.7793 64.5186 35.9627 64.8926 36.08C65.2739 36.1973 65.6553 36.256 66.0366 36.256C66.3813 36.256 66.6819 36.1607 66.9386 35.97C67.2026 35.7867 67.4299 35.5263 67.6206 35.189C67.8113 34.859 67.9726 34.474 68.1046 34.034L68.4346 33L64.1446 22.33ZM82.423 18.722H86.141L90.167 27.456H89.947L93.973 18.722H97.559V33H94.941V21.714H95.337L90.893 31.438H89.199L84.777 21.758H85.019V33H82.423V18.722ZM105.633 33.308C104.724 33.308 103.892 33.0733 103.136 32.604C102.381 32.1347 101.776 31.4783 101.321 30.635C100.867 29.7843 100.639 28.7907 100.639 27.654C100.639 26.4807 100.863 25.4723 101.31 24.629C101.765 23.7857 102.37 23.1403 103.125 22.693C103.881 22.2457 104.717 22.022 105.633 22.022C106.484 22.022 107.217 22.1943 107.833 22.539C108.457 22.8763 108.955 23.3383 109.329 23.925C109.711 24.5043 109.967 25.1607 110.099 25.894C110.231 26.6273 110.239 27.3827 110.121 28.16H102.707V26.752H108.284L107.778 27.082C107.8 26.7373 107.782 26.389 107.723 26.037C107.672 25.685 107.569 25.3623 107.415 25.069C107.261 24.7757 107.041 24.541 106.755 24.365C106.477 24.1817 106.117 24.09 105.677 24.09C105.149 24.09 104.702 24.222 104.335 24.486C103.969 24.75 103.69 25.1093 103.499 25.564C103.309 26.0187 103.213 26.532 103.213 27.104V28.138C103.213 28.7393 103.301 29.271 103.477 29.733C103.661 30.195 103.928 30.558 104.28 30.822C104.64 31.086 105.091 31.218 105.633 31.218C106.139 31.218 106.565 31.1007 106.909 30.866C107.254 30.6313 107.474 30.2793 107.569 29.81H110.188C110.077 30.4993 109.817 31.108 109.406 31.636C109.003 32.1567 108.479 32.5673 107.833 32.868C107.188 33.1613 106.455 33.308 105.633 33.308ZM117.256 33.308C116.361 33.308 115.543 33.0733 114.803 32.604C114.069 32.1273 113.483 31.4637 113.043 30.613C112.61 29.755 112.394 28.754 112.394 27.61C112.394 26.4807 112.603 25.498 113.021 24.662C113.446 23.8187 114.011 23.1697 114.715 22.715C115.426 22.253 116.214 22.022 117.08 22.022C117.872 22.022 118.557 22.2127 119.137 22.594C119.716 22.968 120.16 23.5253 120.468 24.266C120.776 25.0067 120.93 25.916 120.93 26.994H120.116C120.116 26.4367 120.002 25.9637 119.775 25.575C119.547 25.179 119.247 24.8783 118.873 24.673C118.506 24.4603 118.106 24.354 117.674 24.354C117.153 24.354 116.691 24.4897 116.288 24.761C115.892 25.0323 115.58 25.4137 115.353 25.905C115.125 26.389 115.012 26.9573 115.012 27.61C115.012 28.2847 115.125 28.8713 115.353 29.37C115.58 29.8687 115.892 30.2573 116.288 30.536C116.691 30.8147 117.146 30.954 117.652 30.954C118.062 30.954 118.455 30.844 118.829 30.624C119.21 30.3967 119.518 30.0813 119.753 29.678C119.995 29.2747 120.116 28.8053 120.116 28.27H120.93C120.93 29.392 120.761 30.327 120.424 31.075C120.094 31.8157 119.65 32.373 119.093 32.747C118.535 33.121 117.923 33.308 117.256 33.308ZM120.6 33L120.116 30.36V17.908H122.734V33H120.6ZM128.349 20.372C127.843 20.372 127.447 20.24 127.161 19.976C126.883 19.7047 126.743 19.3307 126.743 18.854C126.743 18.392 126.883 18.0253 127.161 17.754C127.447 17.4753 127.843 17.336 128.349 17.336C128.848 17.336 129.24 17.4753 129.526 17.754C129.812 18.0253 129.955 18.392 129.955 18.854C129.955 19.3307 129.812 19.7047 129.526 19.976C129.24 20.24 128.848 20.372 128.349 20.372ZM127.051 33V22.286H129.647V33H127.051ZM138.098 33.308C137.203 33.308 136.371 33.077 135.601 32.615C134.838 32.1457 134.219 31.4893 133.742 30.646C133.273 29.7953 133.038 28.798 133.038 27.654C133.038 26.444 133.273 25.421 133.742 24.585C134.219 23.7417 134.838 23.1037 135.601 22.671C136.371 22.2383 137.203 22.022 138.098 22.022C138.795 22.022 139.407 22.1357 139.935 22.363C140.47 22.583 140.925 22.8837 141.299 23.265C141.673 23.639 141.966 24.057 142.179 24.519C142.392 24.981 142.527 25.4467 142.586 25.916L139.968 25.982C139.851 25.5127 139.631 25.124 139.308 24.816C138.993 24.508 138.582 24.354 138.076 24.354C137.658 24.354 137.266 24.4713 136.899 24.706C136.532 24.9333 136.232 25.289 135.997 25.773C135.77 26.257 135.656 26.884 135.656 27.654C135.656 28.3873 135.762 28.9997 135.975 29.491C136.195 29.975 136.488 30.3417 136.855 30.591C137.222 30.833 137.629 30.954 138.076 30.954C138.736 30.954 139.216 30.7963 139.517 30.481C139.818 30.1583 139.968 29.7293 139.968 29.194H142.586C142.586 29.9493 142.414 30.6387 142.069 31.262C141.724 31.8853 141.218 32.384 140.551 32.758C139.884 33.1247 139.066 33.308 138.098 33.308ZM147.212 20.372C146.706 20.372 146.31 20.24 146.024 19.976C145.746 19.7047 145.606 19.3307 145.606 18.854C145.606 18.392 145.746 18.0253 146.024 17.754C146.31 17.4753 146.706 17.336 147.212 17.336C147.711 17.336 148.103 17.4753 148.389 17.754C148.675 18.0253 148.818 18.392 148.818 18.854C148.818 19.3307 148.675 19.7047 148.389 19.976C148.103 20.24 147.711 20.372 147.212 20.372ZM145.914 33V22.286H148.51V33H145.914ZM160.239 33V26.752C160.239 25.96 160.049 25.3623 159.667 24.959C159.286 24.5557 158.787 24.354 158.171 24.354C157.651 24.354 157.189 24.497 156.785 24.783C156.389 25.069 156.078 25.5017 155.85 26.081C155.623 26.653 155.509 27.368 155.509 28.226H154.651C154.651 26.84 154.824 25.6887 155.168 24.772C155.513 23.848 156.001 23.1587 156.631 22.704C157.262 22.2493 158.003 22.022 158.853 22.022C159.733 22.022 160.467 22.22 161.053 22.616C161.647 23.0047 162.091 23.5547 162.384 24.266C162.685 24.9773 162.835 25.806 162.835 26.752V33H160.239ZM152.913 33V22.33H155.179L155.509 24.442V33H152.913ZM170.602 33.308C169.693 33.308 168.861 33.0733 168.105 32.604C167.35 32.1347 166.745 31.4783 166.29 30.635C165.836 29.7843 165.608 28.7907 165.608 27.654C165.608 26.4807 165.832 25.4723 166.279 24.629C166.734 23.7857 167.339 23.1403 168.094 22.693C168.85 22.2457 169.686 22.022 170.602 22.022C171.453 22.022 172.186 22.1943 172.802 22.539C173.426 22.8763 173.924 23.3383 174.298 23.925C174.68 24.5043 174.936 25.1607 175.068 25.894C175.2 26.6273 175.208 27.3827 175.09 28.16H167.676V26.752H173.253L172.747 27.082C172.769 26.7373 172.751 26.389 172.692 26.037C172.641 25.685 172.538 25.3623 172.384 25.069C172.23 24.7757 172.01 24.541 171.724 24.365C171.446 24.1817 171.086 24.09 170.646 24.09C170.118 24.09 169.671 24.222 169.304 24.486C168.938 24.75 168.659 25.1093 168.468 25.564C168.278 26.0187 168.182 26.532 168.182 27.104V28.138C168.182 28.7393 168.27 29.271 168.446 29.733C168.63 30.195 168.897 30.558 169.249 30.822C169.609 31.086 170.06 31.218 170.602 31.218C171.108 31.218 171.534 31.1007 171.878 30.866C172.223 30.6313 172.443 30.2793 172.538 29.81H175.156C175.046 30.4993 174.786 31.108 174.375 31.636C173.972 32.1567 173.448 32.5673 172.802 32.868C172.157 33.1613 171.424 33.308 170.602 33.308ZM182.268 33.308C181.242 33.308 180.358 33.1687 179.617 32.89C178.884 32.604 178.319 32.197 177.923 31.669C177.527 31.1337 177.326 30.492 177.318 29.744H179.716C179.738 30.272 179.947 30.657 180.343 30.899C180.739 31.141 181.278 31.262 181.96 31.262C182.334 31.262 182.664 31.207 182.95 31.097C183.244 30.987 183.471 30.8367 183.632 30.646C183.794 30.4553 183.874 30.2427 183.874 30.008C183.874 29.7073 183.764 29.4727 183.544 29.304C183.332 29.128 182.987 28.9667 182.51 28.82L180.178 27.984C179.342 27.6833 178.701 27.2873 178.253 26.796C177.806 26.3047 177.582 25.718 177.582 25.036C177.582 24.134 177.989 23.408 178.803 22.858C179.625 22.3007 180.721 22.022 182.092 22.022C183.456 22.022 184.509 22.3227 185.249 22.924C185.997 23.518 186.382 24.2733 186.404 25.19H183.962C183.926 24.838 183.757 24.5593 183.456 24.354C183.156 24.1487 182.701 24.046 182.092 24.046C181.542 24.046 181.11 24.1597 180.794 24.387C180.486 24.607 180.332 24.8673 180.332 25.168C180.332 25.674 180.765 26.0553 181.63 26.312L184.16 27.258C184.982 27.5367 185.62 27.896 186.074 28.336C186.529 28.776 186.756 29.3333 186.756 30.008C186.756 30.5727 186.566 31.108 186.184 31.614C185.81 32.1127 185.286 32.5197 184.611 32.835C183.937 33.1503 183.156 33.308 182.268 33.308Z" fill="white"/>
</g>
<defs>
<clipPath id="clip0_833_150">
<rect width="218" height="56" fill="white"/>
</clipPath>
</defs>
</svg>
