<svg width="269" height="253" viewBox="0 0 269 253" fill="none" xmlns="http://www.w3.org/2000/svg">
<g clip-path="url(#clip0_834_158)">
<path d="M179.85 178C229.003 178 268.85 138.153 268.85 89C268.85 39.8467 229.003 0 179.85 0C130.697 0 90.85 39.8467 90.85 89C90.85 138.153 130.697 178 179.85 178Z" fill="#DCEDF9"/>
<path d="M30.356 59.2471C32.923 78.6471 34.9789 99.3401 36.2559 121.202C38.074 152.314 38.1832 183.502 36.5829 214.626L204.42 214.955C203.82 187.78 204.296 158.39 206.388 127.102C207.988 103.172 210.373 80.5151 213.271 59.2471" stroke="#2D2D2D" stroke-width="0.7" stroke-miterlimit="10"/>
<path d="M35.6021 59.2471C38.1671 78.6471 40.223 99.3401 41.502 121.202C43.3205 152.314 43.4303 183.502 41.8309 214.626L209.666 214.955C209.066 187.78 209.544 158.39 211.634 127.102C213.234 103.172 215.618 80.5151 218.518 59.2471" stroke="#2D2D2D" stroke-width="0.7" stroke-miterlimit="10"/>
<path d="M188.513 240.39C180.387 236.964 182.413 224.73 182.427 197.285C182.439 170.8 180.558 159.126 188.513 155.735C190.836 154.745 195.678 154.763 205.364 154.8C214.254 154.835 218.697 154.853 220.718 155.735C228.975 159.335 226.152 172.12 226.148 197.829C226.148 223.815 229.024 236.802 220.718 240.39C218.747 241.242 214.098 241.242 204.802 241.246C195.301 241.248 190.552 241.25 188.513 240.39V240.39Z" fill="white" stroke="#2D2D2D" stroke-width="0.7" stroke-miterlimit="10" stroke-linecap="round"/>
<path d="M214.311 177.221C217.008 177.221 219.195 175.034 219.195 172.337C219.195 169.64 217.008 167.453 214.311 167.453C211.614 167.453 209.427 169.64 209.427 172.337C209.427 175.034 211.614 177.221 214.311 177.221Z" fill="#DCEDF9" stroke="#2D2D2D" stroke-width="0.7" stroke-miterlimit="10"/>
<path d="M195.468 177.221C198.165 177.221 200.352 175.034 200.352 172.337C200.352 169.64 198.165 167.453 195.468 167.453C192.771 167.453 190.584 169.64 190.584 172.337C190.584 175.034 192.771 177.221 195.468 177.221Z" fill="#DCEDF9" stroke="#2D2D2D" stroke-width="0.7" stroke-miterlimit="10"/>
<path d="M214.311 193.723C217.008 193.723 219.195 191.536 219.195 188.839C219.195 186.142 217.008 183.955 214.311 183.955C211.614 183.955 209.427 186.142 209.427 188.839C209.427 191.536 211.614 193.723 214.311 193.723Z" fill="#DCEDF9" stroke="#2D2D2D" stroke-width="0.7" stroke-miterlimit="10"/>
<path d="M195.468 193.723C198.165 193.723 200.352 191.536 200.352 188.839C200.352 186.142 198.165 183.955 195.468 183.955C192.771 183.955 190.584 186.142 190.584 188.839C190.584 191.536 192.771 193.723 195.468 193.723Z" fill="#DCEDF9" stroke="#2D2D2D" stroke-width="0.7" stroke-miterlimit="10"/>
<path d="M214.311 211.116C217.008 211.116 219.195 208.929 219.195 206.232C219.195 203.535 217.008 201.348 214.311 201.348C211.614 201.348 209.427 203.535 209.427 206.232C209.427 208.929 211.614 211.116 214.311 211.116Z" fill="#DCEDF9" stroke="#2D2D2D" stroke-width="0.7" stroke-miterlimit="10"/>
<path d="M195.468 211.116C198.165 211.116 200.352 208.929 200.352 206.232C200.352 203.535 198.165 201.348 195.468 201.348C192.771 201.348 190.584 203.535 190.584 206.232C190.584 208.929 192.771 211.116 195.468 211.116Z" fill="#DCEDF9" stroke="#2D2D2D" stroke-width="0.7" stroke-miterlimit="10"/>
<path d="M214.311 228.621C217.008 228.621 219.195 226.434 219.195 223.737C219.195 221.04 217.008 218.853 214.311 218.853C211.614 218.853 209.427 221.04 209.427 223.737C209.427 226.434 211.614 228.621 214.311 228.621Z" fill="#DCEDF9" stroke="#2D2D2D" stroke-width="0.7" stroke-miterlimit="10"/>
<path d="M195.468 228.621C198.165 228.621 200.352 226.434 200.352 223.737C200.352 221.04 198.165 218.853 195.468 218.853C192.771 218.853 190.584 221.04 190.584 223.737C190.584 226.434 192.771 228.621 195.468 228.621Z" fill="#DCEDF9" stroke="#2D2D2D" stroke-width="0.7" stroke-miterlimit="10"/>
<path d="M74.387 196.091H22.67C23.06 185.912 23.3951 173.011 23.4091 157.842H72.47C72.993 167.297 73.677 180.28 74.387 196.091Z" fill="white" stroke="#2D2D2D" stroke-width="0.7" stroke-miterlimit="10" stroke-linecap="round"/>
<path d="M75.286 221.614C75.219 230.573 74.026 236.392 69.573 239.679C66.825 241.704 60.7231 241.812 48.6121 241.905C35.8981 242.025 29.486 242.039 26.764 240.014C22.298 236.702 21.399 230.774 21.547 221.614H75.286Z" fill="white" stroke="#2D2D2D" stroke-width="0.7" stroke-miterlimit="10" stroke-linecap="round"/>
<path d="M16.947 150.261C19.403 145.421 28.167 146.63 47.833 146.637C66.809 146.643 75.172 145.523 77.603 150.261C78.313 151.643 78.303 154.527 78.272 160.294C78.246 165.588 78.234 168.235 77.603 169.438C75.02 174.355 65.863 172.673 47.443 172.671C28.822 172.671 19.519 174.384 16.943 169.438C16.334 168.263 16.332 165.497 16.33 159.961C16.333 154.303 16.331 151.476 16.947 150.261V150.261Z" fill="#0099EF" stroke="#2D2D2D" stroke-width="0.7" stroke-miterlimit="10"/>
<path d="M75.2849 221.612C57.4327 223.7 39.3982 223.7 21.546 221.612C21.735 217.377 21.978 211.36 22.188 207.127C22.35 203.921 22.525 200.232 22.671 196.088C30.697 195.321 39.5309 194.838 49.0599 194.856C58.1779 194.874 66.654 195.349 74.386 196.088C74.593 200.197 74.741 204.361 74.924 208.576C75.138 213.512 75.3149 217.845 75.2849 221.612V221.612Z" fill="#0099EF" stroke="#2D2D2D" stroke-width="0.7" stroke-miterlimit="10"/>
<path d="M21.546 221.619C21.627 217.475 21.909 212.672 22.188 207.134C22.35 203.928 22.525 200.24 22.671 196.095" fill="#0099EF"/>
<path d="M21.546 221.619C21.627 217.475 21.909 212.672 22.188 207.134C22.35 203.928 22.525 200.24 22.671 196.095" stroke="#2D2D2D" stroke-width="0.7" stroke-miterlimit="10"/>
<path d="M74.3871 196.091C74.5621 200.075 74.75 204.245 74.925 208.579C75.138 213.514 75.313 217.845 75.286 221.615" fill="#0099EF"/>
<path d="M74.3871 196.091C74.5621 200.075 74.75 204.245 74.925 208.579C75.138 213.514 75.313 217.845 75.286 221.615" stroke="#2D2D2D" stroke-width="0.7" stroke-miterlimit="10"/>
<path d="M56.804 205.91L53.804 205.876C53.5543 205.879 53.3138 205.783 53.1346 205.609C52.9555 205.435 52.8525 205.198 52.848 204.948L52.866 202.107C52.8558 201.325 52.5437 200.577 51.9951 200.019C51.4465 199.462 50.7038 199.138 49.9219 199.115C49.14 199.092 48.3794 199.372 47.7992 199.897C47.219 200.421 46.8638 201.15 46.808 201.93L46.788 204.875C46.7836 205 46.7546 205.123 46.7025 205.237C46.6504 205.351 46.5763 205.454 46.4845 205.539C46.3927 205.624 46.285 205.69 46.1675 205.734C46.05 205.777 45.9251 205.797 45.7999 205.792L42.618 205.758C41.8206 205.727 41.0433 206.013 40.4567 206.554C39.87 207.095 39.522 207.847 39.489 208.644C39.5115 209.442 39.8496 210.198 40.4291 210.747C41.0086 211.296 41.782 211.593 42.58 211.572L45.762 211.58C45.8872 211.577 46.012 211.598 46.1289 211.643C46.2458 211.689 46.3527 211.756 46.4434 211.843C46.534 211.929 46.6067 212.033 46.6572 212.147C46.7078 212.262 46.7353 212.386 46.738 212.511L46.718 215.376C46.7142 216.046 46.9405 216.696 47.3593 217.219C47.778 217.742 48.3635 218.105 49.0179 218.247C49.454 218.354 49.9086 218.364 50.3488 218.275C50.7889 218.185 51.2038 218 51.5636 217.731C51.9234 217.462 52.2191 217.117 52.4294 216.72C52.6398 216.323 52.7595 215.885 52.78 215.436L52.798 212.518C52.8056 212.268 52.9116 212.031 53.0929 211.859C53.2742 211.687 53.5161 211.594 53.766 211.599L56.766 211.607C57.5342 211.622 58.2773 211.333 58.8339 210.803C59.3905 210.274 59.7157 209.546 59.739 208.778C59.7259 208.01 59.4103 207.278 58.8608 206.741C58.3114 206.204 57.5722 205.905 56.804 205.91Z" fill="white" stroke="#2D2D2D" stroke-width="0.7" stroke-miterlimit="10" stroke-linecap="round"/>
<path d="M136.028 223.172C138.725 223.172 140.912 220.042 140.912 216.181C140.912 212.32 138.725 209.19 136.028 209.19C133.331 209.19 131.144 212.32 131.144 216.181C131.144 220.042 133.331 223.172 136.028 223.172Z" fill="#0099EF" stroke="#2D2D2D" stroke-width="0.7" stroke-miterlimit="10"/>
<path d="M117.185 223.172C119.882 223.172 122.069 220.042 122.069 216.181C122.069 212.32 119.882 209.19 117.185 209.19C114.488 209.19 112.301 212.32 112.301 216.181C112.301 220.042 114.488 223.172 117.185 223.172Z" fill="#0099EF" stroke="#2D2D2D" stroke-width="0.7" stroke-miterlimit="10"/>
<path d="M102.05 165.162H85.15C87.699 159.362 82.2989 151.562 86.1989 147.909C87.8489 146.359 90.499 146.309 93.75 146.259C97.05 146.21 100.25 146.21 102.101 148.01C105.65 151.61 100.298 158.857 102.05 165.162Z" fill="#DCEDF9" stroke="#2D2D2D" stroke-width="0.7" stroke-miterlimit="10"/>
<path d="M115.15 201.964C114.61 225.536 115.172 231.612 113.15 235.34C112.724 236.124 112.185 236.84 111.55 237.467C109.186 239.957 105.623 241.493 91.208 241.242C78.052 241.011 74.746 239.621 72.499 237.167C71.7308 236.342 71.0931 235.405 70.608 234.387C69.151 231.246 69.415 227.262 69.798 218.664C75.841 213.343 79.622 212.769 82.067 213.589C85.778 214.837 88.6441 220.05 91.1011 219.022C91.32 218.916 91.5222 218.779 91.701 218.614C94.051 216.664 94.501 213.764 95.001 210.263C95.801 204.663 95.772 199.932 92.701 197.063C91.972 196.383 90.554 195.34 82.291 194.636C78.2867 194.294 74.2668 194.169 70.249 194.263C70.149 181.763 70.001 174.911 75.001 171.212C78.751 168.412 82.001 169.912 84.401 166.512C84.6887 166.084 84.9399 165.633 85.152 165.163C87.8926 165.188 90.6557 165.201 93.441 165.202C96.335 165.202 99.2053 165.189 102.052 165.163C102.263 165.922 102.583 166.645 103.002 167.312C104.902 170.512 107.302 169.863 110.452 172.612C116.198 177.512 115.548 185.863 115.15 201.964V201.964Z" fill="white" stroke="#2D2D2D" stroke-width="0.7" stroke-miterlimit="10" stroke-linecap="round"/>
<path d="M96.781 208.463C96.581 213.875 96.4499 216.609 94.9969 218.051C93.1379 219.896 90.622 219.651 80.948 219.167C75.948 218.919 71.9909 218.755 69.7949 218.667C69.9949 214.217 70.2449 208.567 70.2949 201.167C70.2949 198.716 70.295 196.418 70.244 194.267C74.075 194.119 78.826 193.993 84.293 193.967C91.755 193.937 93.5329 194.135 94.9929 195.528C97.1839 197.612 97.049 201.227 96.781 208.463Z" fill="#DCEDF9" stroke="#2D2D2D" stroke-width="0.7" stroke-miterlimit="10"/>
<path d="M187.1 191.814C186.56 221.473 187.124 229.119 185.1 233.814C184.688 234.774 184.15 235.674 183.5 236.491C181.134 239.624 177.572 241.558 163.156 241.24C150 240.952 146.694 239.203 144.446 236.114C143.659 235.039 143.022 233.861 142.555 232.614C141.098 228.661 141.362 223.648 141.745 212.83C147.787 206.13 151.569 205.411 154.013 206.444C157.724 208.013 160.59 214.573 163.047 213.279C163.273 213.142 163.476 212.968 163.647 212.766C165.999 210.313 166.447 206.666 166.947 202.26C167.747 195.216 167.72 189.26 164.647 185.648C163.918 184.79 162.498 183.477 154.236 182.594C150.238 182.163 146.215 182.006 142.196 182.125C142.096 166.394 141.946 157.775 146.945 153.118C150.695 149.595 153.945 151.484 156.345 147.203C156.637 146.656 156.888 146.087 157.096 145.503C159.836 145.534 162.599 145.551 165.384 145.552C168.28 145.552 171.151 145.536 173.998 145.503C174.202 146.439 174.521 147.346 174.948 148.203C176.848 152.229 179.248 151.413 182.398 154.873C188.153 161.046 187.5 171.552 187.1 191.814V191.814Z" fill="white" stroke="#2D2D2D" stroke-width="0.7" stroke-miterlimit="10" stroke-linecap="round"/>
<path d="M168.733 199.989C168.533 206.799 168.402 210.241 166.949 212.055C165.09 214.375 162.574 214.062 152.9 213.455C147.9 213.142 143.945 212.937 141.747 212.826C141.947 207.226 142.198 200.118 142.247 190.804C142.247 187.721 142.247 184.826 142.198 182.121C146.029 181.936 150.778 181.774 156.245 181.748C163.707 181.711 165.485 181.959 166.945 183.712C169.137 186.334 169.001 190.887 168.733 199.989Z" fill="#0099EF" stroke="#2D2D2D" stroke-width="0.7" stroke-miterlimit="10"/>
<path d="M89.455 204.746C92.881 196.62 105.115 198.646 132.56 198.66C159.044 198.672 170.719 196.793 174.11 204.746C175.1 207.068 175.082 211.91 175.042 221.596C175.008 230.486 174.991 234.929 174.11 236.95C170.51 245.207 157.725 242.383 132.016 242.38C106.027 242.38 93.043 245.258 89.455 236.95C88.603 234.978 88.601 230.33 88.599 221.034C88.591 211.536 88.591 206.785 89.455 204.746Z" fill="white" stroke="#2D2D2D" stroke-width="0.7" stroke-miterlimit="10" stroke-linecap="round"/>
<path d="M157.1 145.505C156.553 143.171 156.255 140.785 156.209 138.388C156.148 135.18 156.118 133.577 157.1 132.422C157.569 131.87 158.565 131.032 165.984 131.083C172.878 131.132 173.815 131.868 174.3 132.422C175.489 133.778 175.39 135.665 175.221 138.889C175.102 141.138 174.692 143.361 174.003 145.505H157.1Z" fill="#0099EF" stroke="#2D2D2D" stroke-width="0.7" stroke-miterlimit="10"/>
<path d="M121.31 216.044C116.731 216.788 112.063 216.788 107.484 216.044C106.183 216.044 104.935 215.527 104.016 214.607C103.096 213.687 102.579 212.44 102.579 211.139C102.579 209.838 103.096 208.59 104.016 207.671C104.935 206.751 106.183 206.234 107.484 206.234C112.073 205.637 116.721 205.637 121.31 206.234C122.611 206.234 123.858 206.751 124.778 207.671C125.698 208.59 126.215 209.838 126.215 211.139C126.215 212.44 125.698 213.687 124.778 214.607C123.858 215.527 122.611 216.044 121.31 216.044Z" fill="#0099EF" stroke="#2D2D2D" stroke-width="0.7" stroke-miterlimit="10"/>
<path d="M157.434 216.044C152.856 216.788 148.188 216.788 143.61 216.044C142.966 216.044 142.328 215.917 141.733 215.671C141.138 215.424 140.597 215.063 140.141 214.608C139.686 214.152 139.325 213.611 139.078 213.016C138.832 212.421 138.705 211.783 138.705 211.139C138.705 210.495 138.832 209.857 139.078 209.262C139.325 208.667 139.686 208.126 140.141 207.671C140.597 207.215 141.138 206.854 141.733 206.608C142.328 206.361 142.966 206.234 143.61 206.234C148.199 205.637 152.845 205.637 157.434 206.234C158.078 206.234 158.716 206.361 159.311 206.608C159.906 206.854 160.447 207.215 160.902 207.671C161.358 208.126 161.719 208.667 161.966 209.262C162.212 209.857 162.339 210.495 162.339 211.139C162.339 211.783 162.212 212.421 161.966 213.016C161.719 213.611 161.358 214.152 160.902 214.608C160.447 215.063 159.906 215.424 159.311 215.671C158.716 215.917 158.078 216.044 157.434 216.044V216.044Z" fill="#0099EF" stroke="#2D2D2D" stroke-width="0.7" stroke-miterlimit="10"/>
<path d="M121.31 236.559C116.731 237.303 112.063 237.303 107.484 236.559C106.183 236.559 104.935 236.042 104.016 235.122C103.096 234.202 102.579 232.955 102.579 231.654C102.579 230.353 103.096 229.105 104.016 228.186C104.935 227.266 106.183 226.749 107.484 226.749C112.073 226.152 116.721 226.152 121.31 226.749C122.611 226.749 123.858 227.266 124.778 228.186C125.698 229.105 126.215 230.353 126.215 231.654C126.215 232.955 125.698 234.202 124.778 235.122C123.858 236.042 122.611 236.559 121.31 236.559V236.559Z" fill="#0099EF" stroke="#2D2D2D" stroke-width="0.7" stroke-miterlimit="10"/>
<path d="M157.434 236.559C152.856 237.303 148.188 237.303 143.61 236.559C142.966 236.559 142.328 236.432 141.733 236.186C141.138 235.939 140.597 235.578 140.141 235.122C139.686 234.667 139.325 234.126 139.078 233.531C138.832 232.936 138.705 232.298 138.705 231.654C138.705 231.01 138.832 230.372 139.078 229.777C139.325 229.182 139.686 228.641 140.141 228.186C140.597 227.73 141.138 227.369 141.733 227.122C142.328 226.876 142.966 226.749 143.61 226.749C148.199 226.152 152.845 226.152 157.434 226.749C158.078 226.749 158.716 226.876 159.311 227.122C159.906 227.369 160.447 227.73 160.902 228.186C161.358 228.641 161.719 229.182 161.966 229.777C162.212 230.372 162.339 231.01 162.339 231.654C162.339 232.298 162.212 232.936 161.966 233.531C161.719 234.126 161.358 234.667 160.902 235.122C160.447 235.578 159.906 235.939 159.311 236.186C158.716 236.432 158.078 236.559 157.434 236.559V236.559Z" fill="#0099EF" stroke="#2D2D2D" stroke-width="0.7" stroke-miterlimit="10"/>
<path d="M68.1589 239.679L47.413 239.746C50.7761 238.589 54.3183 238.039 57.874 238.123C61.3663 238.047 64.8454 238.574 68.1589 239.679V239.679Z" fill="#0099EF" stroke="#2D2D2D" stroke-width="0.7" stroke-miterlimit="10"/>
<path d="M71.307 236.837C71.307 237.923 70.1261 238.915 68.1681 239.68H68.1541C64.7961 240.839 61.2582 241.388 57.707 241.303C54.2098 241.38 50.7255 240.854 47.4071 239.747H47.394C45.476 239.023 44.269 238.097 44.108 237.064L44.094 236.837C44.094 234.369 50.184 232.383 57.707 232.383C65.23 232.383 71.307 234.368 71.307 236.837V236.837Z" fill="#0099EF" stroke="#2D2D2D" stroke-width="0.7" stroke-miterlimit="10"/>
<path d="M44.269 242.576C44.269 245.044 50.357 247.043 57.869 247.043C65.381 247.043 71.469 245.043 71.469 242.576L71.307 236.837C71.307 237.923 70.1261 238.915 68.1681 239.68H68.1541C64.7961 240.838 61.2582 241.388 57.707 241.303C54.2098 241.38 50.7255 240.854 47.4071 239.747H47.394C45.476 239.023 44.269 238.097 44.108 237.064L44.27 242.577L44.108 237.064L44.094 236.837" fill="#0099EF"/>
<path d="M44.269 242.576C44.269 245.044 50.357 247.043 57.869 247.043C65.381 247.043 71.469 245.043 71.469 242.576L71.307 236.837C71.307 237.923 70.1261 238.915 68.1681 239.68H68.1541C64.7961 240.838 61.2582 241.388 57.707 241.303C54.2098 241.38 50.7255 240.854 47.4071 239.747H47.394C45.476 239.023 44.269 238.097 44.108 237.064L44.27 242.577L44.108 237.064L44.094 236.837" stroke="#2D2D2D" stroke-width="0.7" stroke-miterlimit="10"/>
<path d="M104.458 241.894C104.458 242.98 103.279 243.972 101.321 244.737H101.307C97.9483 245.895 94.4097 246.445 90.8579 246.36C87.3607 246.437 83.8764 245.911 80.558 244.805H80.5439C78.6259 244.079 77.4189 243.155 77.2589 242.122L77.245 241.895C77.245 239.427 83.333 237.441 90.856 237.441C98.379 237.441 104.458 239.423 104.458 241.894V241.894Z" fill="#DCEDF9" stroke="#2D2D2D" stroke-width="0.7" stroke-miterlimit="10"/>
<path d="M77.4199 247.631C77.4199 250.099 83.51 252.096 91.02 252.096C98.53 252.096 104.62 250.096 104.62 247.631L104.458 241.892C104.458 242.978 103.279 243.97 101.321 244.735H101.307C97.9483 245.893 94.4097 246.443 90.8579 246.358C87.3607 246.435 83.8764 245.909 80.558 244.803H80.5439C78.6259 244.078 77.4189 243.153 77.2589 242.12L77.4189 247.632L77.2589 242.12L77.245 241.893" fill="#DCEDF9"/>
<path d="M77.4199 247.631C77.4199 250.099 83.51 252.096 91.02 252.096C98.53 252.096 104.62 250.096 104.62 247.631L104.458 241.892C104.458 242.978 103.279 243.97 101.321 244.735H101.307C97.9483 245.893 94.4097 246.443 90.8579 246.358C87.3607 246.435 83.8764 245.909 80.558 244.803H80.5439C78.6259 244.078 77.4189 243.153 77.2589 242.12L77.4189 247.632L77.2589 242.12L77.245 241.893" stroke="#2D2D2D" stroke-width="0.7" stroke-miterlimit="10"/>
<path d="M229.331 84.4321C193.714 85.4201 157.016 85.9121 119.239 85.9081C83.941 85.8761 49.5742 85.3841 16.1389 84.4321C12.4242 84.4201 8.8225 83.1545 5.91694 80.8401C4.61843 79.8007 3.56451 78.4883 2.83002 76.996C2.09553 75.5037 1.69848 73.868 1.66694 72.2051C-0.0872207 60.2357 -0.0872207 48.0745 1.66694 36.1051C1.7709 34.4565 2.19987 32.8447 2.92926 31.3626C3.65866 29.8804 4.67408 28.5573 5.91694 27.4691C8.79754 25.1094 12.4164 23.8382 16.14 23.8781C48.948 22.9655 82.6589 22.4728 117.273 22.4001C155.714 22.3454 193.067 22.8381 229.332 23.8781C233.046 23.889 236.649 25.1544 239.554 27.4691C240.853 28.5083 241.907 29.8208 242.642 31.3133C243.377 32.8058 243.774 34.4418 243.805 36.1051C245.556 48.0748 245.556 60.2354 243.805 72.2051C243.753 74.6364 242.918 76.9862 241.424 78.9051C240.871 79.6146 240.245 80.2632 239.555 80.8401C236.05 83.7621 231.34 84.3041 229.331 84.4321Z" fill="white" stroke="#2D2D2D" stroke-width="0.7" stroke-miterlimit="10"/>
<path d="M56.025 44.891H58.161V60.563H55.329V48.275C54.905 48.467 54.489 48.615 54.081 48.719C53.673 48.823 53.265 48.875 52.857 48.875V46.163C53.401 46.107 53.929 45.983 54.441 45.791C54.953 45.591 55.481 45.291 56.025 44.891ZM67.5317 60.899C66.4117 60.899 65.4237 60.707 64.5677 60.323C63.7117 59.931 63.0357 59.363 62.5397 58.619C62.0517 57.875 61.7957 56.971 61.7717 55.907H64.6517C64.6517 56.707 64.9277 57.307 65.4797 57.707C66.0317 58.107 66.7157 58.307 67.5317 58.307C68.4037 58.307 69.1157 58.027 69.6677 57.467C70.2277 56.899 70.5077 56.203 70.5077 55.379C70.5077 53.779 69.4357 52.979 67.2917 52.979H62.5397L63.2597 44.987H72.5957V47.579H65.5397L66.0917 46.763L65.6357 51.395L65.3957 51.131C65.7797 51.043 66.2357 50.979 66.7637 50.939C67.2917 50.891 67.7477 50.867 68.1317 50.867C69.7397 50.867 71.0197 51.259 71.9717 52.043C72.9317 52.819 73.4117 53.931 73.4117 55.379C73.4117 56.411 73.1677 57.347 72.6797 58.187C72.1917 59.019 71.5077 59.679 70.6277 60.167C69.7477 60.655 68.7157 60.899 67.5317 60.899ZM76.9164 60.563L87.4764 44.987H90.3324L79.7964 60.563H76.9164ZM88.1724 60.827C87.5964 60.827 87.0604 60.695 86.5644 60.431C86.0684 60.159 85.6684 59.755 85.3644 59.219C85.0604 58.675 84.9084 57.995 84.9084 57.179C84.9084 56.363 85.0604 55.687 85.3644 55.151C85.6684 54.607 86.0684 54.203 86.5644 53.939C87.0604 53.667 87.5964 53.531 88.1724 53.531C88.7644 53.531 89.3124 53.667 89.8164 53.939C90.3204 54.203 90.7244 54.607 91.0284 55.151C91.3324 55.687 91.4844 56.363 91.4844 57.179C91.4844 57.995 91.3324 58.675 91.0284 59.219C90.7244 59.755 90.3204 60.159 89.8164 60.431C89.3124 60.695 88.7644 60.827 88.1724 60.827ZM88.1724 59.003C88.5244 59.003 88.8084 58.867 89.0244 58.595C89.2404 58.323 89.3484 57.851 89.3484 57.179C89.3484 56.515 89.2404 56.043 89.0244 55.763C88.8084 55.475 88.5244 55.331 88.1724 55.331C87.8284 55.331 87.5484 55.475 87.3324 55.763C87.1244 56.043 87.0204 56.515 87.0204 57.179C87.0204 57.851 87.1244 58.323 87.3324 58.595C87.5484 58.867 87.8284 59.003 88.1724 59.003ZM79.1004 51.947C78.5244 51.947 77.9884 51.815 77.4924 51.551C76.9964 51.279 76.5964 50.875 76.2924 50.339C75.9884 49.795 75.8364 49.115 75.8364 48.299C75.8364 47.491 75.9884 46.819 76.2924 46.283C76.5964 45.747 76.9964 45.347 77.4924 45.083C77.9884 44.811 78.5244 44.675 79.1004 44.675C79.6924 44.675 80.2404 44.811 80.7444 45.083C81.2484 45.347 81.6524 45.747 81.9564 46.283C82.2604 46.819 82.4124 47.491 82.4124 48.299C82.4124 49.115 82.2604 49.795 81.9564 50.339C81.6524 50.875 81.2484 51.279 80.7444 51.551C80.2404 51.815 79.6924 51.947 79.1004 51.947ZM79.1004 50.147C79.4444 50.147 79.7244 50.007 79.9404 49.727C80.1644 49.447 80.2764 48.971 80.2764 48.299C80.2764 47.635 80.1644 47.167 79.9404 46.895C79.7244 46.615 79.4444 46.475 79.1004 46.475C78.7564 46.475 78.4764 46.615 78.2604 46.895C78.0524 47.167 77.9484 47.635 77.9484 48.299C77.9484 48.971 78.0524 49.447 78.2604 49.727C78.4764 50.007 78.7564 50.147 79.1004 50.147Z" fill="#4B2BAC"/>
<path d="M103.224 45.449H107.64C109.16 45.449 110.48 45.761 111.6 46.385C112.72 47.001 113.588 47.873 114.204 49.001C114.82 50.129 115.128 51.457 115.128 52.985C115.128 54.497 114.82 55.817 114.204 56.945C113.588 58.073 112.72 58.953 111.6 59.585C110.48 60.209 109.16 60.521 107.64 60.521H103.224V45.449ZM105.096 47.105V58.889H107.64C108.776 58.889 109.752 58.633 110.568 58.121C111.392 57.609 112.024 56.909 112.464 56.021C112.912 55.125 113.136 54.113 113.136 52.985C113.136 51.849 112.912 50.841 112.464 49.961C112.024 49.073 111.392 48.377 110.568 47.873C109.752 47.361 108.776 47.105 107.64 47.105H105.096ZM120.124 46.337C119.74 46.337 119.436 46.229 119.212 46.013C118.988 45.789 118.876 45.497 118.876 45.137C118.876 44.785 118.988 44.505 119.212 44.297C119.436 44.089 119.74 43.985 120.124 43.985C120.508 43.985 120.812 44.089 121.036 44.297C121.26 44.505 121.372 44.785 121.372 45.137C121.372 45.497 121.26 45.789 121.036 46.013C120.812 46.229 120.508 46.337 120.124 46.337ZM119.188 60.521V49.025H121.06V60.521H119.188ZM130.344 60.809C129.232 60.809 128.304 60.653 127.56 60.341C126.816 60.021 126.252 59.585 125.868 59.033C125.484 58.473 125.28 57.833 125.256 57.113H127.056C127.096 57.841 127.388 58.389 127.932 58.757C128.484 59.117 129.232 59.297 130.176 59.297C130.672 59.297 131.128 59.217 131.544 59.057C131.96 58.897 132.292 58.677 132.54 58.397C132.788 58.117 132.912 57.801 132.912 57.449C132.912 57.001 132.748 56.649 132.42 56.393C132.092 56.137 131.568 55.913 130.848 55.721L128.616 55.001C127.648 54.697 126.904 54.281 126.384 53.753C125.872 53.217 125.616 52.577 125.616 51.833C125.616 50.905 126.024 50.161 126.84 49.601C127.656 49.041 128.728 48.761 130.056 48.761C131.464 48.761 132.556 49.049 133.332 49.625C134.108 50.201 134.512 50.921 134.544 51.785H132.696C132.624 51.281 132.368 50.901 131.928 50.645C131.488 50.381 130.864 50.249 130.056 50.249C129.28 50.249 128.672 50.425 128.232 50.777C127.8 51.121 127.584 51.505 127.584 51.929C127.584 52.721 128.264 53.305 129.624 53.681L131.904 54.449C132.888 54.745 133.64 55.133 134.16 55.613C134.688 56.093 134.952 56.705 134.952 57.449C134.952 58.025 134.764 58.569 134.388 59.081C134.012 59.593 133.48 60.009 132.792 60.329C132.104 60.649 131.288 60.809 130.344 60.809ZM142.858 60.809C141.938 60.809 141.078 60.561 140.278 60.065C139.486 59.569 138.846 58.869 138.358 57.965C137.87 57.061 137.626 55.993 137.626 54.761C137.626 53.497 137.87 52.417 138.358 51.521C138.846 50.625 139.486 49.941 140.278 49.469C141.078 48.997 141.938 48.761 142.858 48.761C143.506 48.761 144.086 48.861 144.598 49.061C145.118 49.253 145.57 49.521 145.954 49.865C146.338 50.209 146.654 50.601 146.902 51.041C147.158 51.473 147.346 51.929 147.466 52.409L145.546 52.577C145.346 51.913 145.01 51.389 144.538 51.005C144.074 50.613 143.506 50.417 142.834 50.417C142.266 50.417 141.73 50.581 141.226 50.909C140.73 51.229 140.326 51.713 140.014 52.361C139.702 53.001 139.546 53.801 139.546 54.761C139.546 55.649 139.686 56.421 139.966 57.077C140.254 57.725 140.646 58.229 141.142 58.589C141.638 58.949 142.202 59.129 142.834 59.129C143.722 59.129 144.394 58.913 144.85 58.481C145.314 58.041 145.546 57.433 145.546 56.657H147.466C147.466 57.457 147.278 58.169 146.902 58.793C146.526 59.417 145.99 59.909 145.294 60.269C144.606 60.629 143.794 60.809 142.858 60.809ZM155.353 60.809C154.321 60.809 153.401 60.581 152.593 60.125C151.793 59.669 151.161 58.993 150.697 58.097C150.233 57.201 150.001 56.097 150.001 54.785C150.001 53.465 150.233 52.361 150.697 51.473C151.161 50.577 151.793 49.901 152.593 49.445C153.401 48.989 154.321 48.761 155.353 48.761C156.377 48.761 157.289 48.989 158.089 49.445C158.897 49.901 159.529 50.577 159.985 51.473C160.449 52.361 160.681 53.465 160.681 54.785C160.681 56.097 160.449 57.201 159.985 58.097C159.529 58.993 158.897 59.669 158.089 60.125C157.289 60.581 156.377 60.809 155.353 60.809ZM155.305 59.177C156.049 59.177 156.681 59.001 157.201 58.649C157.721 58.289 158.113 57.781 158.377 57.125C158.649 56.469 158.785 55.689 158.785 54.785C158.785 53.417 158.501 52.341 157.933 51.557C157.365 50.765 156.521 50.369 155.401 50.369C154.649 50.369 154.013 50.549 153.493 50.909C152.981 51.261 152.589 51.769 152.317 52.433C152.053 53.089 151.921 53.873 151.921 54.785C151.921 56.137 152.205 57.209 152.773 58.001C153.349 58.785 154.193 59.177 155.305 59.177ZM172.126 49.025H173.998V60.521H172.126V49.025ZM163.99 49.025H165.862V56.177C165.862 57.137 166.094 57.865 166.558 58.361C167.03 58.857 167.702 59.105 168.574 59.105C169.294 59.105 169.918 58.913 170.446 58.529C170.982 58.145 171.394 57.617 171.682 56.945C171.978 56.265 172.126 55.489 172.126 54.617H172.822C172.822 55.905 172.634 57.005 172.258 57.917C171.89 58.829 171.366 59.529 170.686 60.017C170.014 60.497 169.222 60.737 168.31 60.737C167.446 60.737 166.69 60.577 166.042 60.257C165.394 59.937 164.89 59.453 164.53 58.805C164.17 58.149 163.99 57.321 163.99 56.321V49.025ZM187.017 60.521V53.777C187.017 52.681 186.753 51.849 186.225 51.281C185.705 50.705 184.993 50.417 184.089 50.417C183.401 50.417 182.805 50.605 182.301 50.981C181.797 51.357 181.409 51.897 181.137 52.601C180.865 53.297 180.729 54.129 180.729 55.097H180.009C180.009 53.761 180.185 52.621 180.537 51.677C180.889 50.733 181.401 50.013 182.073 49.517C182.753 49.013 183.577 48.761 184.545 48.761C185.449 48.761 186.221 48.965 186.861 49.373C187.509 49.773 188.005 50.349 188.349 51.101C188.693 51.853 188.865 52.745 188.865 53.777V60.521H187.017ZM178.857 60.521V49.049H180.465L180.729 51.689V60.521H178.857ZM196.869 60.809C196.245 60.809 195.685 60.689 195.189 60.449C194.693 60.209 194.301 59.849 194.013 59.369C193.725 58.889 193.581 58.289 193.581 57.569V45.857H195.429V57.521C195.429 58.705 195.981 59.297 197.085 59.297C197.413 59.297 197.729 59.261 198.033 59.189C198.345 59.117 198.693 59.009 199.077 58.865L199.341 60.209C198.933 60.385 198.525 60.529 198.117 60.641C197.717 60.753 197.301 60.809 196.869 60.809ZM191.733 50.345V49.049H199.053V50.345H191.733Z" fill="#4B2BAC"/>
</g>
<defs>
<clipPath id="clip0_834_158">
<rect width="268.85" height="252.446" fill="white"/>
</clipPath>
</defs>
</svg>
