<svg xmlns="http://www.w3.org/2000/svg" width="23.4" height="23.4" viewBox="0 0 23.4 23.4">
    <defs>
        <style>
            .prefix__cls-1{fill-rule:evenodd}
        </style>
    </defs>
    <g id="prefix__noun_menu_2752417_1_" data-name="noun_menu_2752417 (1)" transform="translate(13.853 -106.518)">
        <g id="prefix__Group_54456" data-name="Group 54456" transform="translate(-13.853 106.518)">
            <path id="prefix__Path_121483" d="M105.611 104h3a1.607 1.607 0 0 1 1.135.476 1.607 1.607 0 0 1 .476 1.135v3a1.607 1.607 0 0 1-.476 1.135 1.607 1.607 0 0 1-1.135.476h-3a1.607 1.607 0 0 1-1.135-.476 1.607 1.607 0 0 1-.476-1.135v-3a1.607 1.607 0 0 1 .476-1.135 1.607 1.607 0 0 1 1.135-.476z" class="prefix__cls-1" data-name="Path 121483" transform="translate(-104 -104)"/>
            <path id="prefix__Path_121484" d="M339.611 104h3a1.607 1.607 0 0 1 1.135.476 1.607 1.607 0 0 1 .476 1.135v3a1.607 1.607 0 0 1-.476 1.135 1.607 1.607 0 0 1-1.135.476h-3a1.607 1.607 0 0 1-1.135-.476 1.607 1.607 0 0 1-.476-1.135v-3a1.607 1.607 0 0 1 .476-1.135 1.607 1.607 0 0 1 1.135-.476z" class="prefix__cls-1" data-name="Path 121484" transform="translate(-329.431 -104)"/>
            <path id="prefix__Path_121485" d="M574.611 104h3a1.607 1.607 0 0 1 1.135.476 1.607 1.607 0 0 1 .476 1.135v3a1.607 1.607 0 0 1-.476 1.135 1.607 1.607 0 0 1-1.135.476h-3a1.607 1.607 0 0 1-1.135-.476 1.607 1.607 0 0 1-.476-1.135v-3a1.607 1.607 0 0 1 .476-1.135 1.607 1.607 0 0 1 1.135-.476z" class="prefix__cls-1" data-name="Path 121485" transform="translate(-555.825 -104)"/>
            <path id="prefix__Path_121486" d="M105.611 338h3a1.607 1.607 0 0 1 1.135.476 1.607 1.607 0 0 1 .476 1.135v3a1.607 1.607 0 0 1-.476 1.135 1.607 1.607 0 0 1-1.135.476h-3a1.607 1.607 0 0 1-1.135-.476 1.607 1.607 0 0 1-.476-1.135v-3a1.607 1.607 0 0 1 .476-1.135 1.607 1.607 0 0 1 1.135-.476z" class="prefix__cls-1" data-name="Path 121486" transform="translate(-104 -329.431)"/>
            <path id="prefix__Path_121487" d="M339.611 338h3a1.607 1.607 0 0 1 1.135.476 1.607 1.607 0 0 1 .476 1.135v3a1.607 1.607 0 0 1-.476 1.135 1.607 1.607 0 0 1-1.135.476h-3a1.607 1.607 0 0 1-1.135-.476 1.607 1.607 0 0 1-.476-1.135v-3a1.607 1.607 0 0 1 .476-1.135 1.607 1.607 0 0 1 1.135-.476z" class="prefix__cls-1" data-name="Path 121487" transform="translate(-329.431 -329.431)"/>
            <path id="prefix__Path_121488" d="M574.611 338h3a1.607 1.607 0 0 1 1.135.476 1.607 1.607 0 0 1 .476 1.135v3a1.607 1.607 0 0 1-.476 1.135 1.607 1.607 0 0 1-1.135.476h-3a1.607 1.607 0 0 1-1.135-.476 1.607 1.607 0 0 1-.476-1.135v-3a1.607 1.607 0 0 1 .476-1.135 1.607 1.607 0 0 1 1.135-.476z" class="prefix__cls-1" data-name="Path 121488" transform="translate(-555.825 -329.431)"/>
            <path id="prefix__Path_121489" d="M105.611 573h3a1.607 1.607 0 0 1 1.135.476 1.607 1.607 0 0 1 .476 1.135v3a1.607 1.607 0 0 1-.476 1.135 1.607 1.607 0 0 1-1.135.476h-3a1.607 1.607 0 0 1-1.135-.476 1.607 1.607 0 0 1-.476-1.135v-3a1.607 1.607 0 0 1 .476-1.135 1.607 1.607 0 0 1 1.135-.476z" class="prefix__cls-1" data-name="Path 121489" transform="translate(-104 -555.825)"/>
            <path id="prefix__Path_121490" d="M339.611 573h3a1.607 1.607 0 0 1 1.135.476 1.607 1.607 0 0 1 .476 1.135v3a1.607 1.607 0 0 1-.476 1.135 1.607 1.607 0 0 1-1.135.476h-3a1.607 1.607 0 0 1-1.135-.476 1.607 1.607 0 0 1-.476-1.135v-3a1.607 1.607 0 0 1 .476-1.135 1.607 1.607 0 0 1 1.135-.476z" class="prefix__cls-1" data-name="Path 121490" transform="translate(-329.431 -555.825)"/>
            <path id="prefix__Path_121491" d="M574.611 573h3a1.607 1.607 0 0 1 1.135.476 1.607 1.607 0 0 1 .476 1.135v3a1.607 1.607 0 0 1-.476 1.135 1.607 1.607 0 0 1-1.135.476h-3a1.607 1.607 0 0 1-1.135-.476 1.607 1.607 0 0 1-.476-1.135v-3a1.607 1.607 0 0 1 .476-1.135 1.607 1.607 0 0 1 1.135-.476z" class="prefix__cls-1" data-name="Path 121491" transform="translate(-555.825 -555.825)"/>
        </g>
    </g>
</svg>
