<svg xmlns="http://www.w3.org/2000/svg" width="661.651" height="829.886" viewBox="0 0 661.651 829.886">
    <defs>
        <clipPath id="prefix__clip-path">
            <path id="prefix__Intersection_1" d="M31.447 55.162C-3.064 52.361.074 10.148.074 10.148 6.425 42.872 66.484 44.013 68.429 0c10.854 15.582 4.1 55.343-32.6 55.342q-2.129 0-4.382-.18zm.11-1.334c15.747 1.271 28.2-4.588 35.054-16.52 6.372-11.083 6.358-24.335 2.749-32.82-2.9 20.953-19.311 29.658-33.2 30.686C22.78 36.15 8 30.621 1.524 18.324 2.494 30.407 7.6 51.89 31.557 53.828z" class="prefix__cls-1" data-name="Intersection 1"/>
        </clipPath>
        <style>
            .prefix__cls-1{fill:none}.prefix__cls-2{fill:#2d2d2d}.prefix__cls-4{fill:#fff}
        </style>
    </defs>
    <g id="prefix__Group_55092" data-name="Group 55092" transform="translate(-117.185 -338.321)">
        <g id="prefix__Group_55048" data-name="Group 55048" transform="translate(490.795 968.494)">
            <path id="prefix__Path_121900" d="M740.3 1286.323c-5.4 1.024-21.246 2.047-37.9 1.13-10.554-.58-15.835-.87-17.538-2.547-12.945-12.727 29.44-57.525 14.144-91.926-1.1-2.459-6.056-13.617-13.861-14.144-7.969-.534-14.5 10.321-15.274 11.6-17.13 28.46 26.069 69.012 11.6 91.927-8.236 13.04-31.777 14.987-47.517 10.745-44.268-11.929-60.313-82.587-56.85-128.725.294-3.914 5.239-62.375 30.365-68.553 5.411-1.333 11 .775 16.217 2.707a311.547 311.547 0 0 0 94.645 19.039c33.511 1.432 32.522-2.536 65.64 2.7a16.818 16.818 0 0 1 6.7 2.9c20.869 11.697-5.271 154.601-50.371 163.147z" class="prefix__cls-2" data-name="Path 121900" transform="translate(-576.641 -1095.411)"/>
        </g>
        <g id="prefix__Group_55049" data-name="Group 55049" transform="translate(477.865 689.742)">
            <path id="prefix__Path_121901" d="M574.76 1273.394c-15.087 59.614 120.84 99.193 227.956 54.563 49.316-20.548 49.957-70.532 24.9-113.211s-71.425-189.3-71.425-189.3c-10.577 1.611-76.347-11.665-108.506 9.222-.004-.002-57.842 179.108-72.925 238.726z" data-name="Path 121901" transform="translate(-572.265 -1021.445)" style="fill:#c2e889"/>
            <path id="prefix__Path_121902" d="M704.635 1349.477c-47.842 0-90.758-12.693-113.692-32.476-14.693-12.681-20.4-27.535-16.492-42.969 14.926-58.976 72.372-237.021 72.948-238.808l.145-.451.4-.263c24.644-16 69.026-12.235 92.862-10.215 7.668.649 13.724 1.161 16.171.794l1.13-.171.348 1.092c.462 1.462 46.6 146.962 71.3 189.026 15.618 26.6 20.387 54.375 13.086 76.21-5.881 17.592-18.875 30.681-38.624 38.91-32.317 13.46-67.083 19.321-99.582 19.321zm-127.6-74.789c-3.639 14.384 1.772 28.318 15.648 40.289 37.906 32.705 131.539 45.619 210.5 12.708 19-7.916 31.495-20.464 37.116-37.288 7.057-21.105 2.371-48.078-12.857-74.013-23.747-40.434-67.011-175.333-71.219-188.538-3.1.18-8.5-.274-15.652-.886-23.392-1.982-66.827-5.667-90.781 9.538-3.261 10.1-58.22 180.76-72.758 238.19z" class="prefix__cls-2" data-name="Path 121902" transform="translate(-573.255 -1022.411)"/>
        </g>
        <g id="prefix__Group_55050" data-name="Group 55050" transform="translate(418.442 710.176)">
            <path id="prefix__Path_121903" d="M638.191 1085.187c-16.381 33.894-29.567 62.761-39.285 84.557-41.262 92.533-48.518 120.328-34.026 144.575 8.809 14.743 23.969 25.882 28.524 29.23 6.327 4.651 49.419 38.662 72.559 24.317 30.922-19.173 23.224-252.158 47.322-314.835 0 0-46.5-17.729-57.055-24.919" class="prefix__cls-4" data-name="Path 121903" transform="translate(-556.722 -1026.776)"/>
            <path id="prefix__Path_121904" d="M653.5 1373.663c-12.372 0-30.96-6.35-58.675-27.123l-1.245-.928c-13.242-9.74-22.953-19.7-28.883-29.62-14.465-24.2-8.118-51.454 33.958-145.8 12.505-28.058 25.729-56.518 39.3-84.6a1.338 1.338 0 0 1 2.41 1.165c-13.56 28.054-26.768 56.491-39.266 84.522-41.614 93.32-47.987 120.114-34.1 143.346 5.743 9.611 15.213 19.306 28.146 28.822l1.287.963c40.186 30.112 60.133 29.307 69.794 23.308 16.45-10.2 21.857-86.867 27.084-161.014 4.261-60.477 8.668-122.978 19.23-151.907-7.618-2.929-46.372-17.97-56.094-24.591a1.336 1.336 0 0 1 1.5-2.207c10.306 7.018 56.315 24.6 56.781 24.779a1.335 1.335 0 0 1 .772 1.729c-10.757 27.971-15.217 91.216-19.528 152.385-5.518 78.26-10.726 152.182-28.341 163.1a26.324 26.324 0 0 1-14.13 3.671z" class="prefix__cls-2" data-name="Path 121904" transform="translate(-557.693 -1027.762)"/>
        </g>
        <g id="prefix__Group_55051" data-name="Group 55051" transform="translate(635.076 709.263)">
            <path id="prefix__Path_121905" d="M688.472 1087.594c14.022 30.556 24.381 57.732 34.565 81.052 39.754 91.06 38.215 119.2 23.048 144.579-8.809 14.739-23.969 25.881-28.524 29.227-6.327 4.651-52.34 42.072-72.559 24.32-28.436-24.969-23.14-263.522-30.227-315.477 0 0 46.436-7.338 64.116-23.422" class="prefix__cls-4" data-name="Path 121905" transform="translate(-613.441 -1026.535)"/>
            <path id="prefix__Path_121906" d="M659.871 1373.91q-8.89 0-14.762-5.147c-20.089-17.634-23.534-133.51-26.3-226.62-1.172-39.54-2.188-73.7-4.368-89.681a1.33 1.33 0 0 1 1.115-1.5c.462-.073 46.242-7.461 63.421-23.09a1.337 1.337 0 0 1 1.8 1.978c-16.328 14.854-55.743 22.208-63.52 23.542 2.084 16.614 3.081 50.079 4.227 88.677 2.608 87.7 6.178 207.817 25.389 224.687 8.24 7.228 26.894 9.1 69.077-23.026.771-.588 1.382-1.05 1.81-1.367 12.93-9.5 22.407-19.2 28.165-28.837 12.922-21.617 19.424-45.9-23.121-143.358-3.929-8.989-7.874-18.539-12.055-28.646-6.511-15.755-13.888-33.614-22.5-52.386a1.337 1.337 0 1 1 2.432-1.111c8.63 18.814 16.023 36.7 22.544 52.477 4.174 10.1 8.11 19.631 12.024 28.6 39.292 89.995 38.567 119.706 22.976 145.794-5.945 9.943-15.664 19.906-28.883 29.62-.42.31-1.016.764-1.772 1.341-24.536 18.675-43.846 28.053-57.699 28.053z" class="prefix__cls-2" data-name="Path 121906" transform="translate(-614.426 -1027.523)"/>
        </g>
        <g id="prefix__Group_55054" data-name="Group 55054" transform="translate(505.679 696.924)">
            <path id="prefix__Path_121911" d="M583.612 1024.642c37.211 32.778 65.265 38.169 65.265 38.169s-14.892 23.885-30.567 35.214c-11.444 8.267-35.508-43.863-37.421-61.046z" class="prefix__cls-4" data-name="Path 121911" transform="translate(-579.551 -1023.304)"/>
            <path id="prefix__Path_121912" d="M616.609 1101.224a7.551 7.551 0 0 1-3.093-.71c-13.055-5.786-31.3-47.414-32.969-62.4a1.278 1.278 0 0 1 .023-.435l2.726-12.341a1.336 1.336 0 0 1 2.188-.714c36.512 32.17 64.353 37.81 64.635 37.864a1.337 1.337 0 0 1 .878 2.019c-.615.985-15.213 24.232-30.918 35.585a5.843 5.843 0 0 1-3.47 1.132zm-33.381-63.185c1.856 15.453 20.272 55.112 31.369 60.03 2.081.916 3.226.351 3.914-.141 12.983-9.382 25.6-27.776 29.2-33.259-6.835-1.772-31.094-9.546-62.295-36.551z" class="prefix__cls-2" data-name="Path 121912" transform="translate(-580.538 -1024.291)"/>
        </g>
        <g id="prefix__Group_55055" data-name="Group 55055" transform="translate(635.074 696.927)">
            <path id="prefix__Path_121913" d="M678.173 1024.642c-24.942 25.358-63.4 35.76-63.4 35.76s17.351 26.68 33.03 38.005c11.444 8.271 30.651-41.965 32.564-59.148z" class="prefix__cls-4" data-name="Path 121913" transform="translate(-613.439 -1023.307)"/>
            <path id="prefix__Path_121914" d="M651.491 1101.638a5.845 5.845 0 0 1-3.483-1.164c-15.7-11.341-32.652-37.261-33.366-38.361a1.333 1.333 0 0 1 .771-2.016c.382-.1 38.4-10.608 62.791-35.4a1.335 1.335 0 0 1 2.276.736l2.2 14.618a1.183 1.183 0 0 1 .008.348c-1.543 13.838-15.961 55.1-28.383 60.611a6.934 6.934 0 0 1-2.814.628zm-33.607-39.483c3.9 5.762 18.512 26.634 31.689 36.157a3.367 3.367 0 0 0 3.647.244c10.371-4.593 25.026-43.164 26.79-58.289l-1.783-11.841c-21.795 20.974-52.675 31.374-60.343 33.73z" class="prefix__cls-2" data-name="Path 121914" transform="translate(-614.425 -1024.292)"/>
        </g>
        <g id="prefix__Group_55056" data-name="Group 55056" transform="translate(508.406 696.921)">
            <path id="prefix__Path_121915" d="M678.041 1121.35a8.663 8.663 0 0 1-1.669-.126h-.26c-32.885 0-78.8-65.156-94.7-94.966a1.336 1.336 0 1 1 2.356-1.26c17.443 32.693 62.455 93.576 92.64 93.576h.218c.55.08 33.057 4.712 94.9-93.661a1.336 1.336 0 0 1 2.261 1.424c-56.03 89.129-88.235 95.013-95.746 95.013z" class="prefix__cls-2" data-name="Path 121915" transform="translate(-581.253 -1024.291)"/>
        </g>
        <g id="prefix__Group_55057" data-name="Group 55057" transform="translate(594.937 792.239)">
            <path id="prefix__Path_121916" d="M606.575 1206.322l-2.661-.24c.645-7.209 4.147-13.628 7.534-19.837 2.661-4.884 5.418-9.936 6.686-15.258 2.83-11.868-1.543-23.446-6.171-35.707-4.178-11.074-8.5-22.525-7.034-34.256.221-1.78.966-4.784 1.9-8.591 2.8-11.368 7.488-30.388 4.636-42.569l2.6-.61c3 12.8-1.787 32.216-4.643 43.821-.916 3.719-1.638 6.659-1.84 8.282-1.386 11.07 2.818 22.212 6.885 32.98 4.563 12.1 9.286 24.61 6.266 37.269-1.352 5.67-4.193 10.882-6.942 15.919-3.405 6.242-6.616 12.142-7.216 18.797z" class="prefix__cls-2" data-name="Path 121916" transform="translate(-603.914 -1049.253)"/>
        </g>
        <g id="prefix__Group_55058" data-name="Group 55058" transform="translate(577.665 943.757)">
            <ellipse id="prefix__Ellipse_10878" cx="13.792" cy="13.604" class="prefix__cls-4" data-name="Ellipse 10878" rx="13.792" ry="13.604" transform="translate(1.333 1.334)"/>
            <path id="prefix__Path_121917" d="M614.513 1118.813a15.057 15.057 0 0 1-15.114-14.453 14.724 14.724 0 0 1 4.009-10.634 15.1 15.1 0 0 1 10.619-4.785c.164-.008.332-.008.5-.008a15.065 15.065 0 0 1 15.114 14.453 14.737 14.737 0 0 1-4.09 10.707 15.123 15.123 0 0 1-10.543 4.712c-.167.008-.331.008-.495.008zm.011-27.211c-.137 0-.275 0-.412.008a12.426 12.426 0 0 0-8.748 3.94 12.071 12.071 0 0 0-3.3 8.718 12.5 12.5 0 0 0 21.54 7.985 12.066 12.066 0 0 0 3.356-8.779 12.387 12.387 0 0 0-12.436-11.874z" class="prefix__cls-2" data-name="Path 121917" transform="translate(-599.391 -1088.933)"/>
        </g>
        <g id="prefix__Group_55059" data-name="Group 55059" transform="translate(507.535 554.62)">
            <path id="prefix__Path_121918" d="M582.252 1129.62c-2.723-20.872.936-50.557 9.989-78.4 17.676-54.341 36.111-71.23 78.42-61 15.351 3.711 35.863-4.777 51.2 2.562 41.568 19.9 52.657 89.555 50.224 135.984-.6 11.352-67.587 43.435-98.884 43.629-29.901.194-89.425-31.118-90.949-42.775z" class="prefix__cls-4" data-name="Path 121918" transform="translate(-580.048 -985.978)"/>
            <path id="prefix__Path_121919" d="M673.922 1174.785c-29.826 0-90.334-31.056-92.014-43.947-2.768-21.174 1.081-51.435 10.039-78.982 18.543-57.01 37.986-72.047 80-61.883 6.43 1.547 13.785.894 21.578.2 10.257-.924 20.861-1.867 29.884 2.455 18.9 9.046 33.534 29.4 42.317 58.862 6.9 23.159 10.062 51.729 8.668 78.4-.7 13.243-70.936 44.711-100.212 44.89-.082.005-.172.005-.26.005zM650.8 989.776c-26.672 0-41.721 18.061-56.307 62.91-8.848 27.188-12.651 57-9.936 77.809 1.4 10.73 59.217 41.614 89.345 41.618h.271c32.309-.2 97.039-32.5 97.559-42.366 4.479-85.5-28.99-124.9-49.469-134.7-8.37-4.009-18.6-3.093-28.49-2.2-7.66.683-15.579 1.4-22.445-.267a88.02 88.02 0 0 0-20.528-2.804z" class="prefix__cls-2" data-name="Path 121919" transform="translate(-581.025 -987.024)"/>
        </g>
        <g id="prefix__Group_55060" data-name="Group 55060" transform="translate(518.06 551.129)">
            <path id="prefix__Path_121920" d="M626.76 1006.007c.2-6.075-14.8-31.525-35.783-12.765-16.523 14.774.683 34.851 11.547 34.851" class="prefix__cls-4" data-name="Path 121920" transform="translate(-582.794 -985.133)"/>
            <path id="prefix__Path_121921" d="M603.511 1030.4c-6.828 0-15.236-6.919-18.363-15.117-1.783-4.67-3.383-13.743 5.923-22.059 9.966-8.9 18.329-7.843 23.591-5.388 9.046 4.22 14.56 14.972 14.426 19.188a1.339 1.339 0 0 1-1.336 1.294h-.042a1.336 1.336 0 0 1-1.294-1.379c.1-3.124-4.8-12.906-12.883-16.687-6.595-3.077-13.556-1.408-20.677 4.961-6.014 5.376-7.862 12.166-5.208 19.115 3.013 7.9 10.78 13.4 15.866 13.4a1.335 1.335 0 1 1 0 2.669z" class="prefix__cls-2" data-name="Path 121921" transform="translate(-583.781 -986.11)"/>
        </g>
        <g id="prefix__Group_55061" data-name="Group 55061" transform="translate(533.138 567.977)">
            <path id="prefix__Path_121922" d="M606.265 998.164a.953.953 0 0 0 .542-1.245c-.76-1.734-6.43-9.046-14.445-4.67-2.738 1.493-8.912 11.059 1.734 16.66a1.34 1.34 0 0 0 1.738-.477 36.744 36.744 0 0 1 4.41-5.979 23.906 23.906 0 0 1 6.021-4.289z" class="prefix__cls-2" data-name="Path 121922" transform="translate(-586.741 -989.532)"/>
            <path id="prefix__Path_121923" d="M595.676 1011.377a2.605 2.605 0 0 1-1.21-.29c-5.525-2.906-6.713-6.763-6.736-9.485-.03-4.372 2.925-8.412 4.979-9.539a10.934 10.934 0 0 1 9.035-.969 13.5 13.5 0 0 1 7.278 6.277 2.221 2.221 0 0 1 .023 1.726 2.359 2.359 0 0 1-1.272 1.286 23.019 23.019 0 0 0-5.586 3.994 35.565 35.565 0 0 0-4.223 5.739 2.687 2.687 0 0 1-2.288 1.261zm2.692-18.176a9.093 9.093 0 0 0-4.376 1.211c-1.23.672-3.612 3.811-3.586 7.167.023 2.9 1.806 5.3 5.3 7.141a36.729 36.729 0 0 1 4.571-6.213 26.312 26.312 0 0 1 6.1-4.426 11.313 11.313 0 0 0-5.5-4.456 7.752 7.752 0 0 0-2.509-.425z" class="prefix__cls-2" data-name="Path 121923" transform="translate(-587.73 -990.523)"/>
        </g>
        <g id="prefix__Group_55062" data-name="Group 55062" transform="translate(646.148 551.365)">
            <path id="prefix__Path_121924" d="M617.678 1006.074c-.2-6.079 14.8-31.529 35.783-12.769 16.523 14.774-.684 34.851-11.547 34.851" class="prefix__cls-4" data-name="Path 121924" transform="translate(-616.338 -985.19)"/>
            <path id="prefix__Path_121925" d="M642.9 1030.47a1.335 1.335 0 0 1 0-2.669c5.083 0 12.853-5.5 15.866-13.4 2.654-6.95.806-13.739-5.212-19.119-7.129-6.373-14.09-8.041-20.681-4.953-8.088 3.771-12.973 13.564-12.873 16.681a1.333 1.333 0 0 1-1.291 1.378 1.37 1.37 0 0 1-1.378-1.29c-.138-4.212 5.369-14.968 14.419-19.192 5.258-2.463 13.632-3.52 23.591 5.384 9.309 8.325 7.709 17.4 5.926 22.067-3.131 8.194-11.539 15.113-18.367 15.113z" class="prefix__cls-2" data-name="Path 121925" transform="translate(-617.326 -986.172)"/>
        </g>
        <g id="prefix__Group_55063" data-name="Group 55063" transform="translate(655.384 568.108)">
            <path id="prefix__Path_121926" d="M632.311 1009.6c16.572-10.642-3.5-27.993-12.017-12.6a1.672 1.672 0 0 0 .492 2.142 56.363 56.363 0 0 1 5.85 4.918 29.174 29.174 0 0 1 4.028 5.178 1.2 1.2 0 0 0 1.647.362z" class="prefix__cls-2" data-name="Path 121926" transform="translate(-618.756 -989.572)"/>
            <path id="prefix__Path_121927" d="M632.654 1012.106a2.718 2.718 0 0 1-.554-.057 2.509 2.509 0 0 1-1.581-1.111 27.64 27.64 0 0 0-3.826-4.926 54.179 54.179 0 0 0-5.7-4.8 3 3 0 0 1-.878-3.864c2.73-4.938 6.984-7.347 11.589-6.682a11.032 11.032 0 0 1 9.08 8.363c1 4.658-1.462 9.282-6.759 12.684a2.562 2.562 0 0 1-1.371.393zm.133-2.585zm-2.581-16.294c-2.146 0-5.273.92-7.755 5.407a.339.339 0 0 0 .107.413 56.424 56.424 0 0 1 5.991 5.04 30.438 30.438 0 0 1 4.154 5.292c4.281-2.792 6.224-6.263 5.461-9.787a8.413 8.413 0 0 0-6.854-6.285 7.892 7.892 0 0 0-1.104-.08z" class="prefix__cls-2" data-name="Path 121927" transform="translate(-619.744 -990.557)"/>
        </g>
        <g id="prefix__Group_55064" data-name="Group 55064" transform="translate(604.87 678.963)">
            <path id="prefix__Path_121928" d="M606.865 1019.937s4.04 9.134 1.184 18.707" class="prefix__cls-4" data-name="Path 121928" transform="translate(-605.529 -1018.604)"/>
            <path id="prefix__Path_121929" d="M609.039 1040.964a1.2 1.2 0 0 1-.382-.057 1.332 1.332 0 0 1-.9-1.661c2.673-8.962-1.092-17.695-1.13-17.783a1.338 1.338 0 1 1 2.448-1.081c.168.39 4.2 9.7 1.241 19.627a1.336 1.336 0 0 1-1.277.955z" class="prefix__cls-2" data-name="Path 121929" transform="translate(-606.515 -1019.588)"/>
        </g>
        <g id="prefix__Group_55065" data-name="Group 55065" transform="translate(579.598 650.161)">
            <path id="prefix__Path_121930" d="M602 1022.584c2.749-3.563 8.1-6.14 11.425-7.209 8.263-2.654 24.664-5.892 31.292 1.9 5.09 5.987-3.582 18.183-8.481 21.616-5.392 3.776-12.616 4.407-18.92 2.5-5.186-1.569-15.965-7.171-16.985-13.136a7.188 7.188 0 0 1 1.669-5.671z" class="prefix__cls-2" data-name="Path 121930" transform="translate(-598.91 -1011.067)"/>
            <path id="prefix__Path_121931" d="M625.359 1044.758a25.623 25.623 0 0 1-7.438-1.111c-5.117-1.546-16.736-7.27-17.913-14.189a8.423 8.423 0 0 1 1.924-6.713c2.868-3.715 8.3-6.453 12.074-7.664 4.032-1.3 24.56-7.282 32.717 2.306a8.583 8.583 0 0 1 1.768 6.942c-.844 6.564-6.743 14-10.5 16.634a21.993 21.993 0 0 1-12.632 3.795zm-21.311-20.383a5.911 5.911 0 0 0-1.409 4.632c.867 5.071 10.765 10.478 16.057 12.082 6.319 1.917 12.971 1.054 17.764-2.314 3.357-2.348 8.675-9.279 9.382-14.785a6.029 6.029 0 0 0-1.153-4.868c-5.468-6.43-19.5-4.823-29.861-1.5-3.685 1.184-8.446 3.731-10.78 6.752z" class="prefix__cls-2" data-name="Path 121931" transform="translate(-599.897 -1012.045)"/>
        </g>
        <g id="prefix__Group_55066" data-name="Group 55066" transform="translate(617.378 637.41)">
            <circle id="prefix__Ellipse_10879" cx="3.805" cy="3.805" r="3.805" class="prefix__cls-2" data-name="Ellipse 10879" transform="translate(1.338 1.33)"/>
            <path id="prefix__Path_121932" d="M614.923 1018.982a5.147 5.147 0 0 1-5.063-4.3 5.139 5.139 0 1 1 5.907 4.238 5.243 5.243 0 0 1-.844.062zm-2.425-4.742a2.471 2.471 0 1 0 2.035-2.833 2.449 2.449 0 0 0-2.033 2.833z" class="prefix__cls-2" data-name="Path 121932" transform="translate(-609.791 -1008.706)"/>
        </g>
        <g id="prefix__Group_55067" data-name="Group 55067" transform="translate(576.591 640.787)">
            <circle id="prefix__Ellipse_10880" cx="3.805" cy="3.805" r="3.805" class="prefix__cls-2" data-name="Ellipse 10880" transform="translate(1.338 1.333)"/>
            <path id="prefix__Path_121933" d="M604.244 1019.869a5.15 5.15 0 0 1-5.063-4.3 5.139 5.139 0 0 1 4.238-5.911 5.17 5.17 0 0 1 3.83.9 5.093 5.093 0 0 1 2.077 3.345 5.148 5.148 0 0 1-4.239 5.907 5.7 5.7 0 0 1-.843.059zm.019-7.607a2.385 2.385 0 0 0-.4.035 2.468 2.468 0 0 0-2.039 2.829 2.455 2.455 0 0 0 .993 1.6 2.47 2.47 0 0 0 3.876-2.406 2.467 2.467 0 0 0-2.425-2.066z" class="prefix__cls-2" data-name="Path 121933" transform="translate(-599.11 -1009.59)"/>
        </g>
        <g id="prefix__Group_55070" data-name="Group 55070" transform="translate(568.293 663.988)">
            <path id="prefix__Path_121934" d="M665.712 1016.017c-1.944 44.015-62 42.873-68.355 10.149 0 0-3.139 42.213 31.373 45.012 40.533 3.285 48.254-38.978 36.982-55.161z" class="prefix__cls-2" data-name="Path 121934" transform="translate(-595.96 -1014.677)"/>
            <path id="prefix__Path_121935" d="M634.017 1073.68q-2.159 0-4.418-.179c-35.428-2.871-32.633-46.006-32.6-46.444a1.338 1.338 0 0 1 1.252-1.234 1.4 1.4 0 0 1 1.394 1.081c3.162 16.29 19.8 23.7 34.569 22.61 13.747-1.012 30.147-10.154 31.136-32.569a1.335 1.335 0 0 1 .959-1.221 1.317 1.317 0 0 1 1.47.515c6.778 9.73 6.514 27.043-.592 39.414-6.742 11.723-18.416 18.027-33.17 18.027zm-34.233-38.349c.97 12.082 6.075 33.565 30.032 35.5 15.747 1.272 28.2-4.59 35.054-16.519 6.373-11.085 6.358-24.335 2.749-32.82-2.9 20.952-19.31 29.658-33.206 30.686-13.375.978-28.153-4.551-34.629-16.847z" class="prefix__cls-2" data-name="Path 121935" transform="translate(-596.936 -1015.666)"/>
            <g id="prefix__Group_55069" data-name="Group 55069" transform="translate(1.323 1.341)">
                <g id="prefix__Group_55068" data-name="Group 55068" transform="translate(21.158 46.176)">
                    <path id="prefix__Path_121936" d="M630.656 1035.822c-2.356-5.3-9.08-7.446-14-7.359a18.114 18.114 0 0 0-13.479 6.95" class="prefix__cls-4" data-name="Path 121936" transform="translate(-601.836 -1027.12)"/>
                    <path id="prefix__Path_121937" d="M631.643 1038.145a1.327 1.327 0 0 1-1.218-.79c-2.024-4.537-7.817-6.564-12.471-6.564h-.286a16.7 16.7 0 0 0-12.418 6.381 1.334 1.334 0 0 1-2.177-1.543 19.559 19.559 0 0 1 14.541-7.511c5.529-.168 12.7 2.4 15.247 8.148a1.333 1.333 0 0 1-.672 1.764 1.268 1.268 0 0 1-.546.115z" class="prefix__cls-2" data-name="Path 121937" transform="translate(-602.824 -1028.11)"/>
                </g>
            </g>
        </g>
        <g id="prefix__Group_55071" data-name="Group 55071" transform="translate(617.842 618.352)">
            <path id="prefix__Path_121940" d="M629.309 1018.573a1.327 1.327 0 0 1-1.218-.79 20.96 20.96 0 0 0-16.965-11.4 1.336 1.336 0 0 1 .248-2.661 23.628 23.628 0 0 1 19.158 12.975 1.332 1.332 0 0 1-1.222 1.875z" class="prefix__cls-2" data-name="Path 121940" transform="translate(-609.912 -1003.715)"/>
        </g>
        <g id="prefix__Group_55072" data-name="Group 55072" transform="translate(561.648 623.585)">
            <path id="prefix__Path_121941" d="M596.532 1022.749a1.356 1.356 0 0 1-.347-.046 1.335 1.335 0 0 1-.943-1.631c.118-.458 3.1-11.2 16.133-15.9a1.338 1.338 0 0 1 .909 2.516c-11.67 4.212-14.354 13.674-14.461 14.075a1.344 1.344 0 0 1-1.291.986z" class="prefix__cls-2" data-name="Path 121941" transform="translate(-595.196 -1005.085)"/>
        </g>
        <g id="prefix__Group_55073" data-name="Group 55073" transform="translate(432.486 710.313)">
            <path id="prefix__Path_121942" d="M634.6 1028.148c-9.714 4.513-43.821 21.785-62.085 61.947-23.961 52.68-1.1 101.709 2.261 108.613" class="prefix__cls-4" data-name="Path 121942" transform="translate(-560.426 -1026.811)"/>
            <path id="prefix__Path_121943" d="M575.726 1201.031a1.337 1.337 0 0 1-1.2-.748c-4.506-9.252-25.806-58.026-2.276-109.755 17.412-38.292 49.674-56.536 62.734-62.6a1.336 1.336 0 1 1 1.126 2.424c-12.788 5.942-44.386 23.809-61.432 61.283-23.03 50.641-2.165 98.417 2.249 107.479a1.333 1.333 0 0 1-1.2 1.921z" class="prefix__cls-2" data-name="Path 121943" transform="translate(-561.371 -1027.798)"/>
        </g>
        <g id="prefix__Group_55074" data-name="Group 55074" transform="translate(702.833 712.01)">
            <path id="prefix__Path_121944" d="M632.521 1028.593c10.234 4.827 43.882 22.27 62.085 61.943 25.694 56-1.191 108.763-4.605 115.193" class="prefix__cls-4" data-name="Path 121944" transform="translate(-631.181 -1027.255)"/>
            <path id="prefix__Path_121945" d="M690.989 1208.049a1.377 1.377 0 0 1-.626-.153 1.341 1.341 0 0 1-.554-1.81c5.1-9.6 29.257-60.2 4.57-114-16.461-35.875-45.562-53.8-61.443-61.294a1.337 1.337 0 0 1 1.142-2.417c16.209 7.648 45.918 25.951 62.734 62.6 25.206 54.94.554 106.578-4.64 116.372a1.346 1.346 0 0 1-1.183.702z" class="prefix__cls-2" data-name="Path 121945" transform="translate(-632.17 -1028.242)"/>
        </g>
        <path id="prefix__Path_121946" d="M644.98 931.1c95.787-5.5 176.926 50.816 181.225 125.777 1.6 27.848-10.115 57.274-27.432 80.07a5.194 5.194 0 0 0-.42 5.1c6.48 16.993 14.4 29.479 34.332 45.624a1.142 1.142 0 0 1-.737 2.009c-9.855 0-37.761-1.841-62.191-20.8a4.742 4.742 0 0 0-5.594-.214c-28.18 19.138-64.036 31.625-103.607 33.893-95.79 5.5-176.929-50.817-181.229-125.777S549.19 936.593 644.98 931.1z" data-name="Path 121946" transform="translate(-360.627 -591.076)" style="fill:#e6f5d0"/>
        <path id="prefix__Path_121947" d="M648.574 1205.248c-41.859 0-81.471-11.643-112.718-33.324-34.573-24-54.776-57.407-56.876-94.083s14.14-72.177 45.742-99.976c31.51-27.707 74.544-44.443 121.164-47.12 96.443-5.491 178.308 51.462 182.642 127.037 1.508 26.283-8.588 55.792-27.707 80.956a4.015 4.015 0 0 0-.233 3.819c6.144 16.11 13.663 28.65 33.927 45.054a2.482 2.482 0 0 1-1.581 4.387c-10.784 0-38.509-2.066-63.013-21.078a3.379 3.379 0 0 0-4.025-.164c-29.6 20.1-65.663 31.907-104.275 34.122q-6.557.372-13.047.37zm-2.532-271.834c-46.032 2.639-88.49 19.142-119.557 46.464-30.968 27.237-46.895 61.974-44.837 97.807s21.849 68.523 55.735 92.045c33.981 23.579 78.05 35.142 124.082 32.476 38.131-2.187 73.724-13.826 102.935-33.66a6.081 6.081 0 0 1 7.163.263c23.437 18.191 49.937 20.44 60.818 20.513-20.387-16.6-28.028-29.4-34.29-45.814a6.44 6.44 0 0 1 .6-6.385c18.734-24.667 28.635-53.531 27.161-79.184-4.25-74.109-85.007-130-179.813-124.525z" class="prefix__cls-1" data-name="Path 121947" transform="translate(-361.613 -592.059)"/>
        <text id="prefix__Welcome_Get_started_by_filling_in_your_phone_number" data-name="Welcome! Get started by filling in your phone number" transform="translate(170 411)" style="fill:#454343;font-size:26px;font-family:Karla-Bold,Karla;letter-spacing:-.042em;font-weight:700">
            <tspan style="fill:#000"><tspan x="69.144" y="24">Welcome!</tspan></tspan><tspan style="font-family:Karla-Regular,Karla;font-weight:400"><tspan x="2.595" y="67">Get started by filling in </tspan><tspan x="17.447" y="104">your phone number</tspan></tspan>
        </text>
    </g>
</svg>
