<svg xmlns="http://www.w3.org/2000/svg" width="252.637" height="193.993" viewBox="0 0 252.637 193.993">
    <defs>
        <clipPath id="prefix__clip-path">
            <path id="prefix__SVGID" d="M2791.178 447.637c-.508 11.527-16.237 11.228-17.9 2.659 0 0-.822 11.054 8.217 11.787 10.613.86 12.635-10.208 9.683-14.446z" class="prefix__cls-1"/>
        </clipPath>
        <style>
            .prefix__cls-1,.prefix__cls-6{fill:#2d2d2d}.prefix__cls-1,.prefix__cls-13,.prefix__cls-7,.prefix__cls-9{stroke:#2d2d2d;stroke-linecap:round}.prefix__cls-1,.prefix__cls-7,.prefix__cls-9{stroke-linejoin:round}.prefix__cls-1,.prefix__cls-13,.prefix__cls-7,.prefix__cls-9{stroke-width:.7px}.prefix__cls-2{fill:#e6f5d0}.prefix__cls-9{fill:none}.prefix__cls-13,.prefix__cls-7{fill:#fff}.prefix__cls-13{stroke-miterlimit:10}
        </style>
    </defs>
    <g id="prefix__Group_55106" data-name="Group 55106" transform="translate(-57.362 -54.345)">
        <g id="prefix__Group_55099" data-name="Group 55099" transform="translate(-6.516 -2.779)">
            <path id="prefix__Path_121946" d="M536 930.855c32.839-1.885 60.656 17.422 62.13 43.121.549 9.547-3.468 19.635-9.4 27.451a1.781 1.781 0 0 0-.144 1.749c2.222 5.826 4.937 10.106 11.77 15.641a.391.391 0 0 1-.253.689 35.859 35.859 0 0 1-21.321-7.131 1.626 1.626 0 0 0-1.918-.073 70.529 70.529 0 0 1-35.52 11.62c-32.84 1.885-60.657-17.422-62.131-43.121s23.948-48.062 56.787-49.946z" class="prefix__cls-2" data-name="Path 121946" transform="translate(-415.271 -873.604)"/>
            <text id="prefix__Welcome_" data-name="Welcome!" transform="translate(79.515 80.779)" style="font-family:Karla-Bold,Karla;font-weight:700;font-size:10px;letter-spacing:-.042em">
                <tspan x="20.824" y="9">Welcome!</tspan>
            </text>
            <text id="prefix__Get_started_by_filling_in_your_phone_number" data-name="Get started by filling in your phone number" transform="translate(76.515 95.779)" style="font-family:Karla-Regular,Karla;font-size:10px;letter-spacing:-.042em">
                <tspan x="4.303" y="9">Get started by filling </tspan><tspan x="-.133" y="22">in your phone number</tspan>
            </text>
        </g>
        <g id="prefix__Group_55105" data-name="Group 55105" transform="translate(-2520.24 -342.077)">
            <g id="prefix__Group_55101" data-name="Group 55101" transform="translate(20.638 3.754)">
                <path id="prefix__Path_122201" d="M2797.673 582.922a.844.844 0 0 1 .722.419 43.752 43.752 0 0 0 6.979-2.069c0-.013-.008-.024-.008-.037a.851.851 0 0 1 1.43-.616c1.809-.938 2.8-1.944 2.8-2.994a1.781 1.781 0 0 0-.139-.642.834.834 0 0 1-.677-.807.739.739 0 0 1 .03-.144 10.6 10.6 0 0 0-3.511-2.082.854.854 0 0 1-1.648-.3.829.829 0 0 1 .059-.289 57.464 57.464 0 0 0-7.034-1.811.834.834 0 0 1-1.546-.295q-.866-.159-1.773-.309a.793.793 0 0 1 .036.174.855.855 0 0 1-1.71 0 .814.814 0 0 1 .129-.418q-1.135-.174-2.325-.335a.838.838 0 0 1 .486.753.855.855 0 0 1-1.71 0 .837.837 0 0 1 .726-.817c-2.6-.342-5.387-.639-8.331-.885a.857.857 0 0 1-.087.017.832.832 0 0 1-.209-.042q-1.289-.106-2.615-.2a.855.855 0 0 1-.6.241.841.841 0 0 1-.658-.326q-1-.064-2.019-.122a.848.848 0 0 1-1.532-.079q-.9-.046-1.822-.083a.838.838 0 0 1-1.627-.064q-.879-.031-1.767-.057a.841.841 0 0 1-1.672-.041q-.862-.02-1.732-.034a.85.85 0 0 1-1.7-.023c-.566-.006-1.137-.008-1.707-.01a.849.849 0 0 1-.854.839h-.006a.849.849 0 0 1-.854-.839c-.57 0-1.14 0-1.706.008a.851.851 0 0 1-1.7.022q-.869.013-1.729.031a.842.842 0 0 1-1.675.039c-.593.016-1.178.037-1.763.057a.838.838 0 0 1-1.632.062c-.609.025-1.216.05-1.816.079a.847.847 0 0 1-1.544.08c-.672.037-1.337.076-2 .118a.842.842 0 0 1-.671.344.855.855 0 0 1-.614-.26q-1.245.086-2.457.183a.654.654 0 0 1-.521.043c-2.952.244-5.75.539-8.359.88a.953.953 0 1 1-.084.011c-.905.119-1.794.241-2.652.37a.813.813 0 0 1 .158.46.855.855 0 0 1-1.71 0 .809.809 0 0 1 .045-.223q-.906.148-1.771.3a.842.842 0 0 1-1.59.3 59.557 59.557 0 0 0-7.04 1.776.815.815 0 0 1 .1.373.847.847 0 0 1-1.67.2 12.249 12.249 0 0 0-3.556 1.963.811.811 0 0 1 .1.372.848.848 0 0 1-.855.843.862.862 0 0 1-.119-.023 1.8 1.8 0 0 0-.133.63c0 1.09 1.061 2.135 3.006 3.1a.845.845 0 0 1 1.52.508.794.794 0 0 1-.03.146 45.91 45.91 0 0 0 6.962 2.016.848.848 0 0 1 1.609.335c.576.114 1.17.225 1.778.334a.827.827 0 0 1-.061-.3.855.855 0 0 1 1.709 0 .823.823 0 0 1-.218.549c3.228.534 6.852.989 10.77 1.355a.828.828 0 0 1 1.221.112q.981.085 1.986.163a.851.851 0 0 1 .772-.493.842.842 0 0 1 .807.607q.883.063 1.782.118a.845.845 0 0 1 1.682.1q.858.047 1.728.089c0-.024-.015-.045-.015-.07a.855.855 0 0 1 1.71 0 .8.8 0 0 1-.029.142q.885.037 1.782.068a.811.811 0 0 1-.043-.21.855.855 0 0 1 1.71 0 .822.822 0 0 1-.053.262c.6.017 1.214.03 1.825.042a.827.827 0 0 1-.062-.3.855.855 0 0 1 1.71 0 .831.831 0 0 1-.071.333c.62.009 1.241.018 1.867.023a.818.818 0 0 1-.087-.356.855.855 0 0 1 1.71 0 .82.82 0 0 1-.091.363H2761.007a.821.821 0 0 1-.09-.362.855.855 0 0 1 1.71 0 .827.827 0 0 1-.085.355c.625-.006 1.244-.016 1.863-.026a.825.825 0 0 1-.068-.329.855.855 0 0 1 1.71 0 .82.82 0 0 1-.062.3c.61-.013 1.219-.028 1.823-.045a.794.794 0 0 1-.052-.252.855.855 0 0 1 1.71 0 .808.808 0 0 1-.041.2q.9-.032 1.777-.07a.827.827 0 0 1-.027-.13.855.855 0 0 1 1.71 0c0 .019-.01.035-.011.055.579-.029 1.157-.057 1.728-.09a.843.843 0 0 1 1.674-.1q.9-.057 1.79-.122a.843.843 0 0 1 1.559-.115c.68-.054 1.355-.109 2.02-.168a.82.82 0 0 1 1.166-.109c3.928-.372 7.55-.835 10.775-1.376a.814.814 0 0 1-.187-.5.855.855 0 0 1 1.709 0 .813.813 0 0 1-.051.249c.61-.111 1.2-.225 1.78-.342a.842.842 0 0 1 .836-.77zm0-3.373a.843.843 0 1 1 .855-.844.85.85 0 0 1-.855.844zm1.71 2.529a.843.843 0 1 1 .855-.843.849.849 0 0 1-.855.844zm1.71-2.529a.843.843 0 1 1 .854-.844.849.849 0 0 1-.854.844zm1.709 2.529a.843.843 0 1 1 .854-.843.849.849 0 0 1-.856.844zm5.129-4.216a.843.843 0 1 1-.855.843.849.849 0 0 1 .855-.842zm-1.71-2.53a.843.843 0 1 1-.855.844.85.85 0 0 1 .856-.843zm-1.71 2.53a.843.843 0 1 1-.855.843.848.848 0 0 1 .856-.842zm-1.709-2.53a.843.843 0 1 1-.855.844.849.849 0 0 1 .853-.843zm-1.709-2.529a.843.843 0 1 1-.855.843.849.849 0 0 1 .855-.846zm-1.71 2.529a.843.843 0 1 1-.855.844.85.85 0 0 1 .855-.843zm-1.71-2.529a.843.843 0 1 1-.855.843.849.849 0 0 1 .855-.846zm-1.709 2.529a.843.843 0 1 1-.855.844.849.849 0 0 1 .855-.843zm-1.71-2.529a.843.843 0 1 1-.854.843.849.849 0 0 1 .854-.846zm-1.709 2.529a.843.843 0 1 1-.855.844.85.85 0 0 1 .855-.843zm-1.71-2.529a.843.843 0 1 1-.855.843.849.849 0 0 1 .855-.846zm.855 5.9a.855.855 0 1 1-.855-.843.849.849 0 0 1 .855.846zm-2.564-3.373a.843.843 0 1 1-.855.844.85.85 0 0 1 .854-.841zm-1.71 2.53a.843.843 0 1 1 0 1.686.843.843 0 1 1 0-1.686zm-1.708-.844a.843.843 0 1 1 .854-.843.849.849 0 0 1-.854.846zm1.708-4.216a.843.843 0 1 1 0 1.686.843.843 0 1 1 0-1.686zm-1.708-2.529a.843.843 0 1 1-.855.843.849.849 0 0 1 .855-.84zM2784 572.8a.843.843 0 1 1-.855.843.849.849 0 0 1 .855-.843zm0 5.059a.843.843 0 1 1-.855.843.849.849 0 0 1 .855-.839zm-1.71-.844a.843.843 0 1 1 .855-.843.849.849 0 0 1-.856.847zm0-6.745a.843.843 0 1 1-.855.843.849.849 0 0 1 .854-.839zm-1.71 2.529a.843.843 0 1 1-.855.843.849.849 0 0 1 .854-.842zm0 5.059a.843.843 0 1 1-.855.843.849.849 0 0 1 .854-.838zm-1.71-.844a.843.843 0 1 1 .855-.843.849.849 0 0 1-.856.848zm0-6.745a.843.843 0 1 1-.855.843.849.849 0 0 1 .854-.838zm-1.71 2.529a.843.843 0 1 1-.854.843.849.849 0 0 1 .853-.841zm0 5.059a.843.843 0 1 1-.854.843.849.849 0 0 1 .853-.837zm-1.709-.844a.843.843 0 1 1 .855-.843.848.848 0 0 1-.856.849zm0-6.745a.843.843 0 1 1-.855.843.849.849 0 0 1 .854-.837zm-1.71 2.529a.843.843 0 1 1-.855.843.849.849 0 0 1 .854-.84zm0 5.059a.843.843 0 1 1-.855.843.849.849 0 0 1 .854-.836zm-1.71-.844a.843.843 0 1 1 .855-.843.849.849 0 0 1-.855.85zm0-6.745a.843.843 0 1 1-.855.843.849.849 0 0 1 .855-.836zm-1.71 2.529a.843.843 0 1 1-.855.843.849.849 0 0 1 .855-.839zm0 5.059a.843.843 0 1 1-.855.843.849.849 0 0 1 .855-.835zm-1.71-.844a.843.843 0 1 1 .855-.843.849.849 0 0 1-.855.851zm0-6.745a.843.843 0 1 1-.855.843.849.849 0 0 1 .855-.835zm-1.71 2.529a.843.843 0 1 1-.854.843.849.849 0 0 1 .853-.838zm0 5.059a.843.843 0 1 1-.854.843.849.849 0 0 1 .853-.834zm-1.709-.844a.843.843 0 1 1 .855-.843.848.848 0 0 1-.855.852zm0-6.745a.843.843 0 1 1-.855.843.849.849 0 0 1 .855-.834zm-1.709 2.529a.843.843 0 1 1-.855.843.849.849 0 0 1 .855-.837zm-3.42 5.059h.006a.843.843 0 1 1 0 1.686h-.006a.843.843 0 1 1 0-1.686zm-1.7-.844a.843.843 0 1 1 .855-.843.849.849 0 0 1-.858.853zm2.558-.843a.855.855 0 1 1 .855.843.85.85 0 0 1-.858-.833zm2.565 1.686a.843.843 0 1 1-.855.843.849.849 0 0 1 .852-.832zm-1.71-7.589a.843.843 0 1 1-.855.843.849.849 0 0 1 .852-.832zm-1.71 2.529h.006a.843.843 0 1 1 0 1.686h-.006a.843.843 0 1 1 0-1.686zm-1.7-2.529a.843.843 0 1 1-.855.843.849.849 0 0 1 .849-.832zm-1.71 2.529a.843.843 0 1 1-.854.843.849.849 0 0 1 .848-.835zm0 5.059a.843.843 0 1 1-.854.843.849.849 0 0 1 .848-.831zm-1.709-.844a.843.843 0 1 1 .855-.843.849.849 0 0 1-.861.855zm0-6.745a.843.843 0 1 1-.855.843.849.849 0 0 1 .849-.831zm-1.709 2.529a.843.843 0 1 1-.855.843.849.849 0 0 1 .848-.834zm0 5.059a.843.843 0 1 1-.855.843.849.849 0 0 1 .848-.83zm-1.71-.844a.843.843 0 1 1 .855-.843.849.849 0 0 1-.862.856zm0-6.745a.843.843 0 1 1-.855.843.849.849 0 0 1 .848-.83zm-1.71 2.529a.843.843 0 1 1-.855.843.849.849 0 0 1 .849-.833zm0 5.059a.843.843 0 1 1-.855.843.849.849 0 0 1 .849-.829zm-1.709-.844a.843.843 0 1 1 .855-.843.849.849 0 0 1-.864.857zm0-6.745a.843.843 0 1 1-.855.843.848.848 0 0 1 .846-.829zm-1.71 2.529a.843.843 0 1 1-.854.843.849.849 0 0 1 .847-.832zm0 5.059a.843.843 0 1 1-.854.843.849.849 0 0 1 .847-.828zm-1.709-.844a.843.843 0 1 1 .855-.843.849.849 0 0 1-.862.858zm0-6.745a.843.843 0 1 1-.855.843.849.849 0 0 1 .848-.828zm-1.71 2.529a.843.843 0 1 1-.855.843.849.849 0 0 1 .848-.831zm0 5.059a.843.843 0 1 1-.855.843.849.849 0 0 1 .848-.827zm-1.71-.844a.843.843 0 1 1 .855-.843.849.849 0 0 1-.861.859zm0-6.745a.843.843 0 1 1-.855.843.849.849 0 0 1 .849-.827zm-1.71 2.529a.843.843 0 1 1-.855.843.849.849 0 0 1 .849-.83zm0 5.059a.843.843 0 1 1-.855.843.849.849 0 0 1 .849-.826zm-1.709-.844a.843.843 0 1 1 .855-.843.849.849 0 0 1-.862.86zm0-6.745a.843.843 0 1 1-.855.843.848.848 0 0 1 .848-.826zm-1.709 2.529a.843.843 0 1 1-.855.843.848.848 0 0 1 .848-.829zm-2.565 3.373a.855.855 0 1 1 .855.843.85.85 0 0 1-.862-.826zm0 2.529a.85.85 0 0 1-.855.844.843.843 0 1 1 0-1.686.849.849 0 0 1 .85.86zm2.563-.843a.843.843 0 1 1-.855.843.848.848 0 0 1 .85-.825zm-1.71-7.589a.843.843 0 1 1-.855.843.849.849 0 0 1 .85-.825zm-1.71 2.529a.843.843 0 1 1 0 1.686.843.843 0 1 1 0-1.686zm-1.708 2.529a.843.843 0 1 1-.855.844.849.849 0 0 1 .85-.825zm-1.71-2.529a.843.843 0 1 1-.854.843.849.849 0 0 1 .852-.828zm.855 5.9a.855.855 0 1 1-.855-.843.849.849 0 0 1 .85.864zm-2.564-3.373a.843.843 0 1 1-.855.844.85.85 0 0 1 .85-.823zm-1.71-2.529a.843.843 0 1 1-.855.843.849.849 0 0 1 .851-.826zm-1.71 2.529a.843.843 0 1 1-.855.844.85.85 0 0 1 .851-.823zm-1.71-2.529a.843.843 0 1 1-.855.843.849.849 0 0 1 .851-.826zm-1.709 2.529a.843.843 0 1 1-.855.844.849.849 0 0 1 .851-.823zm-1.709-2.529a.843.843 0 1 1-.855.843.849.849 0 0 1 .85-.826zm-1.71 2.529a.843.843 0 1 1-.855.844.85.85 0 0 1 .851-.823zm-5.129 4.216a.843.843 0 1 1 .855-.844.85.85 0 0 1-.861.865zm1.71-2.53a.843.843 0 1 1 .855-.843.849.849 0 0 1-.86.864zm1.709 2.53a.843.843 0 1 1 .855-.844.85.85 0 0 1-.859.865zm1.71 2.529a.843.843 0 1 1 .855-.843.849.849 0 0 1-.859.865zm1.71-2.529a.843.843 0 1 1 .854-.844.849.849 0 0 1-.859.865zm1.709 2.529a.843.843 0 1 1 .855-.843.849.849 0 0 1-.859.865zm1.709-2.529a.843.843 0 1 1 .855-.844.85.85 0 0 1-.859.865zm1.71 2.529a.843.843 0 1 1 .855-.843.849.849 0 0 1-.859.865zm1.71-2.529a.843.843 0 1 1 .855-.844.849.849 0 0 1-.859.865zm1.71 2.529a.843.843 0 1 1 .855-.843.849.849 0 0 1-.86.865zm1.709 2.53a.843.843 0 1 1 .855-.844.849.849 0 0 1-.857.866zm1.71-2.53a.843.843 0 1 1 .855-.843.849.849 0 0 1-.86.865zm1.709 2.53a.843.843 0 1 1 0-1.686.843.843 0 1 1 0 1.686zm1.708-2.53a.843.843 0 1 1 .855-.843.849.849 0 0 1-.859.865zm1.71 2.53a.843.843 0 1 1 .854-.844.849.849 0 0 1-.858.866zm1.709-2.53a.843.843 0 1 1 .855-.843.849.849 0 0 1-.859.865zm1.709 2.53a.843.843 0 1 1 .855-.844.85.85 0 0 1-.858.866zm1.71-2.53a.843.843 0 1 1 .855-.843.849.849 0 0 1-.858.865zm1.71 2.53a.843.843 0 1 1 .855-.844.85.85 0 0 1-.859.866zm1.71-2.53a.843.843 0 1 1 .855-.843.849.849 0 0 1-.859.865zm1.709 2.53a.843.843 0 1 1 .855-.844.849.849 0 0 1-.859.866zm1.71-2.53a.843.843 0 1 1 .855-.843.849.849 0 0 1-.861.865zm1.709 2.53a.843.843 0 1 1 .855-.844.85.85 0 0 1-.858.866zm1.71-2.53a.843.843 0 1 1 .855-.843.849.849 0 0 1-.859.865zm1.71 2.53a.843.843 0 1 1 .854-.844.85.85 0 0 1-.858.866zm1.709-2.53a.843.843 0 1 1 .855-.843.849.849 0 0 1-.858.865zm1.709 2.53a.843.843 0 1 1 .855-.844.849.849 0 0 1-.858.866zm1.71-2.53a.843.843 0 1 1 .855-.843.849.849 0 0 1-.858.865zm1.71 2.53h-.006a.843.843 0 1 1 0-1.686h.006a.843.843 0 1 1 0 1.686zm1.7-2.53a.843.843 0 1 1 .855-.843.849.849 0 0 1-.855.865zm1.71 2.53a.843.843 0 1 1 .855-.844.85.85 0 0 1-.855.866zm1.709-2.53a.843.843 0 1 1 .855-.843.848.848 0 0 1-.855.865zm1.709 2.53a.843.843 0 1 1 .855-.844.849.849 0 0 1-.856.866zm1.71-2.53a.843.843 0 1 1 .855-.843.849.849 0 0 1-.855.865zm1.71 2.53a.843.843 0 1 1 .855-.844.85.85 0 0 1-.855.866zm1.71-2.53a.843.843 0 1 1 .855-.843.849.849 0 0 1-.855.865zm1.71 2.53a.843.843 0 1 1 .855-.844.85.85 0 0 1-.856.866zm1.71-2.53a.843.843 0 1 1 .855-.843.848.848 0 0 1-.856.865zm1.709 2.53a.843.843 0 1 1 .855-.844.849.849 0 0 1-.856.866zm1.71-2.53a.843.843 0 1 1 .855-.843.849.849 0 0 1-.856.865zm1.71 2.53a.843.843 0 1 1 .855-.844.85.85 0 0 1-.856.866zm1.71-2.53a.843.843 0 1 1 .855-.843.849.849 0 0 1-.856.865zm1.71 2.53a.843.843 0 1 1 .855-.844.849.849 0 0 1-.855.866zm1.71-2.53a.843.843 0 1 1 .854-.843.849.849 0 0 1-.856.865zm1.709 2.53a.843.843 0 1 1 0-1.686.843.843 0 1 1 0 1.686zm1.708-2.53a.843.843 0 1 1 .855-.843.849.849 0 0 1-.857.865zm1.71 2.53a.843.843 0 1 1 .855-.844.85.85 0 0 1-.857.866zm1.71-2.53a.843.843 0 1 1 .855-.843.849.849 0 0 1-.857.865zm1.709-2.529a.843.843 0 1 1 .855-.844.849.849 0 0 1-.857.865zm1.71 2.529a.843.843 0 1 1 .855-.843.849.849 0 0 1-.857.865z" data-name="Path 122201" transform="translate(0 -.001)" style="fill:none"/>
                <path id="prefix__Path_122202" d="M2752.009 569.671a.852.852 0 0 1-.347.076.8.8 0 0 1-.169-.034.834.834 0 0 0 .172.034.848.848 0 0 0 .344-.076z" class="prefix__cls-2" data-name="Path 122202" transform="translate(-12.106 -.318)"/>
                <path id="prefix__Path_122203" d="M2756.316 569.637a.842.842 0 0 0 .671-.344.843.843 0 0 1-.671.343.854.854 0 0 1-.613-.259.856.856 0 0 0 .613.26z" class="prefix__cls-2" data-name="Path 122203" transform="translate(-13.343 -.207)"/>
                <path id="prefix__Path_122204" d="M2761.1 569.555a.849.849 0 0 0 .793-.542.847.847 0 0 1-1.544.08.847.847 0 0 0 .751.462z" class="prefix__cls-2" data-name="Path 122204" transform="translate(-14.706 -.125)"/>
                <path id="prefix__Path_122205" d="M2765.914 569.5a.84.84 0 0 0 .823-.683.837.837 0 0 1-1.631.062.842.842 0 0 0 .808.621z" class="prefix__cls-2" data-name="Path 122205" transform="translate(-16.102 -.066)"/>
                <path id="prefix__Path_122206" d="M2770.744 569.457a.843.843 0 0 0 .841-.779.842.842 0 0 1-1.675.039.841.841 0 0 0 .834.74z" class="prefix__cls-2" data-name="Path 122206" transform="translate(-17.512 -.027)"/>
                <path id="prefix__Path_122207" d="M2775.577 569.435a.848.848 0 0 0 .853-.832.851.851 0 0 1-1.7.022.846.846 0 0 0 .847.81z" class="prefix__cls-2" data-name="Path 122207" transform="translate(-18.927 -.005)"/>
                <path id="prefix__Path_122208" d="M2780.768 569.431a.849.849 0 0 0 .854-.839.848.848 0 0 1-.854.839z" class="prefix__cls-2" data-name="Path 122208" transform="translate(-20.698 -.002)"/>
                <path id="prefix__Path_122209" d="M2729.643 573.043a.844.844 0 0 0 .839-.763c-.543.1-1.073.2-1.59.3a.848.848 0 0 0 .751.463z" class="prefix__cls-2" data-name="Path 122209" transform="translate(-5.474 -1.084)"/>
                <path id="prefix__Path_122210" d="M2734.44 572.818a.849.849 0 0 0 .855-.844.814.814 0 0 0-.157-.46c-.512.077-1.012.157-1.507.237a.818.818 0 0 0-.045.223.849.849 0 0 0 .854.844z" class="prefix__cls-2" data-name="Path 122210" transform="translate(-6.851 -.859)"/>
                <path id="prefix__Path_122211" d="M2738.424 571.817a.855.855 0 1 0 .87-.84l-.084.011a.841.841 0 0 0-.786.829z" class="prefix__cls-2" data-name="Path 122211" transform="translate(-8.272 -.701)"/>
                <path id="prefix__Path_122212" d="M2717.517 576.435a.849.849 0 0 0 .855-.844.814.814 0 0 0-.1-.373c-.562.185-1.082.375-1.572.568a.841.841 0 0 0 .817.649z" class="prefix__cls-2" data-name="Path 122212" transform="translate(-1.897 -1.946)"/>
                <ellipse id="prefix__Ellipse_10881" cx=".855" cy=".843" class="prefix__cls-2" data-name="Ellipse 10881" rx=".855" ry=".843" transform="translate(2718.185 572.802)"/>
                <ellipse id="prefix__Ellipse_10882" cx=".855" cy=".843" class="prefix__cls-2" data-name="Ellipse 10882" rx=".855" ry=".843" transform="translate(2721.604 572.802)"/>
                <path id="prefix__Path_122213" d="M2732.02 576.239a.843.843 0 1 0-.855-.844.849.849 0 0 0 .855.844z" class="prefix__cls-2" data-name="Path 122213" transform="translate(-6.141 -1.751)"/>
                <ellipse id="prefix__Ellipse_10883" cx=".855" cy=".843" class="prefix__cls-2" data-name="Ellipse 10883" rx=".855" ry=".843" transform="translate(2728.443 572.802)"/>
                <path id="prefix__Path_122214" d="M2742.907 575.4a.85.85 0 0 1-.854.844.843.843 0 1 0 0-1.686.849.849 0 0 1 .854.842z" class="prefix__cls-2" data-name="Path 122214" transform="translate(-9.337 -1.751)"/>
                <path id="prefix__Path_122215" d="M2711.4 579.172a.811.811 0 0 0-.1-.372 3.1 3.1 0 0 0-.876 1.192.862.862 0 0 0 .119.023.848.848 0 0 0 .857-.843z" class="prefix__cls-2" data-name="Path 122215" transform="translate(-.055 -2.997)"/>
                <ellipse id="prefix__Ellipse_10884" cx=".855" cy=".843" class="prefix__cls-2" data-name="Ellipse 10884" rx=".855" ry=".843" transform="translate(2713.056 575.332)"/>
                <path id="prefix__Path_122216" d="M2719.921 579.819a.843.843 0 1 0-.855-.843.849.849 0 0 0 .855.843z" class="prefix__cls-2" data-name="Path 122216" transform="translate(-2.59 -2.802)"/>
                <path id="prefix__Path_122217" d="M2724.76 579.819a.843.843 0 1 0-.855-.843.849.849 0 0 0 .855.843z" class="prefix__cls-2" data-name="Path 122217" transform="translate(-4.011 -2.802)"/>
                <ellipse id="prefix__Ellipse_10885" cx=".855" cy=".843" class="prefix__cls-2" data-name="Ellipse 10885" rx=".855" ry=".843" transform="translate(2723.314 575.332)"/>
                <ellipse id="prefix__Ellipse_10886" cx=".855" cy=".843" class="prefix__cls-2" data-name="Ellipse 10886" rx=".855" ry=".843" transform="translate(2726.733 575.332)"/>
                <path id="prefix__Path_122218" d="M2739.279 579.819a.843.843 0 1 0-.855-.843.849.849 0 0 0 .855.843z" class="prefix__cls-2" data-name="Path 122218" transform="translate(-8.272 -2.802)"/>
                <path id="prefix__Path_122219" d="M2712.661 581.714a.843.843 0 1 0 .854.843.849.849 0 0 0-.854-.843z" class="prefix__cls-2" data-name="Path 122219" transform="translate(-.46 -3.853)"/>
                <ellipse id="prefix__Ellipse_10887" cx=".855" cy=".843" class="prefix__cls-2" data-name="Ellipse 10887" rx=".855" ry=".843" transform="translate(2714.766 577.861)"/>
                <ellipse id="prefix__Ellipse_10888" cx=".855" cy=".843" class="prefix__cls-2" data-name="Ellipse 10888" rx=".855" ry=".843" transform="translate(2718.185 577.861)"/>
                <ellipse id="prefix__Ellipse_10889" cx=".855" cy=".843" class="prefix__cls-2" data-name="Ellipse 10889" rx=".855" ry=".843" transform="translate(2721.604 577.861)"/>
                <path id="prefix__Path_122220" d="M2732.02 581.714a.843.843 0 1 0 .855.843.849.849 0 0 0-.855-.843z" class="prefix__cls-2" data-name="Path 122220" transform="translate(-6.141 -3.853)"/>
                <ellipse id="prefix__Ellipse_10890" cx=".855" cy=".843" class="prefix__cls-2" data-name="Ellipse 10890" rx=".855" ry=".843" transform="translate(2728.443 577.861)"/>
                <path id="prefix__Path_122221" d="M2742.054 581.714a.843.843 0 1 1 0 1.686.843.843 0 1 0 0-1.686z" class="prefix__cls-2" data-name="Path 122221" transform="translate(-9.337 -3.853)"/>
                <path id="prefix__Path_122222" d="M2715.16 585.294a.844.844 0 0 0-.665.336c.447.223.952.439 1.49.654a.794.794 0 0 0 .03-.146.849.849 0 0 0-.855-.844z" class="prefix__cls-2" data-name="Path 122222" transform="translate(-1.249 -4.903)"/>
                <path id="prefix__Path_122223" d="M2719.921 585.294a.843.843 0 1 0 .855.844.85.85 0 0 0-.855-.844z" class="prefix__cls-2" data-name="Path 122223" transform="translate(-2.59 -4.903)"/>
                <path id="prefix__Path_122224" d="M2724.76 585.294a.843.843 0 1 0 .855.844.85.85 0 0 0-.855-.844z" class="prefix__cls-2" data-name="Path 122224" transform="translate(-4.011 -4.903)"/>
                <path id="prefix__Path_122225" d="M2729.6 585.294a.843.843 0 1 0 .855.844.85.85 0 0 0-.855-.844z" class="prefix__cls-2" data-name="Path 122225" transform="translate(-5.431 -4.903)"/>
                <path id="prefix__Path_122226" d="M2734.44 585.294a.843.843 0 1 0 .855.844.849.849 0 0 0-.855-.844z" class="prefix__cls-2" data-name="Path 122226" transform="translate(-6.851 -4.903)"/>
                <path id="prefix__Path_122227" d="M2739.279 585.294a.843.843 0 1 0 .855.844.85.85 0 0 0-.855-.844z" class="prefix__cls-2" data-name="Path 122227" transform="translate(-8.272 -4.903)"/>
                <path id="prefix__Path_122228" d="M2727.219 588.875a.852.852 0 0 0-.761.475q.782.171 1.61.335a.846.846 0 0 0-.849-.81z" class="prefix__cls-2" data-name="Path 122228" transform="translate(-4.76 -5.954)"/>
                <path id="prefix__Path_122229" d="M2732.02 588.875a.849.849 0 0 0-.855.843.827.827 0 0 0 .062.3c.47.083.942.167 1.43.247a.823.823 0 0 0 .218-.549.849.849 0 0 0-.855-.841z" class="prefix__cls-2" data-name="Path 122229" transform="translate(-6.141 -5.954)"/>
                <ellipse id="prefix__Ellipse_10891" cx=".855" cy=".843" class="prefix__cls-2" data-name="Ellipse 10891" rx=".855" ry=".843" transform="translate(2728.443 582.92)"/>
                <path id="prefix__Path_122230" d="M2742.054 588.875a.843.843 0 1 1 0 1.686.843.843 0 1 0 0-1.686z" class="prefix__cls-2" data-name="Path 122230" transform="translate(-9.337 -5.954)"/>
                <path id="prefix__Path_122231" d="M2752.008 569.671l-.516.042a.8.8 0 0 0 .169.034.852.852 0 0 0 .347-.076z" class="prefix__cls-2" data-name="Path 122231" transform="translate(-12.107 -.318)"/>
                <path id="prefix__Path_122232" d="M2756.316 569.636a.843.843 0 0 0 .671-.343c-.43.027-.859.054-1.284.084a.854.854 0 0 0 .613.259z" class="prefix__cls-2" data-name="Path 122232" transform="translate(-13.343 -.207)"/>
                <path id="prefix__Path_122233" d="M2761.1 569.554a.85.85 0 0 0 .793-.541c-.518.025-1.032.052-1.544.08a.85.85 0 0 0 .751.461z" class="prefix__cls-2" data-name="Path 122233" transform="translate(-14.706 -.125)"/>
                <path id="prefix__Path_122234" d="M2765.914 569.5a.839.839 0 0 0 .822-.682q-.821.029-1.631.062a.841.841 0 0 0 .809.62z" class="prefix__cls-2" data-name="Path 122234" transform="translate(-16.102 -.066)"/>
                <path id="prefix__Path_122235" d="M2770.744 569.456a.843.843 0 0 0 .841-.778c-.56.012-1.121.023-1.675.039a.842.842 0 0 0 .834.739z" class="prefix__cls-2" data-name="Path 122235" transform="translate(-17.512 -.027)"/>
                <path id="prefix__Path_122236" d="M2775.577 569.434a.848.848 0 0 0 .853-.831c-.57 0-1.135.013-1.7.022a.847.847 0 0 0 .847.809z" class="prefix__cls-2" data-name="Path 122236" transform="translate(-18.927 -.005)"/>
                <path id="prefix__Path_122237" d="M2780.768 569.431a.848.848 0 0 0 .853-.838h-.005a.849.849 0 0 1-.848.838z" class="prefix__cls-2" data-name="Path 122237" transform="translate(-20.699 -.002)"/>
                <ellipse id="prefix__Ellipse_10892" cx=".855" cy=".843" class="prefix__cls-2" data-name="Ellipse 10892" rx=".855" ry=".843" transform="translate(2733.57 570.272)"/>
                <path id="prefix__Path_122238" d="M2748.956 572.659a.843.843 0 1 0-.855-.844.849.849 0 0 0 .855.844z" class="prefix__cls-2" data-name="Path 122238" transform="translate(-11.112 -.7)"/>
                <ellipse id="prefix__Ellipse_10893" cx=".855" cy=".843" class="prefix__cls-2" data-name="Ellipse 10893" rx=".855" ry=".843" transform="translate(2740.409 570.272)"/>
                <ellipse id="prefix__Ellipse_10894" cx=".855" cy=".843" class="prefix__cls-2" data-name="Ellipse 10894" rx=".855" ry=".843" transform="translate(2743.828 570.272)"/>
                <path id="prefix__Path_122239" d="M2763.475 572.659a.843.843 0 1 0-.855-.844.849.849 0 0 0 .855.844z" class="prefix__cls-2" data-name="Path 122239" transform="translate(-15.373 -.7)"/>
                <path id="prefix__Path_122240" d="M2768.315 572.659a.843.843 0 1 0-.855-.844.85.85 0 0 0 .855.844z" class="prefix__cls-2" data-name="Path 122240" transform="translate(-16.793 -.7)"/>
                <ellipse id="prefix__Ellipse_10895" cx=".855" cy=".843" class="prefix__cls-2" data-name="Ellipse 10895" rx=".855" ry=".843" transform="translate(2754.086 570.272)"/>
                <ellipse id="prefix__Ellipse_10896" cx=".855" cy=".843" class="prefix__cls-2" data-name="Ellipse 10896" rx=".855" ry=".843" transform="translate(2757.505 570.272)"/>
                <path id="prefix__Path_122241" d="M2741.7 576.239a.843.843 0 1 1 0-1.686.843.843 0 1 0 0 1.686z" class="prefix__cls-2" data-name="Path 122241" transform="translate(-8.981 -1.751)"/>
                <path id="prefix__Path_122242" d="M2740.844 575.4a.854.854 0 1 0 .854-.843.849.849 0 0 0-.854.843z" class="prefix__cls-2" data-name="Path 122242" transform="translate(-8.982 -1.751)"/>
                <ellipse id="prefix__Ellipse_10897" cx=".855" cy=".843" class="prefix__cls-2" data-name="Ellipse 10897" rx=".855" ry=".843" transform="translate(2735.28 572.802)"/>
                <ellipse id="prefix__Ellipse_10898" cx=".855" cy=".843" class="prefix__cls-2" data-name="Ellipse 10898" rx=".855" ry=".843" transform="translate(2738.699 572.802)"/>
                <path id="prefix__Path_122243" d="M2756.216 576.239a.843.843 0 1 0-.855-.844.849.849 0 0 0 .855.844z" class="prefix__cls-2" data-name="Path 122243" transform="translate(-13.243 -1.751)"/>
                <ellipse id="prefix__Ellipse_10899" cx=".855" cy=".843" class="prefix__cls-2" data-name="Ellipse 10899" rx=".855" ry=".843" transform="translate(2745.538 572.802)"/>
                <ellipse id="prefix__Ellipse_10900" cx=".855" cy=".843" class="prefix__cls-2" data-name="Ellipse 10900" rx=".855" ry=".843" transform="translate(2748.957 572.802)"/>
                <ellipse id="prefix__Ellipse_10901" cx=".855" cy=".843" class="prefix__cls-2" data-name="Ellipse 10901" rx=".855" ry=".843" transform="translate(2752.376 572.802)"/>
                <path id="prefix__Path_122244" d="M2775.574 576.239a.843.843 0 1 0-.854-.844.849.849 0 0 0 .854.844z" class="prefix__cls-2" data-name="Path 122244" transform="translate(-18.924 -1.751)"/>
                <path id="prefix__Path_122245" d="M2781.616 575.4a.849.849 0 0 1-.851.843.843.843 0 1 0 0-1.686.848.848 0 0 1 .851.843z" class="prefix__cls-2" data-name="Path 122245" transform="translate(-20.698 -1.751)"/>
                <ellipse id="prefix__Ellipse_10902" cx=".855" cy=".843" class="prefix__cls-2" data-name="Ellipse 10902" rx=".855" ry=".843" transform="translate(2733.57 575.332)"/>
                <path id="prefix__Path_122246" d="M2748.956 578.133a.843.843 0 1 0 .855.844.85.85 0 0 0-.855-.844z" class="prefix__cls-2" data-name="Path 122246" transform="translate(-11.112 -2.802)"/>
                <ellipse id="prefix__Ellipse_10903" cx=".855" cy=".843" class="prefix__cls-2" data-name="Ellipse 10903" rx=".855" ry=".843" transform="translate(2740.409 575.332)"/>
                <ellipse id="prefix__Ellipse_10904" cx=".855" cy=".843" class="prefix__cls-2" data-name="Ellipse 10904" rx=".855" ry=".843" transform="translate(2743.828 575.332)"/>
                <path id="prefix__Path_122247" d="M2763.475 578.133a.843.843 0 1 0 .855.844.849.849 0 0 0-.855-.844z" class="prefix__cls-2" data-name="Path 122247" transform="translate(-15.373 -2.802)"/>
                <path id="prefix__Path_122248" d="M2768.315 578.133a.843.843 0 1 0 .855.844.849.849 0 0 0-.855-.844z" class="prefix__cls-2" data-name="Path 122248" transform="translate(-16.793 -2.802)"/>
                <ellipse id="prefix__Ellipse_10905" cx=".855" cy=".843" class="prefix__cls-2" data-name="Ellipse 10905" rx=".855" ry=".843" transform="translate(2754.086 575.332)"/>
                <ellipse id="prefix__Ellipse_10906" cx=".855" cy=".843" class="prefix__cls-2" data-name="Ellipse 10906" rx=".855" ry=".843" transform="translate(2757.505 575.332)"/>
                <path id="prefix__Path_122249" d="M2740.844 582.557a.849.849 0 0 1 .854-.843.843.843 0 1 0 0 1.686.849.849 0 0 1-.854-.843z" class="prefix__cls-2" data-name="Path 122249" transform="translate(-8.981 -3.853)"/>
                <path id="prefix__Path_122250" d="M2742.552 582.557a.854.854 0 1 0-.854.844.849.849 0 0 0 .854-.844z" class="prefix__cls-2" data-name="Path 122250" transform="translate(-8.982 -3.853)"/>
                <ellipse id="prefix__Ellipse_10907" cx=".855" cy=".843" class="prefix__cls-2" data-name="Ellipse 10907" rx=".855" ry=".843" transform="translate(2735.28 577.861)"/>
                <ellipse id="prefix__Ellipse_10908" cx=".855" cy=".843" class="prefix__cls-2" data-name="Ellipse 10908" rx=".855" ry=".843" transform="translate(2738.699 577.861)"/>
                <path id="prefix__Path_122251" d="M2756.216 583.4a.843.843 0 1 0-.855-.844.85.85 0 0 0 .855.844z" class="prefix__cls-2" data-name="Path 122251" transform="translate(-13.243 -3.853)"/>
                <ellipse id="prefix__Ellipse_10909" cx=".855" cy=".843" class="prefix__cls-2" data-name="Ellipse 10909" rx=".855" ry=".843" transform="translate(2745.538 577.861)"/>
                <ellipse id="prefix__Ellipse_10910" cx=".855" cy=".843" class="prefix__cls-2" data-name="Ellipse 10910" rx=".855" ry=".843" transform="translate(2748.957 577.861)"/>
                <ellipse id="prefix__Ellipse_10911" cx=".855" cy=".843" class="prefix__cls-2" data-name="Ellipse 10911" rx=".855" ry=".843" transform="translate(2752.376 577.861)"/>
                <path id="prefix__Path_122252" d="M2775.574 583.4a.843.843 0 1 0-.854-.844.849.849 0 0 0 .854.844z" class="prefix__cls-2" data-name="Path 122252" transform="translate(-18.924 -3.853)"/>
                <path id="prefix__Path_122253" d="M2781.616 582.557a.849.849 0 0 1-.851.843.843.843 0 1 0 0-1.686.848.848 0 0 1 .851.843z" class="prefix__cls-2" data-name="Path 122253" transform="translate(-20.698 -3.853)"/>
                <path id="prefix__Path_122254" d="M2744.117 585.294a.843.843 0 1 0 .855.844.85.85 0 0 0-.855-.844z" class="prefix__cls-2" data-name="Path 122254" transform="translate(-9.692 -4.903)"/>
                <path id="prefix__Path_122255" d="M2748.956 585.294a.843.843 0 1 0 .855.844.85.85 0 0 0-.855-.844z" class="prefix__cls-2" data-name="Path 122255" transform="translate(-11.112 -4.903)"/>
                <path id="prefix__Path_122256" d="M2753.8 585.294a.843.843 0 1 0 .855.844.85.85 0 0 0-.855-.844z" class="prefix__cls-2" data-name="Path 122256" transform="translate(-12.532 -4.903)"/>
                <path id="prefix__Path_122257" d="M2758.636 585.294a.843.843 0 1 0 .855.844.849.849 0 0 0-.855-.844z" class="prefix__cls-2" data-name="Path 122257" transform="translate(-13.953 -4.903)"/>
                <path id="prefix__Path_122258" d="M2763.475 585.294a.843.843 0 1 0 .855.844.849.849 0 0 0-.855-.844z" class="prefix__cls-2" data-name="Path 122258" transform="translate(-15.373 -4.903)"/>
                <path id="prefix__Path_122259" d="M2768.315 585.294a.843.843 0 1 0 .855.844.849.849 0 0 0-.855-.844z" class="prefix__cls-2" data-name="Path 122259" transform="translate(-16.793 -4.903)"/>
                <path id="prefix__Path_122260" d="M2773.155 585.294a.843.843 0 1 0 .855.844.849.849 0 0 0-.855-.844z" class="prefix__cls-2" data-name="Path 122260" transform="translate(-18.214 -4.903)"/>
                <path id="prefix__Path_122261" d="M2777.994 585.294a.843.843 0 1 0 .855.844.85.85 0 0 0-.855-.844z" class="prefix__cls-2" data-name="Path 122261" transform="translate(-19.634 -4.903)"/>
                <path id="prefix__Path_122262" d="M2740.844 589.718a.849.849 0 0 1 .854-.843.843.843 0 1 0 0 1.686.848.848 0 0 1-.854-.843z" class="prefix__cls-2" data-name="Path 122262" transform="translate(-8.981 -5.954)"/>
                <path id="prefix__Path_122263" d="M2742.552 589.718a.854.854 0 1 0-.854.843.849.849 0 0 0 .854-.843z" class="prefix__cls-2" data-name="Path 122263" transform="translate(-8.982 -5.954)"/>
                <ellipse id="prefix__Ellipse_10912" cx=".855" cy=".843" class="prefix__cls-2" data-name="Ellipse 10912" rx=".855" ry=".843" transform="translate(2735.28 582.92)"/>
                <ellipse id="prefix__Ellipse_10913" cx=".855" cy=".843" class="prefix__cls-2" data-name="Ellipse 10913" rx=".855" ry=".843" transform="translate(2738.699 582.92)"/>
                <path id="prefix__Path_122264" d="M2756.216 588.875a.843.843 0 1 0 .855.843.849.849 0 0 0-.855-.843z" class="prefix__cls-2" data-name="Path 122264" transform="translate(-13.243 -5.954)"/>
                <ellipse id="prefix__Ellipse_10914" cx=".855" cy=".843" class="prefix__cls-2" data-name="Ellipse 10914" rx=".855" ry=".843" transform="translate(2745.538 582.92)"/>
                <ellipse id="prefix__Ellipse_10915" cx=".855" cy=".843" class="prefix__cls-2" data-name="Ellipse 10915" rx=".855" ry=".843" transform="translate(2748.957 582.92)"/>
                <ellipse id="prefix__Ellipse_10916" cx=".855" cy=".843" class="prefix__cls-2" data-name="Ellipse 10916" rx=".855" ry=".843" transform="translate(2752.376 582.92)"/>
                <path id="prefix__Path_122265" d="M2775.574 588.875a.843.843 0 1 0 .855.843.848.848 0 0 0-.855-.843z" class="prefix__cls-2" data-name="Path 122265" transform="translate(-18.924 -5.954)"/>
                <path id="prefix__Path_122266" d="M2780.768 588.875a.843.843 0 1 1 0 1.685.843.843 0 1 0 0-1.686z" class="prefix__cls-2" data-name="Path 122266" transform="translate(-20.698 -5.954)"/>
                <path id="prefix__Path_122267" d="M2749.079 592.455a.848.848 0 0 0-.56.218c.406.037.809.076 1.221.112a.843.843 0 0 0-.661-.33z" class="prefix__cls-2" data-name="Path 122267" transform="translate(-11.234 -7.005)"/>
                <path id="prefix__Path_122268" d="M2753.83 592.455a.851.851 0 0 0-.772.493c.52.04 1.05.077 1.579.114a.843.843 0 0 0-.807-.607z" class="prefix__cls-2" data-name="Path 122268" transform="translate(-12.567 -7.005)"/>
                <path id="prefix__Path_122269" d="M2758.646 592.455a.841.841 0 0 0-.831.725c.557.035 1.116.069 1.682.1a.848.848 0 0 0-.851-.825z" class="prefix__cls-2" data-name="Path 122269" transform="translate(-13.963 -7.005)"/>
                <path id="prefix__Path_122270" d="M2763.475 592.455a.849.849 0 0 0-.855.844c0 .025.013.046.015.07.55.026 1.108.049 1.666.072a.8.8 0 0 0 .029-.142.849.849 0 0 0-.855-.844z" class="prefix__cls-2" data-name="Path 122270" transform="translate(-15.373 -7.005)"/>
                <path id="prefix__Path_122271" d="M2768.315 592.455a.849.849 0 0 0-.855.844.811.811 0 0 0 .043.21c.536.018 1.071.037 1.613.052a.816.816 0 0 0 .054-.262.849.849 0 0 0-.855-.844z" class="prefix__cls-2" data-name="Path 122271" transform="translate(-16.793 -7.005)"/>
                <path id="prefix__Path_122272" d="M2773.155 592.455a.849.849 0 0 0-.855.844.827.827 0 0 0 .062.3q.784.016 1.577.028a.835.835 0 0 0 .071-.333.849.849 0 0 0-.855-.839z" class="prefix__cls-2" data-name="Path 122272" transform="translate(-18.214 -7.005)"/>
                <path id="prefix__Path_122273" d="M2777.994 592.455a.849.849 0 0 0-.855.844.818.818 0 0 0 .087.356c.508 0 1.02.006 1.532.007a.82.82 0 0 0 .091-.363.849.849 0 0 0-.855-.844z" class="prefix__cls-2" data-name="Path 122273" transform="translate(-19.634 -7.005)"/>
                <path id="prefix__Path_122274" d="M2780.405 569.431a.849.849 0 0 1-.854-.839.849.849 0 0 0 .854.839z" class="prefix__cls-2" data-name="Path 122274" transform="translate(-20.342 -.001)"/>
                <path id="prefix__Path_122276" d="M2780.765 569.43a.849.849 0 0 0 .849-.838.848.848 0 0 1-.849.838z" class="prefix__cls-2" data-name="Path 122276" transform="translate(-20.698 -.002)"/>
                <path id="prefix__Path_122277" d="M2785.246 569.436a.846.846 0 0 0 .847-.805.85.85 0 0 1-1.7-.023.847.847 0 0 0 .853.828z" class="prefix__cls-2" data-name="Path 122277" transform="translate(-21.763 -.006)"/>
                <path id="prefix__Path_122278" d="M2790.09 569.46a.841.841 0 0 0 .832-.731.841.841 0 0 1-1.672-.041.843.843 0 0 0 .84.772z" class="prefix__cls-2" data-name="Path 122278" transform="translate(-23.189 -.03)"/>
                <path id="prefix__Path_122279" d="M2794.938 569.5a.842.842 0 0 0 .807-.609.837.837 0 0 1-1.626-.064.84.84 0 0 0 .819.673z" class="prefix__cls-2" data-name="Path 122279" transform="translate(-24.617 -.07)"/>
                <path id="prefix__Path_122280" d="M2799.791 569.561a.848.848 0 0 0 .742-.447.848.848 0 0 1-1.531-.078.853.853 0 0 0 .789.525z" class="prefix__cls-2" data-name="Path 122280" transform="translate(-26.05 -.131)"/>
                <path id="prefix__Path_122281" d="M2804.685 569.645a.855.855 0 0 0 .6-.241.856.856 0 0 1-.594.24.841.841 0 0 1-.657-.325.84.84 0 0 0 .651.326z" class="prefix__cls-2" data-name="Path 122281" transform="translate(-27.525 -.215)"/>
                <path id="prefix__Path_122282" d="M2809.8 569.746c-.029 0-.054.016-.084.016a.831.831 0 0 1-.2-.04h-.008a.828.828 0 0 0 .209.042.857.857 0 0 0 .083-.018z" class="prefix__cls-2" data-name="Path 122282" transform="translate(-29.132 -.333)"/>
                <path id="prefix__Path_122283" d="M2780.405 569.431a.848.848 0 0 1-.848-.839h-.007a.849.849 0 0 0 .855.839z" class="prefix__cls-2" data-name="Path 122283" transform="translate(-20.342 -.001)"/>
                <path id="prefix__Path_122284" d="M2780.408 569.431a.849.849 0 0 1-.851-.838.848.848 0 0 0 .851.838z" class="prefix__cls-2" data-name="Path 122284" transform="translate(-20.345 -.001)"/>
                <path id="prefix__Path_122285" d="M2780.411 569.428a.847.847 0 0 0 .85-.837h-1.705a.849.849 0 0 0 .855.837z" class="prefix__cls-2" data-name="Path 122285" transform="translate(-20.345)"/>
                <path id="prefix__Path_122286" d="M2785.246 569.435a.846.846 0 0 0 .847-.8c-.565-.009-1.129-.018-1.7-.023a.847.847 0 0 0 .853.823z" class="prefix__cls-2" data-name="Path 122286" transform="translate(-21.763 -.006)"/>
                <path id="prefix__Path_122287" d="M2790.09 569.459a.841.841 0 0 0 .832-.73c-.554-.016-1.113-.029-1.672-.041a.844.844 0 0 0 .84.771z" class="prefix__cls-2" data-name="Path 122287" transform="translate(-23.189 -.03)"/>
                <path id="prefix__Path_122288" d="M2794.938 569.5a.842.842 0 0 0 .807-.608c-.54-.023-1.08-.045-1.626-.064a.84.84 0 0 0 .819.672z" class="prefix__cls-2" data-name="Path 122288" transform="translate(-24.618 -.07)"/>
                <path id="prefix__Path_122289" d="M2799.791 569.561a.846.846 0 0 0 .741-.447c-.507-.028-1.018-.054-1.531-.078a.852.852 0 0 0 .79.525z" class="prefix__cls-2" data-name="Path 122289" transform="translate(-26.05 -.131)"/>
                <path id="prefix__Path_122290" d="M2804.685 569.644a.856.856 0 0 0 .594-.24l-1.251-.085a.841.841 0 0 0 .657.325z" class="prefix__cls-2" data-name="Path 122290" transform="translate(-27.526 -.215)"/>
                <path id="prefix__Path_122291" d="M2809.8 569.746l-.285-.024a.833.833 0 0 0 .2.04.813.813 0 0 0 .085-.016z" class="prefix__cls-2" data-name="Path 122291" transform="translate(-29.136 -.333)"/>
                <path id="prefix__Path_122292" d="M2782.825 572.659a.843.843 0 1 0-.855-.844.85.85 0 0 0 .855.844z" class="prefix__cls-2" data-name="Path 122292" transform="translate(-21.052 -.7)"/>
                <path id="prefix__Path_122293" d="M2787.665 572.659a.843.843 0 1 0-.855-.844.849.849 0 0 0 .855.844z" class="prefix__cls-2" data-name="Path 122293" transform="translate(-22.472 -.7)"/>
                <ellipse id="prefix__Ellipse_10917" cx=".855" cy=".843" class="prefix__cls-2" data-name="Ellipse 10917" rx=".855" ry=".843" transform="translate(2767.757 570.272)"/>
                <ellipse id="prefix__Ellipse_10918" cx=".855" cy=".843" class="prefix__cls-2" data-name="Ellipse 10918" rx=".855" ry=".843" transform="translate(2771.176 570.272)"/>
                <path id="prefix__Path_122294" d="M2802.184 572.659a.843.843 0 1 0-.855-.844.85.85 0 0 0 .855.844z" class="prefix__cls-2" data-name="Path 122294" transform="translate(-26.734 -.7)"/>
                <ellipse id="prefix__Ellipse_10919" cx=".855" cy=".843" class="prefix__cls-2" data-name="Ellipse 10919" rx=".855" ry=".843" transform="translate(2778.014 570.272)"/>
                <ellipse id="prefix__Ellipse_10920" cx=".855" cy=".843" class="prefix__cls-2" data-name="Ellipse 10920" rx=".855" ry=".843" transform="translate(2781.434 570.272)"/>
                <ellipse id="prefix__Ellipse_10921" cx=".855" cy=".843" class="prefix__cls-2" data-name="Ellipse 10921" rx=".855" ry=".843" transform="translate(2784.853 570.272)"/>
                <path id="prefix__Path_122295" d="M2780.405 576.239a.843.843 0 1 1 0-1.685.843.843 0 1 0 0 1.686z" class="prefix__cls-2" data-name="Path 122295" transform="translate(-20.342 -1.751)"/>
                <ellipse id="prefix__Ellipse_10922" cx=".852" cy=".843" class="prefix__cls-2" data-name="Ellipse 10922" rx=".852" ry=".843" transform="translate(2759.215 572.803)"/>
                <ellipse id="prefix__Ellipse_10923" cx=".855" cy=".843" class="prefix__cls-2" data-name="Ellipse 10923" rx=".855" ry=".843" transform="translate(2762.628 572.802)"/>
                <ellipse id="prefix__Ellipse_10924" cx=".855" cy=".843" class="prefix__cls-2" data-name="Ellipse 10924" rx=".855" ry=".843" transform="translate(2766.047 572.802)"/>
                <path id="prefix__Path_122296" d="M2794.924 576.239a.843.843 0 1 0-.855-.844.849.849 0 0 0 .855.844z" class="prefix__cls-2" data-name="Path 122296" transform="translate(-24.603 -1.751)"/>
                <ellipse id="prefix__Ellipse_10925" cx=".855" cy=".843" class="prefix__cls-2" data-name="Ellipse 10925" rx=".855" ry=".843" transform="translate(2772.885 572.802)"/>
                <ellipse id="prefix__Ellipse_10926" cx=".855" cy=".843" class="prefix__cls-2" data-name="Ellipse 10926" rx=".855" ry=".843" transform="translate(2776.305 572.802)"/>
                <path id="prefix__Path_122297" d="M2809.443 576.239a.843.843 0 1 0-.855-.844.849.849 0 0 0 .855.844z" class="prefix__cls-2" data-name="Path 122297" transform="translate(-28.864 -1.751)"/>
                <path id="prefix__Path_122298" d="M2814.283 576.239a.843.843 0 1 0-.855-.844.849.849 0 0 0 .855.844z" class="prefix__cls-2" data-name="Path 122298" transform="translate(-30.285 -1.751)"/>
                <path id="prefix__Path_122299" d="M2820.33 575.4a.849.849 0 0 1-.854.844.843.843 0 1 0 0-1.686.849.849 0 0 1 .854.842z" class="prefix__cls-2" data-name="Path 122299" transform="translate(-32.06 -1.751)"/>
                <path id="prefix__Path_122300" d="M2782.825 579.819a.843.843 0 1 0-.855-.843.849.849 0 0 0 .855.843z" class="prefix__cls-2" data-name="Path 122300" transform="translate(-21.052 -2.802)"/>
                <path id="prefix__Path_122301" d="M2787.665 578.133a.843.843 0 1 0 .855.844.849.849 0 0 0-.855-.844z" class="prefix__cls-2" data-name="Path 122301" transform="translate(-22.472 -2.802)"/>
                <ellipse id="prefix__Ellipse_10927" cx=".855" cy=".843" class="prefix__cls-2" data-name="Ellipse 10927" rx=".855" ry=".843" transform="translate(2767.757 575.332)"/>
                <ellipse id="prefix__Ellipse_10928" cx=".855" cy=".843" class="prefix__cls-2" data-name="Ellipse 10928" rx=".855" ry=".843" transform="translate(2771.176 575.332)"/>
                <path id="prefix__Path_122302" d="M2802.184 578.133a.843.843 0 1 0 .855.844.849.849 0 0 0-.855-.844z" class="prefix__cls-2" data-name="Path 122302" transform="translate(-26.734 -2.802)"/>
                <ellipse id="prefix__Ellipse_10929" cx=".855" cy=".843" class="prefix__cls-2" data-name="Ellipse 10929" rx=".855" ry=".843" transform="translate(2778.014 575.332)"/>
                <ellipse id="prefix__Ellipse_10930" cx=".855" cy=".843" class="prefix__cls-2" data-name="Ellipse 10930" rx=".855" ry=".843" transform="translate(2781.434 575.332)"/>
                <ellipse id="prefix__Ellipse_10931" cx=".855" cy=".843" class="prefix__cls-2" data-name="Ellipse 10931" rx=".855" ry=".843" transform="translate(2784.853 575.332)"/>
                <path id="prefix__Path_122303" d="M2780.405 583.4a.843.843 0 1 1 0-1.685.843.843 0 1 0 0 1.686z" class="prefix__cls-2" data-name="Path 122303" transform="translate(-20.342 -3.853)"/>
                <ellipse id="prefix__Ellipse_10932" cx=".852" cy=".843" class="prefix__cls-2" data-name="Ellipse 10932" rx=".852" ry=".843" transform="translate(2759.215 577.862)"/>
                <ellipse id="prefix__Ellipse_10933" cx=".855" cy=".843" class="prefix__cls-2" data-name="Ellipse 10933" rx=".855" ry=".843" transform="translate(2762.628 577.861)"/>
                <ellipse id="prefix__Ellipse_10934" cx=".855" cy=".843" class="prefix__cls-2" data-name="Ellipse 10934" rx=".855" ry=".843" transform="translate(2766.047 577.861)"/>
                <path id="prefix__Path_122304" d="M2794.924 583.4a.843.843 0 1 0-.855-.844.85.85 0 0 0 .855.844z" class="prefix__cls-2" data-name="Path 122304" transform="translate(-24.603 -3.853)"/>
                <ellipse id="prefix__Ellipse_10935" cx=".855" cy=".843" class="prefix__cls-2" data-name="Ellipse 10935" rx=".855" ry=".843" transform="translate(2772.885 577.861)"/>
                <ellipse id="prefix__Ellipse_10936" cx=".855" cy=".843" class="prefix__cls-2" data-name="Ellipse 10936" rx=".855" ry=".843" transform="translate(2776.305 577.861)"/>
                <path id="prefix__Path_122305" d="M2809.443 583.4a.843.843 0 1 0-.855-.844.85.85 0 0 0 .855.844z" class="prefix__cls-2" data-name="Path 122305" transform="translate(-28.864 -3.853)"/>
                <path id="prefix__Path_122306" d="M2814.283 583.4a.843.843 0 1 0-.855-.844.85.85 0 0 0 .855.844z" class="prefix__cls-2" data-name="Path 122306" transform="translate(-30.285 -3.853)"/>
                <path id="prefix__Path_122307" d="M2820.33 582.557a.849.849 0 0 1-.854.844.843.843 0 1 0 0-1.686.849.849 0 0 1 .854.842z" class="prefix__cls-2" data-name="Path 122307" transform="translate(-32.06 -3.853)"/>
                <path id="prefix__Path_122308" d="M2782.825 585.294a.843.843 0 1 0 .855.844.849.849 0 0 0-.855-.844z" class="prefix__cls-2" data-name="Path 122308" transform="translate(-21.052 -4.903)"/>
                <path id="prefix__Path_122309" d="M2787.665 585.294a.843.843 0 1 0 .855.844.849.849 0 0 0-.855-.844z" class="prefix__cls-2" data-name="Path 122309" transform="translate(-22.472 -4.903)"/>
                <path id="prefix__Path_122310" d="M2792.5 585.294a.843.843 0 1 0 .855.844.85.85 0 0 0-.855-.844z" class="prefix__cls-2" data-name="Path 122310" transform="translate(-23.893 -4.903)"/>
                <path id="prefix__Path_122311" d="M2797.344 585.294a.843.843 0 1 0 .855.844.85.85 0 0 0-.855-.844z" class="prefix__cls-2" data-name="Path 122311" transform="translate(-25.313 -4.903)"/>
                <path id="prefix__Path_122312" d="M2802.184 585.294a.843.843 0 1 0 .855.844.849.849 0 0 0-.855-.844z" class="prefix__cls-2" data-name="Path 122312" transform="translate(-26.734 -4.903)"/>
                <path id="prefix__Path_122313" d="M2807.023 585.294a.843.843 0 1 0 .855.844.85.85 0 0 0-.855-.844z" class="prefix__cls-2" data-name="Path 122313" transform="translate(-28.154 -4.903)"/>
                <path id="prefix__Path_122314" d="M2811.863 585.294a.843.843 0 1 0 .855.844.849.849 0 0 0-.855-.844z" class="prefix__cls-2" data-name="Path 122314" transform="translate(-29.574 -4.903)"/>
                <path id="prefix__Path_122315" d="M2816.7 585.294a.843.843 0 1 0 .854.844.849.849 0 0 0-.854-.844z" class="prefix__cls-2" data-name="Path 122315" transform="translate(-30.995 -4.903)"/>
                <path id="prefix__Path_122316" d="M2779.556 589.718a.849.849 0 0 1 .852-.842.843.843 0 1 0 0 1.686.849.849 0 0 1-.852-.844z" class="prefix__cls-2" data-name="Path 122316" transform="translate(-20.342 -5.954)"/>
                <ellipse id="prefix__Ellipse_10937" cx=".852" cy=".843" class="prefix__cls-2" data-name="Ellipse 10937" rx=".852" ry=".843" transform="translate(2759.215 582.921)"/>
                <ellipse id="prefix__Ellipse_10938" cx=".855" cy=".843" class="prefix__cls-2" data-name="Ellipse 10938" rx=".855" ry=".843" transform="translate(2762.628 582.92)"/>
                <ellipse id="prefix__Ellipse_10939" cx=".855" cy=".843" class="prefix__cls-2" data-name="Ellipse 10939" rx=".855" ry=".843" transform="translate(2766.047 582.92)"/>
                <path id="prefix__Path_122317" d="M2794.924 588.875a.843.843 0 1 0 .855.843.849.849 0 0 0-.855-.843z" class="prefix__cls-2" data-name="Path 122317" transform="translate(-24.603 -5.954)"/>
                <ellipse id="prefix__Ellipse_10940" cx=".855" cy=".843" class="prefix__cls-2" data-name="Ellipse 10940" rx=".855" ry=".843" transform="translate(2772.885 582.92)"/>
                <ellipse id="prefix__Ellipse_10941" cx=".855" cy=".843" class="prefix__cls-2" data-name="Ellipse 10941" rx=".855" ry=".843" transform="translate(2776.305 582.92)"/>
                <path id="prefix__Path_122318" d="M2809.443 588.875a.843.843 0 1 0 .855.843.849.849 0 0 0-.855-.843z" class="prefix__cls-2" data-name="Path 122318" transform="translate(-28.864 -5.954)"/>
                <path id="prefix__Path_122319" d="M2814.283 588.875a.843.843 0 1 0 .855.843.848.848 0 0 0-.855-.843z" class="prefix__cls-2" data-name="Path 122319" transform="translate(-30.285 -5.954)"/>
                <path id="prefix__Path_122320" d="M2819.477 588.875a.843.843 0 1 1 0 1.686.843.843 0 1 0 0-1.686z" class="prefix__cls-2" data-name="Path 122320" transform="translate(-32.06 -5.954)"/>
                <path id="prefix__Path_122321" d="M2782.825 592.455a.849.849 0 0 0-.855.844.821.821 0 0 0 .09.362c.512 0 1.026 0 1.534-.008a.824.824 0 0 0 .085-.355.849.849 0 0 0-.854-.843z" class="prefix__cls-2" data-name="Path 122321" transform="translate(-21.052 -7.005)"/>
                <path id="prefix__Path_122322" d="M2787.665 592.455a.849.849 0 0 0-.855.844.821.821 0 0 0 .068.329c.53-.009 1.055-.019 1.58-.031a.82.82 0 0 0 .062-.3.849.849 0 0 0-.855-.842z" class="prefix__cls-2" data-name="Path 122322" transform="translate(-22.472 -7.005)"/>
                <path id="prefix__Path_122323" d="M2792.5 592.455a.849.849 0 0 0-.855.844.8.8 0 0 0 .052.252q.813-.023 1.617-.052a.8.8 0 0 0 .041-.2.849.849 0 0 0-.855-.844z" class="prefix__cls-2" data-name="Path 122323" transform="translate(-23.893 -7.005)"/>
                <path id="prefix__Path_122324" d="M2797.344 592.455a.849.849 0 0 0-.855.844.8.8 0 0 0 .027.13q.84-.035 1.672-.075c0-.02.011-.036.011-.055a.849.849 0 0 0-.855-.844z" class="prefix__cls-2" data-name="Path 122324" transform="translate(-25.313 -7.005)"/>
                <path id="prefix__Path_122325" d="M2802.187 592.455a.845.845 0 0 0-.848.809c.564-.032 1.119-.066 1.674-.1a.84.84 0 0 0-.826-.709z" class="prefix__cls-2" data-name="Path 122325" transform="translate(-26.737 -7.005)"/>
                <path id="prefix__Path_122326" d="M2807.045 592.455a.844.844 0 0 0-.8.586c.523-.037 1.045-.075 1.559-.115a.85.85 0 0 0-.759-.471z" class="prefix__cls-2" data-name="Path 122326" transform="translate(-28.176 -7.005)"/>
                <path id="prefix__Path_122327" d="M2811.309 592.757c.394-.035.779-.072 1.166-.109a.821.821 0 0 0-1.166.109z" class="prefix__cls-2" data-name="Path 122327" transform="translate(-29.663 -7.005)"/>
                <path id="prefix__Path_122328" d="M2820.685 571.826a.855.855 0 0 0 1.71 0 .838.838 0 0 0-.486-.753l-.5-.064a.837.837 0 0 0-.724.817z" class="prefix__cls-2" data-name="Path 122328" transform="translate(-32.414 -.711)"/>
                <path id="prefix__Path_122329" d="M2826.38 572.836a.85.85 0 0 0 .855-.844.807.807 0 0 0-.036-.174c-.5-.083-1.022-.164-1.545-.244a.816.816 0 0 0-.129.418.849.849 0 0 0 .855.844z" class="prefix__cls-2" data-name="Path 122329" transform="translate(-33.835 -.877)"/>
                <path id="prefix__Path_122330" d="M2831.23 573.066a.844.844 0 0 0 .719-.414c-.5-.1-1.019-.2-1.546-.295a.841.841 0 0 0 .827.709z" class="prefix__cls-2" data-name="Path 122330" transform="translate(-35.267 -1.106)"/>
                <path id="prefix__Path_122331" d="M2819.12 576.239a.843.843 0 1 1 0-1.686.843.843 0 1 0 0 1.686z" class="prefix__cls-2" data-name="Path 122331" transform="translate(-31.704 -1.751)"/>
                <path id="prefix__Path_122332" d="M2818.267 575.4a.854.854 0 1 0 .854-.843.85.85 0 0 0-.854.843z" class="prefix__cls-2" data-name="Path 122332" transform="translate(-31.705 -1.751)"/>
                <ellipse id="prefix__Ellipse_10942" cx=".855" cy=".843" class="prefix__cls-2" data-name="Ellipse 10942" rx=".855" ry=".843" transform="translate(2789.98 572.802)"/>
                <ellipse id="prefix__Ellipse_10943" cx=".855" cy=".843" class="prefix__cls-2" data-name="Ellipse 10943" rx=".855" ry=".843" transform="translate(2793.4 572.802)"/>
                <ellipse id="prefix__Ellipse_10944" cx=".855" cy=".843" class="prefix__cls-2" data-name="Ellipse 10944" rx=".855" ry=".843" transform="translate(2796.819 572.802)"/>
                <path id="prefix__Path_122333" d="M2838.479 576.239a.843.843 0 1 0-.855-.844.849.849 0 0 0 .855.844z" class="prefix__cls-2" data-name="Path 122333" transform="translate(-37.386 -1.751)"/>
                <path id="prefix__Path_122334" d="M2843.318 576.47a.851.851 0 0 0 .793-.54c-.493-.2-1.018-.4-1.588-.593a.824.824 0 0 0-.06.289.849.849 0 0 0 .855.844z" class="prefix__cls-2" data-name="Path 122334" transform="translate(-38.806 -1.981)"/>
                <ellipse id="prefix__Ellipse_10945" cx=".855" cy=".843" class="prefix__cls-2" data-name="Ellipse 10945" rx=".855" ry=".843" transform="translate(2788.271 575.332)"/>
                <path id="prefix__Path_122335" d="M2826.38 579.819a.843.843 0 1 0-.855-.843.849.849 0 0 0 .855.843z" class="prefix__cls-2" data-name="Path 122335" transform="translate(-33.835 -2.802)"/>
                <path id="prefix__Path_122336" d="M2831.219 579.819a.843.843 0 1 0-.855-.843.849.849 0 0 0 .855.843z" class="prefix__cls-2" data-name="Path 122336" transform="translate(-35.255 -2.802)"/>
                <ellipse id="prefix__Ellipse_10946" cx=".855" cy=".843" class="prefix__cls-2" data-name="Ellipse 10946" rx=".855" ry=".843" transform="translate(2798.529 575.332)"/>
                <ellipse id="prefix__Ellipse_10947" cx=".855" cy=".843" class="prefix__cls-2" data-name="Ellipse 10947" rx=".855" ry=".843" transform="translate(2801.948 575.332)"/>
                <path id="prefix__Path_122337" d="M2845.738 579.819a.843.843 0 1 0-.855-.843.849.849 0 0 0 .855.843z" class="prefix__cls-2" data-name="Path 122337" transform="translate(-39.516 -2.802)"/>
                <path id="prefix__Path_122338" d="M2819.12 583.4a.843.843 0 1 1 0-1.686.843.843 0 1 0 0 1.686z" class="prefix__cls-2" data-name="Path 122338" transform="translate(-31.704 -3.853)"/>
                <path id="prefix__Path_122339" d="M2818.267 582.557a.854.854 0 1 0 .854-.843.85.85 0 0 0-.854.843z" class="prefix__cls-2" data-name="Path 122339" transform="translate(-31.705 -3.853)"/>
                <ellipse id="prefix__Ellipse_10948" cx=".855" cy=".843" class="prefix__cls-2" data-name="Ellipse 10948" rx=".855" ry=".843" transform="translate(2789.98 577.861)"/>
                <ellipse id="prefix__Ellipse_10949" cx=".855" cy=".843" class="prefix__cls-2" data-name="Ellipse 10949" rx=".855" ry=".843" transform="translate(2793.4 577.861)"/>
                <ellipse id="prefix__Ellipse_10950" cx=".855" cy=".843" class="prefix__cls-2" data-name="Ellipse 10950" rx=".855" ry=".843" transform="translate(2796.819 577.861)"/>
                <path id="prefix__Path_122340" d="M2838.479 581.714a.843.843 0 1 0 .855.843.849.849 0 0 0-.855-.843z" class="prefix__cls-2" data-name="Path 122340" transform="translate(-37.386 -3.853)"/>
                <ellipse id="prefix__Ellipse_10951" cx=".855" cy=".843" class="prefix__cls-2" data-name="Ellipse 10951" rx=".855" ry=".843" transform="translate(2803.657 577.861)"/>
                <path id="prefix__Path_122341" d="M2821.54 585.294a.843.843 0 1 0 .855.844.85.85 0 0 0-.855-.844z" class="prefix__cls-2" data-name="Path 122341" transform="translate(-32.414 -4.903)"/>
                <path id="prefix__Path_122342" d="M2826.38 585.294a.843.843 0 1 0 .855.844.849.849 0 0 0-.855-.844z" class="prefix__cls-2" data-name="Path 122342" transform="translate(-33.835 -4.903)"/>
                <path id="prefix__Path_122343" d="M2831.219 585.294a.843.843 0 1 0 .855.844.849.849 0 0 0-.855-.844z" class="prefix__cls-2" data-name="Path 122343" transform="translate(-35.255 -4.903)"/>
                <path id="prefix__Path_122344" d="M2836.059 585.294a.843.843 0 1 0 .855.844.85.85 0 0 0-.855-.844z" class="prefix__cls-2" data-name="Path 122344" transform="translate(-36.676 -4.903)"/>
                <path id="prefix__Path_122345" d="M2840.9 585.294a.843.843 0 1 0 .854.844.849.849 0 0 0-.854-.844z" class="prefix__cls-2" data-name="Path 122345" transform="translate(-38.096 -4.903)"/>
                <path id="prefix__Path_122346" d="M2844.883 586.138c0 .013.007.024.008.037.518-.213.994-.431 1.422-.653a.851.851 0 0 0-1.43.616z" class="prefix__cls-2" data-name="Path 122346" transform="translate(-39.516 -4.903)"/>
                <path id="prefix__Path_122347" d="M2818.267 589.718a.849.849 0 0 1 .854-.843.843.843 0 1 0 0 1.686.849.849 0 0 1-.854-.843z" class="prefix__cls-2" data-name="Path 122347" transform="translate(-31.704 -5.954)"/>
                <path id="prefix__Path_122348" d="M2819.975 589.718a.854.854 0 1 0-.854.843.848.848 0 0 0 .854-.843z" class="prefix__cls-2" data-name="Path 122348" transform="translate(-31.705 -5.954)"/>
                <ellipse id="prefix__Ellipse_10952" cx=".855" cy=".843" class="prefix__cls-2" data-name="Ellipse 10952" rx=".855" ry=".843" transform="translate(2789.98 582.92)"/>
                <path id="prefix__Path_122349" d="M2828.8 588.875a.848.848 0 0 0-.854.843.814.814 0 0 0 .187.5c.5-.083.992-.168 1.471-.255a.82.82 0 0 0 .051-.249.849.849 0 0 0-.855-.839z" class="prefix__cls-2" data-name="Path 122349" transform="translate(-34.545 -5.954)"/>
                <path id="prefix__Path_122350" d="M2833.647 588.875a.842.842 0 0 0-.836.75q.8-.162 1.558-.331a.845.845 0 0 0-.722-.419z" class="prefix__cls-2" data-name="Path 122350" transform="translate(-35.973 -5.954)"/>
            </g>
            <g id="prefix__Group_55104" data-name="Group 55104">
                <path id="prefix__Path_122351" d="M2798.567 578.027c-13.274-.354-17.243-.6-17.459-1.2-1.62-4.491.727-25.055.727-25.055s-1.122 18.563-1.935 24.774c-.526 4.014-10.944 3.389-16.7 2.346-4.208-.762-1.544-11.667-4.706-19.38-5.022-12.248-7.876-27.861-.246-29.479 1.642-.349 12.35.007 14.039.056 38.686 1.126 33.6 9.384 33.626 9.573.874 6.03.163 12.74-3.917 23.44-2.858 7.492.543 15.031-3.429 14.925z" class="prefix__cls-6" data-name="Path 122351"/>
                <path id="prefix__Path_122352" d="M2741.1 504.435c-.88-1.807-6.867-14.648-.593-28.444a33.558 33.558 0 0 1 16.26-16.222s3.078 9.693 5.4 12.483" class="prefix__cls-7" data-name="Path 122352"/>
                <path id="prefix__Path_122353" d="M2823.549 506.6c.894-1.684 7.935-15.5 1.207-30.167-4.767-10.389-14.147-15.081-16.827-16.345a34.234 34.234 0 0 1-3.792 11.182" class="prefix__cls-7" data-name="Path 122353"/>
                <path id="prefix__Path_122354" d="M2749.883 520.012c-3.95 15.612 31.646 25.977 59.7 14.289 12.916-5.381 13.083-18.471 6.52-29.648s-18.705-49.575-18.705-49.575c-2.77.422-19.993-3.055-28.416 2.415-.002 0-15.148 46.907-19.099 62.519z" data-name="Path 122354" style="stroke-miterlimit:10;fill:#c2e889;stroke-width:.7px;stroke:#2d2d2d"/>
                <path id="prefix__Path_122355" d="M2755 474.679c-4.289 8.876-7.742 16.437-10.287 22.144-10.806 24.233-12.707 31.512-8.912 37.863a28.7 28.7 0 0 0 7.47 7.654c1.658 1.218 12.943 10.125 19 6.369 8.1-5.021 6.082-66.037 12.394-82.45 0 0-12.178-4.644-14.942-6.526" class="prefix__cls-7" data-name="Path 122355"/>
                <path id="prefix__Path_122356" d="M2810.05 475.133c3.673 8 6.386 15.119 9.052 21.227 10.412 23.846 10.009 31.215 6.037 37.862a28.662 28.662 0 0 1-7.47 7.654c-1.658 1.218-13.708 11.018-19 6.369-7.447-6.539-6.061-69.012-7.916-82.618 0 0 12.16-1.922 16.79-6.134" class="prefix__cls-7" data-name="Path 122356"/>
                <path id="prefix__Path_122357" d="M2807.354 456.262c-16.6 26.409-25.146 24.691-25.146 24.691-8.11.079-19.921-15.863-24.63-24.691" class="prefix__cls-9" data-name="Path 122357"/>
                <path id="prefix__Path_122358" d="M2782.208 480.953c1.015 4.334-1.478 11.707-1.705 13.521-.783 6.261 4.916 12.219 3.451 18.36-.767 3.215-3.422 5.853-3.716 9.142" data-name="Path 122358" style="stroke-miterlimit:10;fill:none;stroke-width:.7px;stroke:#2d2d2d"/>
                <ellipse id="prefix__Ellipse_10953" cx="3.612" cy="3.563" class="prefix__cls-7" data-name="Ellipse 10953" rx="3.612" ry="3.563" transform="translate(2775.715 520.902)"/>
                <path id="prefix__Path_122359" d="M2757.578 456.262c-.714-5.466.244-13.24 2.615-20.53 4.629-14.232 9.457-18.655 20.538-15.975 4.02.973 9.391-1.251 13.407.672 10.887 5.211 13.791 23.452 13.154 35.611-.156 2.973-17.7 11.375-25.9 11.426-7.826.049-23.415-8.15-23.814-11.204z" class="prefix__cls-7" data-name="Path 122359"/>
                <path id="prefix__Path_122360" d="M2771.271 423.2c.052-1.592-3.876-8.257-9.371-3.344-4.327 3.869.179 9.127 3.024 9.127" class="prefix__cls-7" data-name="Path 122360"/>
                <path id="prefix__Path_122361" d="M2768.819 424.4a.25.25 0 0 0 .142-.326 2.786 2.786 0 0 0-3.783-1.223 2.478 2.478 0 0 0 .454 4.363.351.351 0 0 0 .455-.125 9.713 9.713 0 0 1 1.154-1.566 6.287 6.287 0 0 1 1.578-1.123z" class="prefix__cls-1" data-name="Path 122361"/>
                <path id="prefix__Path_122362" d="M2793.651 423.261c-.051-1.591 3.876-8.256 9.371-3.343 4.328 3.868-.178 9.126-3.023 9.126" class="prefix__cls-7" data-name="Path 122362"/>
                <path id="prefix__Path_122363" d="M2799.27 427.422c4.34-2.786-.918-7.331-3.148-3.3a.436.436 0 0 0 .13.56 14.646 14.646 0 0 1 1.531 1.288 7.562 7.562 0 0 1 1.055 1.357.316.316 0 0 0 .432.095z" class="prefix__cls-1" data-name="Path 122363"/>
                <path id="prefix__Path_122364" d="M2782.84 451.557a7.853 7.853 0 0 1 .311 4.9" class="prefix__cls-7" data-name="Path 122364"/>
                <path id="prefix__Path_122365" d="M2776.682 446.681a6.691 6.691 0 0 1 2.993-1.888c2.164-.7 6.459-1.543 8.194.5 1.333 1.568-.937 4.762-2.221 5.661a5.8 5.8 0 0 1-4.954.654c-1.359-.411-4.182-1.878-4.448-3.44a1.878 1.878 0 0 1 .436-1.487z" class="prefix__cls-1" data-name="Path 122365"/>
                <circle id="prefix__Ellipse_10954" cx=".996" cy=".996" r=".996" class="prefix__cls-1" data-name="Ellipse 10954" transform="translate(2786.117 440.674)"/>
                <circle id="prefix__Ellipse_10955" cx=".996" cy=".996" r=".996" class="prefix__cls-1" data-name="Ellipse 10955" transform="translate(2775.436 441.56)"/>
                <g id="prefix__Group_55103" data-name="Group 55103">
                    <path id="prefix__SVGID-2" d="M2791.178 447.637c-.508 11.527-16.237 11.228-17.9 2.659 0 0-.822 11.054 8.217 11.787 10.613.86 12.635-10.208 9.683-14.446z" class="prefix__cls-6" data-name="SVGID"/>
                    <g id="prefix__Group_55102" data-name="Group 55102">
                        <path id="prefix__Path_122366" d="M2786.347 462.009a3.954 3.954 0 0 0-3.667-1.926 4.744 4.744 0 0 0-3.531 1.819" class="prefix__cls-7" data-name="Path 122366"/>
                    </g>
                    <path id="prefix__SVGID-3" d="M2791.178 447.637c-.508 11.527-16.237 11.228-17.9 2.659 0 0-.822 11.054 8.217 11.787 10.613.86 12.635-10.208 9.683-14.446z" class="prefix__cls-9" data-name="SVGID"/>
                </g>
                <path id="prefix__Path_122367" d="M2790.967 438.877a5.883 5.883 0 0 0-4.729-3.191" class="prefix__cls-9" data-name="Path 122367"/>
                <path id="prefix__Path_122368" d="M2771.522 440.982a6.316 6.316 0 0 1 4.005-3.925" class="prefix__cls-9" data-name="Path 122368"/>
                <path id="prefix__Path_122369" d="M2757.578 456.262c9.744 8.584 17.092 10 17.092 10s-3.9 6.254-8.006 9.221c-3 2.166-9.3-11.487-9.8-15.987z" class="prefix__cls-7" data-name="Path 122369"/>
                <path id="prefix__Path_122370" d="M2807.354 456.262c-6.532 6.641-16.6 9.365-16.6 9.365s4.544 6.987 8.65 9.953c3 2.166 8.027-10.99 8.528-15.49z" class="prefix__cls-7" data-name="Path 122370"/>
                <path id="prefix__Path_122371" d="M2780.162 574.9c1.21-5.966.606-25.414.606-25.414s-3.172.367-5.053-1.322" data-name="Path 122371" style="stroke:#fff;fill:none;stroke-width:.7px;stroke-linejoin:round;stroke-linecap:round"/>
                <path id="prefix__Path_122372" d="M2780.828 575.892s11.543-8.868 18.554 2.34c0 0 .346 1.867-.223 2.431s-9.085 3.654-17.159.908c0 0-3.806-2.064-1.172-5.679z" class="prefix__cls-13" data-name="Path 122372"/>
                <path id="prefix__Path_122373" d="M2780.711 575.892s-11.543-8.868-18.553 2.34c0 0-.346 1.867.222 2.431s9.085 3.654 17.159.908c0 0 3.806-2.064 1.172-5.679z" class="prefix__cls-13" data-name="Path 122373"/>
            </g>
        </g>
    </g>
</svg>
