<svg width="133" height="20" viewBox="0 0 133 20" fill="none" xmlns="http://www.w3.org/2000/svg">
<path d="M125.351 4.97681L131.804 11.4309L125.351 17.885" fill="#0099EF"/>
<path d="M125.351 4.97681L131.804 11.4309L125.351 17.885" stroke="#0099EF" stroke-width="2" stroke-linecap="round" stroke-linejoin="round"/>
<path d="M5.244 13.423L8.778 3.068H10.355L6.099 15H4.56L0.342 3.068H1.919L5.434 13.423H5.244ZM13.4425 3.771C13.1385 3.771 12.8978 3.6855 12.7205 3.5145C12.5432 3.33717 12.4545 3.106 12.4545 2.821C12.4545 2.54233 12.5432 2.32067 12.7205 2.156C12.8978 1.99133 13.1385 1.909 13.4425 1.909C13.7465 1.909 13.9872 1.99133 14.1645 2.156C14.3418 2.32067 14.4305 2.54233 14.4305 2.821C14.4305 3.106 14.3418 3.33717 14.1645 3.5145C13.9872 3.6855 13.7465 3.771 13.4425 3.771ZM12.7015 15V5.899H14.1835V15H12.7015ZM21.4197 15.228C20.6343 15.228 19.9313 15.0285 19.3107 14.6295C18.6963 14.2242 18.2087 13.6637 17.8477 12.948C17.493 12.2323 17.3157 11.409 17.3157 10.478C17.3157 9.48367 17.493 8.62867 17.8477 7.913C18.2023 7.19733 18.6868 6.6495 19.3012 6.2695C19.9218 5.88317 20.628 5.69 21.4197 5.69C22.11 5.69 22.699 5.82933 23.1867 6.108C23.6743 6.38667 24.067 6.7635 24.3647 7.2385C24.6623 7.7135 24.8682 8.25183 24.9822 8.8535C25.1025 9.44883 25.1373 10.0663 25.0867 10.706H18.5127V9.794H24.1082L23.6712 10.079C23.6902 9.70533 23.668 9.33167 23.6047 8.958C23.5477 8.58433 23.4368 8.24233 23.2722 7.932C23.1075 7.61533 22.8763 7.362 22.5787 7.172C22.281 6.982 21.901 6.887 21.4387 6.887C20.856 6.887 20.3683 7.03583 19.9757 7.3335C19.583 7.63117 19.2885 8.02383 19.0922 8.5115C18.8958 8.99283 18.7977 9.51533 18.7977 10.079V10.687C18.7977 11.3203 18.8927 11.8872 19.0827 12.3875C19.279 12.8878 19.5703 13.2837 19.9567 13.575C20.343 13.8663 20.8307 14.012 21.4197 14.012C22.0087 14.012 22.4932 13.8695 22.8732 13.5845C23.2532 13.2995 23.4843 12.8783 23.5667 12.321H25.1057C25.0107 12.9227 24.7953 13.442 24.4597 13.879C24.124 14.3097 23.6965 14.6422 23.1772 14.8765C22.6578 15.1108 22.072 15.228 21.4197 15.228ZM26.4484 5.918H27.9874L30.3054 13.499H30.1154L32.3764 6.355H33.6114L35.8534 13.518H35.6824L38.0004 5.918H39.4824L36.4994 15H35.0554L32.8514 8.293H33.0794L30.8944 15H29.4504L26.4484 5.918ZM46.3018 3.068H49.7978C51.0011 3.068 52.0461 3.315 52.9328 3.809C53.8195 4.29667 54.5066 4.987 54.9943 5.88C55.482 6.773 55.7258 7.82433 55.7258 9.034C55.7258 10.231 55.482 11.276 54.9943 12.169C54.5066 13.062 53.8195 13.7587 52.9328 14.259C52.0461 14.753 51.0011 15 49.7978 15H46.3018V3.068ZM47.7838 4.379V13.708H49.7978C50.6971 13.708 51.4698 13.5053 52.1158 13.1C52.7681 12.6947 53.2685 12.1405 53.6168 11.4375C53.9715 10.7282 54.1488 9.927 54.1488 9.034C54.1488 8.13467 53.9715 7.33667 53.6168 6.64C53.2685 5.937 52.7681 5.386 52.1158 4.987C51.4698 4.58167 50.6971 4.379 49.7978 4.379H47.7838ZM59.6808 3.771C59.3768 3.771 59.1361 3.6855 58.9588 3.5145C58.7814 3.33717 58.6928 3.106 58.6928 2.821C58.6928 2.54233 58.7814 2.32067 58.9588 2.156C59.1361 1.99133 59.3768 1.909 59.6808 1.909C59.9848 1.909 60.2254 1.99133 60.4028 2.156C60.5801 2.32067 60.6688 2.54233 60.6688 2.821C60.6688 3.106 60.5801 3.33717 60.4028 3.5145C60.2254 3.6855 59.9848 3.771 59.6808 3.771ZM58.9398 15V5.899H60.4218V15H58.9398ZM64.504 15V5.899H65.986V15H64.504ZM65.53 10.896C65.53 9.74333 65.6408 8.787 65.8625 8.027C66.0841 7.26067 66.4071 6.69067 66.8315 6.317C67.2621 5.937 67.7846 5.747 68.399 5.747C68.6016 5.747 68.7853 5.76283 68.95 5.7945C69.121 5.81983 69.292 5.861 69.463 5.918L69.368 7.381C69.1906 7.324 68.9975 7.2765 68.7885 7.2385C68.5795 7.19417 68.3926 7.172 68.228 7.172C67.6896 7.172 67.2558 7.32717 66.9265 7.6375C66.5971 7.9415 66.3565 8.37217 66.2045 8.9295C66.0588 9.48683 65.986 10.1423 65.986 10.896H65.53ZM74.5232 15.228C73.7379 15.228 73.0349 15.0285 72.4142 14.6295C71.7999 14.2242 71.3122 13.6637 70.9512 12.948C70.5965 12.2323 70.4192 11.409 70.4192 10.478C70.4192 9.48367 70.5965 8.62867 70.9512 7.913C71.3059 7.19733 71.7904 6.6495 72.4047 6.2695C73.0254 5.88317 73.7315 5.69 74.5232 5.69C75.2135 5.69 75.8025 5.82933 76.2902 6.108C76.7779 6.38667 77.1705 6.7635 77.4682 7.2385C77.7659 7.7135 77.9717 8.25183 78.0857 8.8535C78.206 9.44883 78.2409 10.0663 78.1902 10.706H71.6162V9.794H77.2117L76.7747 10.079C76.7937 9.70533 76.7715 9.33167 76.7082 8.958C76.6512 8.58433 76.5404 8.24233 76.3757 7.932C76.211 7.61533 75.9799 7.362 75.6822 7.172C75.3845 6.982 75.0045 6.887 74.5422 6.887C73.9595 6.887 73.4719 7.03583 73.0792 7.3335C72.6865 7.63117 72.392 8.02383 72.1957 8.5115C71.9994 8.99283 71.9012 9.51533 71.9012 10.079V10.687C71.9012 11.3203 71.9962 11.8872 72.1862 12.3875C72.3825 12.8878 72.6739 13.2837 73.0602 13.575C73.4465 13.8663 73.9342 14.012 74.5232 14.012C75.1122 14.012 75.5967 13.8695 75.9767 13.5845C76.3567 13.2995 76.5879 12.8783 76.6702 12.321H78.2092C78.1142 12.9227 77.8989 13.442 77.5632 13.879C77.2275 14.3097 76.8 14.6422 76.2807 14.8765C75.7614 15.1108 75.1755 15.228 74.5232 15.228ZM84.321 15.228C83.5926 15.228 82.9118 15.0317 82.2785 14.639C81.6515 14.2463 81.1448 13.6922 80.7585 12.9765C80.3721 12.2608 80.179 11.4153 80.179 10.44C80.179 9.43933 80.3721 8.58433 80.7585 7.875C81.1448 7.16567 81.6515 6.62417 82.2785 6.2505C82.9118 5.87683 83.5926 5.69 84.321 5.69C84.834 5.69 85.2931 5.76917 85.6985 5.9275C86.1101 6.0795 86.468 6.29167 86.772 6.564C87.076 6.83633 87.3261 7.14667 87.5225 7.495C87.7251 7.837 87.874 8.198 87.969 8.578L86.449 8.711C86.2906 8.18533 86.0246 7.7705 85.651 7.4665C85.2836 7.15617 84.834 7.001 84.302 7.001C83.8523 7.001 83.428 7.13083 83.029 7.3905C82.6363 7.64383 82.3165 8.027 82.0695 8.54C81.8225 9.04667 81.699 9.68 81.699 10.44C81.699 11.143 81.8098 11.7542 82.0315 12.2735C82.2595 12.7865 82.5698 13.1855 82.9625 13.4705C83.3551 13.7555 83.8016 13.898 84.302 13.898C85.005 13.898 85.537 13.727 85.898 13.385C86.2653 13.0367 86.449 12.5553 86.449 11.941H87.969C87.969 12.5743 87.8201 13.138 87.5225 13.632C87.2248 14.126 86.8005 14.5155 86.2495 14.8005C85.7048 15.0855 85.062 15.228 84.321 15.228ZM93.7188 15.228C93.2248 15.228 92.7815 15.133 92.3888 14.943C91.9962 14.753 91.6858 14.468 91.4578 14.088C91.2298 13.708 91.1158 13.233 91.1158 12.663V3.391H92.5788V12.625C92.5788 13.5623 93.0158 14.031 93.8898 14.031C94.1495 14.031 94.3997 14.0025 94.6403 13.9455C94.8873 13.8885 95.1628 13.803 95.4668 13.689L95.6758 14.753C95.3528 14.8923 95.0298 15.0063 94.7068 15.095C94.3902 15.1837 94.0608 15.228 93.7188 15.228ZM89.6528 6.944V5.918H95.4478V6.944H89.6528ZM101.356 15.228C100.539 15.228 99.8111 15.0475 99.1714 14.6865C98.5381 14.3255 98.0377 13.7903 97.6704 13.081C97.3031 12.3717 97.1194 11.4977 97.1194 10.459C97.1194 9.414 97.3031 8.54 97.6704 7.837C98.0377 7.12767 98.5381 6.5925 99.1714 6.2315C99.8111 5.8705 100.539 5.69 101.356 5.69C102.167 5.69 102.889 5.8705 103.522 6.2315C104.162 6.5925 104.662 7.12767 105.023 7.837C105.391 8.54 105.574 9.414 105.574 10.459C105.574 11.4977 105.391 12.3717 105.023 13.081C104.662 13.7903 104.162 14.3255 103.522 14.6865C102.889 15.0475 102.167 15.228 101.356 15.228ZM101.318 13.936C101.907 13.936 102.408 13.7967 102.819 13.518C103.231 13.233 103.541 12.8308 103.75 12.3115C103.966 11.7922 104.073 11.1747 104.073 10.459C104.073 9.376 103.849 8.52417 103.399 7.9035C102.949 7.2765 102.281 6.963 101.394 6.963C100.799 6.963 100.296 7.1055 99.8839 7.3905C99.4786 7.66917 99.1682 8.07133 98.9529 8.597C98.7439 9.11633 98.6394 9.737 98.6394 10.459C98.6394 11.5293 98.8642 12.378 99.3139 13.005C99.7699 13.6257 100.438 13.936 101.318 13.936ZM108.46 15V5.899H109.942V15H108.46ZM109.486 10.896C109.486 9.74333 109.597 8.787 109.819 8.027C110.04 7.26067 110.363 6.69067 110.788 6.317C111.218 5.937 111.741 5.747 112.355 5.747C112.558 5.747 112.741 5.76283 112.906 5.7945C113.077 5.81983 113.248 5.861 113.419 5.918L113.324 7.381C113.147 7.324 112.954 7.2765 112.745 7.2385C112.536 7.19417 112.349 7.172 112.184 7.172C111.646 7.172 111.212 7.32717 110.883 7.6375C110.553 7.9415 110.313 8.37217 110.161 8.9295C110.015 9.48683 109.942 10.1423 109.942 10.896H109.486ZM113.824 5.918H115.477L118.441 13.708H118.099L120.398 5.918H121.918L118.498 16.824C118.213 17.736 117.833 18.439 117.358 18.933C116.883 19.427 116.275 19.674 115.534 19.674C115.135 19.674 114.755 19.617 114.394 19.503C114.04 19.389 113.672 19.2243 113.292 19.009V17.641C113.628 17.907 113.951 18.097 114.261 18.211C114.578 18.325 114.907 18.382 115.249 18.382C115.629 18.382 115.946 18.2617 116.199 18.021C116.459 17.7803 116.674 17.47 116.845 17.09C117.016 16.7163 117.162 16.3237 117.282 15.912L117.548 15L113.824 5.918Z" fill="#0099EF"/>
</svg>
